<svg width="161" height="27" viewBox="0 0 161 27" fill="none" xmlns="http://www.w3.org/2000/svg">
<path d="M159.213 24.9886C160.311 24.8711 161.106 23.8855 160.989 22.7872L159.073 4.88938C158.956 3.79108 157.97 2.99601 156.872 3.11354C155.774 3.23108 154.979 4.2167 155.096 5.315L156.799 21.2242L140.889 22.9267C139.791 23.0442 138.996 24.0298 139.114 25.1281C139.231 26.2264 140.217 27.0215 141.315 26.9039L159.213 24.9886ZM2 23C3.16675 24.6244 3.16621 24.6248 3.16577 24.6251C3.16578 24.6251 3.16546 24.6253 3.16547 24.6253C3.16548 24.6253 3.16594 24.625 3.16685 24.6243C3.16865 24.6231 3.17223 24.6205 3.17758 24.6167C3.18828 24.6091 3.20605 24.5966 3.23087 24.5793C3.28051 24.5446 3.35835 24.4907 3.46413 24.4189C3.67571 24.2752 3.99908 24.0599 4.43239 23.7831C5.29904 23.2294 6.60522 22.4299 8.33604 21.4661C11.798 19.5385 16.9568 16.9549 23.6939 14.367C37.1666 9.19178 56.949 4 82.102 4V0C56.3903 0 36.1217 5.30822 22.2596 10.633C15.3292 13.2951 9.99971 15.9615 6.39012 17.9714C4.58519 18.9764 3.20982 19.8175 2.27887 20.4123C1.81338 20.7096 1.45894 20.9455 1.2174 21.1095C1.09663 21.1914 1.00408 21.2555 0.939977 21.3003C0.907926 21.3227 0.882988 21.3402 0.865191 21.3528C0.856293 21.3591 0.849179 21.3642 0.843855 21.368C0.841192 21.3699 0.838977 21.3715 0.83721 21.3728C0.836326 21.3734 0.835336 21.3741 0.834894 21.3744C0.834017 21.375 0.833251 21.3756 2 23ZM82.102 4C107.252 4 126.221 9.19053 138.87 14.3518C145.196 16.9332 149.945 19.5089 153.098 21.4273C154.674 22.3865 155.851 23.1812 156.627 23.7301C157.014 24.0045 157.301 24.2173 157.488 24.3585C157.581 24.4291 157.649 24.4818 157.692 24.5152C157.713 24.5319 157.728 24.5439 157.737 24.5508C157.741 24.5543 157.744 24.5565 157.745 24.5575C157.746 24.558 157.746 24.5582 157.746 24.558C157.746 24.558 157.745 24.5576 157.745 24.5576C157.745 24.5572 157.744 24.5567 159 23C160.256 21.4433 160.255 21.4427 160.254 21.4419C160.254 21.4416 160.252 21.4407 160.252 21.44C160.25 21.4386 160.248 21.4369 160.245 21.4348C160.24 21.4307 160.233 21.4253 160.225 21.4187C160.208 21.4055 160.185 21.3873 160.156 21.3643C160.097 21.3183 160.013 21.253 159.903 21.1698C159.683 21.0034 159.361 20.7651 158.938 20.4653C158.09 19.8656 156.836 19.0198 155.177 18.0102C151.859 15.9911 146.921 13.3168 140.381 10.6482C127.297 5.30947 107.817 0 82.102 0V4Z" fill="#FF640D"/>
</svg>
