<svg width="145" height="124" viewBox="0 0 145 124" fill="none" xmlns="http://www.w3.org/2000/svg">
<g clip-path="url(#clip0_71_823)">
<path d="M9.67118 113.741C9.67118 114.981 10.688 116 11.9244 116H133.736C134.973 116 135.99 114.987 135.99 113.741L137 43.5702C137 42.3307 135.544 39.9084 132.87 40.0909L13.8261 37.0017C12.2696 36.9639 10.7695 37.5616 9.6649 38.6627C8.56654 39.7637 7.96401 41.2674 8.00167 42.8215L9.67746 113.741H9.67118Z" fill="url(#paint0_linear_71_823)"/>
<path d="M11.7 111.862C11.7 113.038 12.6628 114 13.8394 114H130.904C132.081 114 133.044 113.038 133.044 111.862L134 48.1894C133.887 44.3597 130.527 42.9825 128.488 43.0642L14.1037 40.0016C13.0088 39.9702 11.9517 40.3915 11.1777 41.165C10.4038 41.9385 9.97588 42.995 10.0011 44.0893L11.7 111.862Z" fill="white"/>
<g opacity="0.67">
<path d="M132.441 81C132.198 81 132 80.8502 132 80.6677L132.108 75.3192C132.108 75.1433 132.315 75 132.559 75C132.802 75 133 75.1498 133 75.3322L132.892 80.6808C132.892 80.8567 132.685 81 132.441 81Z" fill="#F9CD93"/>
<path d="M132.39 68C132.22 68 132.082 67.8591 132.082 67.6876L132.371 48.4227C132.371 47.2772 132.006 46.3645 131.308 45.7152C130.006 44.5023 127.936 44.5636 127.848 44.5636L91.3021 43.608C91.1323 43.608 90.9939 43.461 91.0002 43.2956C91.0002 43.1302 91.1386 42.9832 91.321 43.0016L127.848 43.9571C128.075 43.9449 130.276 43.9081 131.748 45.2741C132.572 46.046 132.994 47.1057 133 48.4288L132.711 67.6998C132.711 67.8652 132.566 68 132.396 68H132.39Z" fill="#F9CD93"/>
</g>
<path d="M3.08377 122L140.916 122C142.619 122 144 120.657 144 119C144 117.343 142.619 116 140.916 116L3.08377 116C1.38065 116 0 117.343 0 119C0 120.657 1.38065 122 3.08377 122Z" fill="url(#paint1_linear_71_823)"/>
<path d="M101.648 0.474922L24.4433 5.62417e-05C21.9066 -0.0126069 19.8797 2.11479 20.0056 4.66641L25.1735 112.068C25.2554 113.708 26.5961 115 28.2328 115H108.302C109.938 115 111.292 113.708 111.373 112.056L116 16.4241L101.648 0.474922Z" fill="#F9CD93"/>
<path d="M105.148 16.5879C102.698 16.4978 100.818 14.2829 101.014 11.7139L101.816 1L116 17L105.148 16.5879Z" fill="#EFA245"/>
<path d="M37.3344 20.0012C48.0717 20.2941 89.284 21.3682 99.6929 21.6367C101.007 21.6733 102.049 22.485 101.998 23.431C101.948 24.3342 100.925 25.0238 99.6739 24.9994L37.347 23.5835C36.1469 23.5591 35.1427 22.8695 35.0353 22.0029L35.0101 21.7832C34.8837 20.7884 35.9638 19.9646 37.3407 20.0012H37.3344Z" fill="white"/>
<path d="M36.2991 30.9085C36.4695 31.1716 36.7914 31.3377 37.1511 31.3515L79.8887 32.9991C80.4251 33.0198 80.8732 32.6876 80.8921 32.2445L80.9994 29.9324C81.0183 29.4756 80.5766 29.081 80.0149 29.0671L38.4448 28.0011C36.5957 27.9526 35.4156 29.5517 36.2991 30.9085Z" fill="white"/>
<path d="M36.3344 39.0012C47.0717 39.2941 88.284 40.3682 98.6929 40.6367C100.007 40.6733 101.049 41.485 100.998 42.431C100.948 43.3342 99.9245 44.0238 98.6739 43.9994L36.347 42.5835C35.1469 42.5591 34.1427 41.8695 34.0353 41.0029L34.0101 40.7832C33.8837 39.7884 34.9638 38.9646 36.3407 39.0012H36.3344Z" fill="white"/>
<path d="M35.2991 49.9085C35.4695 50.1716 35.7914 50.3377 36.1511 50.3515L78.8887 51.9991C79.4251 52.0198 79.8732 51.6876 79.8921 51.2445L79.9994 48.9324C80.0184 48.4756 79.5766 48.081 79.0149 48.0671L37.4448 47.0011C35.5957 46.9526 34.4156 48.5517 35.2991 49.9085Z" fill="white"/>
<path d="M40 84.4521C40.3675 79.8444 41.9515 75.3241 44.4415 71.3595C45.6897 69.3803 47.1659 67.526 48.845 65.8714C49.2758 65.4718 49.7003 65.0535 50.1375 64.6664C50.5937 64.2918 51.0372 63.8985 51.4997 63.5301C51.9749 63.1805 52.4438 62.8183 52.938 62.4812L53.6856 61.9942L54.0594 61.7507L54.2432 61.6321C54.3129 61.5884 54.4016 61.5384 54.4839 61.4947C55.7955 60.783 57.6772 60.7455 58.9508 62.0067C59.2612 62.3064 59.4766 62.6747 59.635 63.0306C59.7111 63.2117 59.7808 63.3927 59.8188 63.5676C59.8758 63.7486 59.9011 63.9234 59.9328 64.0983C60.0469 64.7975 60.0152 65.4469 59.9455 66.0712C59.9138 66.3834 59.8631 66.6893 59.8061 66.989L59.635 67.8319C59.5273 68.3938 59.4006 68.9557 59.2739 69.5176C59.0205 70.6415 58.7353 71.7528 58.4375 72.8642C57.2211 77.2971 55.6117 81.6301 53.6159 85.782L52.8556 87.3304C52.5895 87.8424 52.3297 88.3543 52.0573 88.8601L51.6454 89.6155L51.4363 89.9964L51.2083 90.3897C50.8915 90.9142 50.543 91.4262 50.1311 91.9131C49.7193 92.4001 49.2505 92.8622 48.6739 93.2555C48.0973 93.6426 47.375 93.9548 46.5704 93.9922C46.3739 94.011 46.1712 93.9922 45.9748 93.9735C45.772 93.961 45.5883 93.8986 45.3982 93.8549C45.0181 93.755 44.6569 93.5739 44.3401 93.3492C43.7002 92.9059 43.244 92.2878 42.9589 91.6197C42.6864 90.9641 42.566 90.2773 42.5597 89.6093C42.5534 88.9412 42.6548 88.3106 42.7941 87.7113C42.9335 87.1119 43.1109 86.55 43.3074 86.0005L43.5925 85.1701L43.9156 84.3522C44.7836 82.1795 45.9241 80.1191 47.261 78.2024C48.5915 76.2794 50.1692 74.5249 51.8989 72.9453L52.222 72.6456L52.5578 72.3647L53.2357 71.8028C53.4638 71.6217 53.7046 71.4469 53.9327 71.2658C54.1671 71.091 54.3952 70.9099 54.6423 70.7476C55.1239 70.4167 55.6054 70.0733 56.1059 69.7736L56.4797 69.5426L56.6635 69.424C56.6952 69.4053 56.7205 69.3865 56.7649 69.3615L56.8852 69.2929C57.2147 69.1181 57.5822 69.0057 57.956 68.9682C58.7037 68.8808 59.5083 69.0993 60.0912 69.6238C60.389 69.886 60.6298 70.2544 60.7375 70.6415C60.8515 71.0286 60.8515 71.3969 60.8135 71.7278C60.7755 72.065 60.7058 72.3709 60.6298 72.6581L60.3953 73.4823L59.9265 75.1181C59.3119 77.3033 58.6656 79.4823 58.0384 81.6613L57.069 81.4927C57.1387 80.756 57.3414 80.0192 57.7533 79.3512C57.9624 79.0203 58.2158 78.7143 58.5389 78.4584C58.8621 78.2024 59.2359 78.0213 59.6287 77.9027C60.0215 77.7965 60.446 77.7528 60.8705 77.8215C61.0796 77.8527 61.2887 77.9152 61.4915 78.0026C61.5928 78.0463 61.6879 78.1025 61.7829 78.1587L61.9793 78.2773C62.4545 78.5395 63.0501 78.5895 63.538 78.3772C63.6583 78.3272 63.7724 78.2586 63.8801 78.1836C63.9308 78.1399 63.9878 78.1025 64.0322 78.0525L64.1082 77.9839L64.1969 77.8902L64.9065 77.1472L66.3194 75.6613L67.7324 74.1753L68.442 73.4323C68.613 73.2513 68.8665 73.0952 69.1453 73.039C69.424 72.9828 69.7092 73.0203 69.9563 73.1264C70.2034 73.2388 70.4125 73.4136 70.5582 73.6508C70.7039 73.8819 70.7673 74.1753 70.7356 74.4438C70.7356 74.5125 70.7166 74.5749 70.6976 74.6373C70.6786 74.6998 70.6596 74.7747 70.6469 74.8059L70.5645 75.0432L70.4061 75.5177C70.197 76.1483 70.0196 76.7913 69.8739 77.4407C69.7282 78.09 69.6141 78.7456 69.5318 79.4074C69.5254 79.4885 69.5128 79.576 69.5001 79.6509V79.8507C69.4874 79.9193 69.5001 79.9818 69.5064 80.0505C69.5191 80.1129 69.5127 80.1816 69.5381 80.244C69.5951 80.5 69.7345 80.731 69.9056 80.9308C70.0766 81.1368 70.3111 81.2867 70.5582 81.3866C70.6786 81.4428 70.8179 81.4677 70.9447 81.499C71.0777 81.5114 71.2108 81.5302 71.3438 81.5114C71.6099 81.4927 71.8697 81.424 72.0978 81.2742L72.1865 81.2242L72.2625 81.1618L72.4209 81.0307L72.7884 80.6748C73.7642 79.732 74.6955 78.7456 75.5762 77.7216C77.344 75.6675 78.9216 73.4635 80.2902 71.1347L80.7907 70.2544L81.0315 69.8111L81.1518 69.5863L81.1835 69.5301C81.1835 69.5301 81.1835 69.5301 81.1835 69.5426C81.1835 69.5801 81.1962 69.5863 81.1962 69.5863C81.1962 69.5863 81.2025 69.5863 81.2215 69.5863C81.2342 69.5863 81.2596 69.5801 81.2596 69.5738L81.2152 69.6175L81.1265 69.7049C81.0695 69.7611 81.0125 69.8236 80.9554 69.8798C80.8414 69.9984 80.7337 70.1233 80.6196 70.2419C80.1888 70.7351 79.796 71.2658 79.4475 71.8215C79.2764 72.1025 79.1117 72.3834 78.9596 72.6769C78.8836 72.8205 78.8139 72.9703 78.7442 73.1201L78.6428 73.3449L78.5921 73.4573L78.5605 73.5572C78.364 74.0816 78.3577 74.6623 78.6048 75.168C78.8456 75.6613 79.2764 76.0858 79.8086 76.2731C80.0684 76.3855 80.3472 76.4105 80.626 76.4167C80.8984 76.3918 81.1835 76.348 81.437 76.2169L81.6334 76.1295L81.8551 76.0047C82.0009 75.9172 82.1466 75.8361 82.2923 75.7487C82.5838 75.5739 82.8689 75.399 83.1477 75.2117C85.4096 73.7383 87.4308 71.9151 89.1161 69.8298C89.2872 69.6175 89.5976 69.5801 89.8131 69.7486C90.0285 69.9172 90.0602 70.2232 89.8954 70.4354C88.1467 72.6082 86.0432 74.5 83.6989 76.0234C83.4074 76.2107 83.1096 76.398 82.8055 76.5791C82.6598 76.6727 82.5014 76.7539 82.3493 76.8413L82.1212 76.9724L81.8488 77.0973C81.4877 77.2721 81.0758 77.3533 80.664 77.3845C80.2521 77.3845 79.834 77.3345 79.4538 77.1784C78.6808 76.8975 78.0599 76.2981 77.7114 75.5676C77.3503 74.8371 77.3566 73.9505 77.6354 73.2076L77.6861 73.064L77.7431 72.9453L77.8508 72.7018C77.9269 72.5395 78.0029 72.3834 78.0853 72.2273C78.25 71.9151 78.4211 71.603 78.6111 71.3033C78.985 70.7039 79.4095 70.1295 79.8783 69.5926C79.9987 69.4614 80.1128 69.3241 80.2395 69.1992C80.3028 69.1368 80.3599 69.0681 80.4232 69.0057L80.5183 68.912L80.5626 68.8621C80.5626 68.8621 80.626 68.8059 80.6576 68.7809C80.797 68.681 80.9808 68.5998 81.1709 68.5936C81.3609 68.5811 81.5383 68.6311 81.6904 68.7122C81.9882 68.8746 82.2099 69.2179 82.1846 69.5926C82.1783 69.68 82.1593 69.7736 82.1276 69.8485C82.1149 69.886 82.0959 69.9297 82.0769 69.9609L82.0452 70.0171L81.9185 70.2419L81.6714 70.6977L81.1582 71.5967C79.7579 73.9755 78.1423 76.2294 76.3429 78.3272C75.4368 79.3762 74.4865 80.3814 73.4917 81.3429L73.1179 81.705L72.8771 81.8985L72.7567 81.9922L72.6237 82.0734C72.2689 82.2981 71.8444 82.4167 71.4262 82.448C71.2171 82.4667 71.0017 82.448 70.7926 82.423C70.5899 82.3793 70.3808 82.3356 70.1907 82.2482C69.8042 82.0858 69.4494 81.8548 69.1706 81.5364C68.8982 81.2242 68.6827 80.8434 68.5877 80.4376C68.556 80.3377 68.5497 80.2315 68.537 80.1316C68.5243 80.0255 68.5053 79.9256 68.518 79.8194L68.5307 79.5135L68.5624 79.2513C68.6511 78.5583 68.7714 77.8777 68.9235 77.1972C69.0756 76.5166 69.2593 75.8486 69.4811 75.1868L69.6521 74.6935L69.7408 74.45C69.7598 74.4001 69.7535 74.3938 69.7662 74.3689C69.7725 74.3501 69.7789 74.3314 69.7789 74.3127C69.7852 74.244 69.7789 74.1878 69.7408 74.1254C69.7028 74.0692 69.6458 74.013 69.5761 73.988C69.4304 73.9318 69.3227 73.9505 69.196 74.0692L68.4863 74.8121L67.0734 76.2981L65.6605 77.7841L64.9509 78.527L64.8622 78.6207L64.7481 78.7268C64.6721 78.8018 64.5897 78.8642 64.5074 78.9329C64.3363 79.0577 64.1526 79.1639 63.9561 79.245C63.1705 79.5822 62.2518 79.501 61.5231 79.0952L61.2824 78.9454C61.2254 78.9141 61.1747 78.8829 61.1176 78.8579C61.0036 78.8018 60.8769 78.7705 60.7502 78.7518C60.4904 78.7081 60.2116 78.7331 59.9392 78.808C59.3943 78.9578 58.9508 79.3262 58.634 79.8257C58.3235 80.3252 58.1524 80.9308 58.0954 81.5427L57.126 81.3741C57.6836 79.1701 58.2285 76.9662 58.7924 74.7684L59.2169 73.1201L59.426 72.3022C59.4893 72.04 59.54 71.7903 59.5527 71.5655C59.5717 71.3345 59.5527 71.1285 59.502 70.9724C59.445 70.81 59.3626 70.6914 59.2295 70.579C58.9508 70.3418 58.5516 70.2356 58.1588 70.2918C57.9624 70.3168 57.7723 70.3855 57.5949 70.4791L57.5315 70.5166L57.4491 70.5728L57.2717 70.6852L56.9233 70.9162C56.4481 71.2159 56.0046 71.553 55.5547 71.8777C55.3266 72.04 55.1112 72.2148 54.8958 72.3897C54.6803 72.5645 54.4586 72.7331 54.2432 72.9141L53.6159 73.4635L53.2991 73.7383L52.995 74.0255C51.373 75.5489 49.9094 77.2409 48.6802 79.0827C47.4447 80.9183 46.3929 82.8788 45.6136 84.9454L45.3222 85.7196L45.0687 86.5063C44.8913 87.0307 44.7393 87.5552 44.6316 88.0609C44.4035 89.0723 44.3971 90.0463 44.7456 90.8393C44.9103 91.2139 45.1765 91.5385 45.4806 91.7446C45.6326 91.8445 45.7974 91.9256 45.9748 91.9693C46.1522 92.013 46.3296 92.0443 46.5007 92.0255C46.8491 92.0068 47.223 91.8632 47.5904 91.6135C47.9579 91.3637 48.3127 91.0141 48.6359 90.627C48.959 90.2399 49.2505 89.8091 49.5166 89.3533L49.713 89.0099L49.9094 88.6415L50.3086 87.8986C50.5683 87.3991 50.8218 86.8996 51.0752 86.4001L51.8038 84.8829C53.7046 80.8184 55.2632 76.5978 56.4417 72.2773C56.7268 71.1971 57.0056 70.1108 57.2464 69.0182C57.3668 68.4687 57.4872 67.9255 57.5949 67.3761L57.7596 66.552C57.804 66.296 57.8483 66.04 57.8736 65.7903C57.9243 65.2908 57.9433 64.7975 57.8736 64.373C57.804 63.9484 57.6646 63.605 57.4618 63.4177C57.3668 63.3116 57.2464 63.2429 57.1007 63.168C56.9423 63.1118 56.7839 63.0494 56.6065 63.0431C56.258 63.0119 55.8715 63.0931 55.5294 63.2741C55.485 63.2991 55.4533 63.3178 55.3963 63.349L55.2252 63.4614L54.8768 63.6862L54.1798 64.1295C53.7236 64.4354 53.2864 64.7788 52.8302 65.091C52.3867 65.4219 51.9686 65.7778 51.5377 66.1212C51.1195 66.477 50.7141 66.8579 50.3022 67.2263C48.7056 68.7497 47.2546 70.4354 46.0128 72.2648C43.5101 75.9172 41.7931 80.1066 41.0328 84.5083C40.9884 84.7768 40.7286 84.9516 40.4625 84.9079C40.2091 84.8642 40.0317 84.6394 40.0507 84.3897L40 84.4521Z" fill="url(#paint2_linear_71_823)"/>
<path d="M91.4989 69C91.3326 69 91.1727 68.9195 91.0768 68.7709C90.9296 68.5418 91 68.2446 91.2367 68.1022L96.2324 65.0743C96.4691 64.9319 96.7761 65 96.9232 65.2291C97.0704 65.4582 97 65.7554 96.7633 65.8978L91.7676 68.9257C91.6844 68.9752 91.5949 69 91.5053 69H91.4989Z" fill="url(#paint3_linear_71_823)"/>
<path d="M114.252 123.007C115.794 123.161 118.469 123.41 120.581 123.512C121.848 123.578 122.578 123.432 123 123.242C123 123.293 123 123.344 123 123.395C122.987 123.651 122.808 123.849 122.584 123.864C118.597 124.12 115.423 123.951 114.297 123.871C114.067 123.856 113.926 123.564 114.041 123.337C114.099 123.22 114.175 123.11 114.252 123V123.007Z" fill="url(#paint4_linear_71_823)"/>
<path d="M120.511 122.988C118.339 122.908 115.587 122.73 114 122.617C115.56 121.053 120.511 120 120.511 120H121.907C122.868 121.134 123.006 122.209 123 122.789C122.565 122.929 121.815 123.037 120.511 122.988Z" fill="url(#paint5_linear_71_823)"/>
<path d="M123 118L122.849 120.447C122.834 120.715 122.592 120.933 122.267 120.976C121.95 121.014 121.519 121.02 121.058 120.895C120.778 120.821 120.567 120.621 120.521 120.385L120 118H122.992H123Z" fill="url(#paint6_linear_71_823)"/>
<path d="M140.021 123.643C140.606 123.567 140.868 123.293 140.979 123V123.01C141.068 123.319 140.868 123.643 140.472 123.794C139.993 123.977 139.47 124.012 139.058 123.997C138.624 123.982 138.223 123.815 138 123.552C138.44 123.744 139.052 123.769 140.027 123.643H140.021Z" fill="url(#paint7_linear_71_823)"/>
<path d="M136.809 118H137.913C139.599 117.967 140.653 121.645 141 123.071C140.874 123.451 140.577 123.804 139.914 123.902C138.816 124.059 138.115 124.033 137.617 123.778C136.708 122.535 136.253 120.716 136.039 119.656C135.792 118.452 136.802 118 136.802 118H136.809Z" fill="url(#paint8_linear_71_823)"/>
<path d="M137.366 116L137.98 118.087C138.056 118.34 137.91 118.61 137.632 118.729C137.29 118.879 136.803 119.036 136.36 118.993C136.152 118.971 135.974 118.847 135.905 118.675L135 116.48L137.36 116H137.366Z" fill="url(#paint9_linear_71_823)"/>
<path d="M139 115.441C138.224 116.111 135.695 116.205 135.695 116.205C126.596 94.8966 122.874 91.8669 122.874 91.8669C124.189 99.9107 123.086 117.713 123.086 117.713C121.584 118.358 119.646 117.713 119.646 117.713C119.524 104.549 117.451 93.0625 115 84.0109C121.154 83.8732 124.42 81.82 125.492 81C130.619 89.0626 139 115.441 139 115.441Z" fill="url(#paint10_linear_71_823)"/>
<path d="M122.901 56.1494C124.043 61.9578 123.633 72.3552 123.368 77.0982C123.292 78.4331 124.207 80.2815 124.946 81.5395C125.059 81.7384 124.99 81.9888 124.788 82.0979C123.551 82.7461 119.354 84.7485 114.495 84.9989C114.173 85.0181 113.882 84.7935 113.794 84.4726C110.19 70.7827 106 62.0284 106 62.0284C110.626 54.5192 122.901 56.1494 122.901 56.1494Z" fill="url(#paint11_linear_71_823)"/>
<path d="M121.713 91.9929C121.763 91.9929 121.814 91.9787 121.864 91.9431C121.996 91.8507 122.041 91.6516 121.959 91.5022C121.908 91.4098 120.754 89.3049 118.413 88.032C118.268 87.9538 118.098 88.0249 118.028 88.1813C117.959 88.3449 118.022 88.5369 118.161 88.6151C120.344 89.8027 121.46 91.8222 121.467 91.8436C121.523 91.9431 121.618 92 121.713 92V91.9929Z" fill="url(#paint12_linear_71_823)"/>
<path d="M131 73.3938C130.589 76.0447 129.371 78.9281 126.928 82L126 81.3278C126 81.3278 127.069 77.477 126.46 73.1048C127.962 72.8472 129.739 73.1111 131 73.3938Z" fill="url(#paint13_linear_71_823)"/>
<path d="M122 63.8818L123.339 57C123.339 57 132.271 63.3766 130.846 73C129.678 72.7228 128.023 72.4578 126.618 72.7166C126.209 69.63 124.988 66.2722 122 63.8756V63.8818Z" fill="url(#paint14_linear_71_823)"/>
<path d="M105.785 62L110.9 68.0648C111.456 72.3473 109.612 74.7027 107.289 76C106.635 74.1484 105.739 72.7377 105 71.7931C107.355 67.8444 105.778 62 105.778 62H105.785Z" fill="url(#paint15_linear_71_823)"/>
<path d="M105.714 72C106.452 72.8653 107.347 74.1516 108 75.8533C102.004 79.6142 99 77.2896 99 77.2896V76.5455C99 75.8879 99.4964 75.2995 100.215 75.1322C102.625 74.5727 104.852 73.3152 105.714 72Z" fill="url(#paint16_linear_71_823)"/>
<path d="M110.006 53.5206L111.541 59.1879C111.711 59.8231 112.399 60.1651 113.008 59.9208C113.666 59.6582 114.5 59.2979 115.224 58.907C115.992 58.4917 116.235 57.5024 115.748 56.7757L112.551 52L110 53.5268L110.006 53.5206Z" fill="url(#paint17_linear_71_823)"/>
<path d="M107 48.9816C106.988 49.0877 108.308 56 108.308 56L112 55.1119L111.658 48.3653C111.658 48.3653 107.237 47.2187 107 48.9882V48.9816Z" fill="url(#paint18_linear_71_823)"/>
<path d="M110.546 49.9723L110.994 53.3342C110.994 53.3783 110.994 53.4224 110.994 53.4601C110.956 53.7245 110.761 54.6185 109.853 54.3667C109.033 54.1338 108.276 53.9323 107.752 54.096C107.519 54.1652 107.38 54.4045 107.424 54.6437C107.544 55.2418 107.847 56.5765 108.282 57.7034C108.37 57.9301 108.623 58.0497 108.856 57.9804C109.562 57.7727 111.051 57.2942 112.148 56.6331C112.3 56.545 112.388 56.3813 112.382 56.205C112.344 55.3551 112.249 52.7802 112.331 52.0562C112.407 51.3763 113.246 50.9733 113.605 50.8285C113.725 50.7782 113.82 50.69 113.864 50.5704C114.034 50.1486 114.261 49.1791 113.038 48.7825C112.779 48.7006 112.647 48.4236 112.735 48.1718C112.918 47.6681 112.994 46.8938 112.047 46.4719C111.082 46.0375 110.363 46.5538 109.972 46.9693C109.815 47.1393 109.562 47.1645 109.367 47.0386C109.253 46.9693 109.115 46.9441 108.938 47.0511C108.705 47.1959 108.396 47.0952 108.276 46.8497C108.042 46.3775 107.576 45.8676 106.63 46.0312C104.952 46.3146 104.763 48.1718 105.204 49.2546C105.646 50.3375 107.443 49.9283 108.345 49.3805C109.033 48.965 109.922 49.3994 110.307 49.6324C110.426 49.7079 110.508 49.8338 110.527 49.9723H110.546Z" fill="url(#paint19_linear_71_823)"/>
<path d="M112.32 53.929C112.32 53.929 111.587 51.7739 112.34 51.2457C113.093 50.7175 114.208 50.9921 113.966 52.5486C113.657 54.4924 112.32 53.922 112.32 53.922V53.929Z" fill="url(#paint20_linear_71_823)"/>
<path d="M139.634 65.1299L77 86.4329L79.991 96L142.983 75.2115C144.322 74.7686 145.157 73.401 144.975 71.9552C144.787 70.4703 144.139 68.4383 142.393 66.0221C141.758 65.1429 140.646 64.7847 139.64 65.1299H139.634Z" fill="url(#paint21_linear_71_823)"/>
<path d="M60.2132 96.234L67.6212 92C68.3357 92.8974 68.9624 94.2826 69 96.3785L60.4639 96.9989C60.0126 97.029 59.8183 96.4568 60.2132 96.234Z" fill="url(#paint22_linear_71_823)"/>
<path d="M77.002 86C80.7318 90.2652 79.9268 95.187 79.9268 95.187L69.3518 96C69.315 93.8236 68.7005 92.3852 68 91.4534L77.0081 86H77.002Z" fill="url(#paint23_linear_71_823)"/>
<path d="M139.929 68.3398C139.985 68.294 140.016 68.2088 139.991 68.1302C139.96 68.032 139.86 67.973 139.76 68.0123L80.1245 88.6274C80.0306 88.6602 79.9742 88.765 80.0118 88.8698C80.0431 88.968 80.1433 89.027 80.2434 88.9877L139.879 68.3726C139.879 68.3726 139.916 68.3529 139.935 68.3398H139.929Z" fill="#F9CD93"/>
<path d="M141.929 71.3398C141.985 71.294 142.016 71.2088 141.991 71.1302C141.96 71.032 141.86 70.973 141.76 71.0123L82.1245 91.6274C82.0306 91.6601 81.9742 91.765 82.0118 91.8698C82.0431 91.968 82.1433 92.027 82.2435 91.9877L141.879 71.3726C141.879 71.3726 141.916 71.3529 141.935 71.3398H141.929Z" fill="#F9CD93"/>
<path d="M126.277 81.3373L122.596 81L121 82.6459C121 82.6459 121.38 83.2327 122.554 82.8955C123.735 82.5582 125.349 82.4773 125.349 82.4773C125.349 82.4773 126.976 83.3002 127 81.7622L126.277 81.3373Z" fill="url(#paint24_linear_71_823)"/>
<path d="M101.603 79.9323C101.269 80.1919 100.127 79.6475 99.4269 79.2676C99.0862 79.084 98.9222 78.6852 99.0358 78.3117C99.2061 77.7799 99.4837 77.0899 99.8306 77.0076C100.405 76.862 102.972 78.8498 101.603 79.9323Z" fill="url(#paint25_linear_71_823)"/>
</g>
<defs>
<linearGradient id="paint0_linear_71_823" x1="71.9391" y1="23.7325" x2="74.5439" y2="125.513" gradientUnits="userSpaceOnUse">
<stop offset="0.08" stop-color="#FF6D00"/>
<stop offset="1" stop-color="#FA7B00"/>
</linearGradient>
<linearGradient id="paint1_linear_71_823" x1="78.5294" y1="49.9326" x2="73.673" y2="104.184" gradientUnits="userSpaceOnUse">
<stop offset="0.08" stop-color="#FF6D00"/>
<stop offset="1" stop-color="#FA7B00"/>
</linearGradient>
<linearGradient id="paint2_linear_71_823" x1="78.1803" y1="50.1128" x2="55.3787" y2="94.3113" gradientUnits="userSpaceOnUse">
<stop stop-color="#510000"/>
<stop offset="1"/>
</linearGradient>
<linearGradient id="paint3_linear_71_823" x1="91" y1="67.0062" x2="96.9936" y2="67.0062" gradientUnits="userSpaceOnUse">
<stop stop-color="#510000"/>
<stop offset="1"/>
</linearGradient>
<linearGradient id="paint4_linear_71_823" x1="123" y1="123.505" x2="113.996" y2="123.505" gradientUnits="userSpaceOnUse">
<stop offset="0.08" stop-color="#FF6D00"/>
<stop offset="1" stop-color="#FA7B00"/>
</linearGradient>
<linearGradient id="paint5_linear_71_823" x1="122.394" y1="117.447" x2="119.35" y2="123.619" gradientUnits="userSpaceOnUse">
<stop stop-color="#630000"/>
</linearGradient>
<linearGradient id="paint6_linear_71_823" x1="123.008" y1="119.494" x2="120.008" y2="119.494" gradientUnits="userSpaceOnUse">
<stop stop-color="#FEBBBA"/>
<stop offset="1" stop-color="#FF928E"/>
</linearGradient>
<linearGradient id="paint7_linear_71_823" x1="141.001" y1="123.501" x2="138" y2="123.501" gradientUnits="userSpaceOnUse">
<stop offset="0.08" stop-color="#FF6D00"/>
<stop offset="1" stop-color="#FA7B00"/>
</linearGradient>
<linearGradient id="paint8_linear_71_823" x1="142.635" y1="109.899" x2="137.461" y2="122.914" gradientUnits="userSpaceOnUse">
<stop stop-color="#630000"/>
</linearGradient>
<linearGradient id="paint9_linear_71_823" x1="137.999" y1="117.499" x2="135.006" y2="117.499" gradientUnits="userSpaceOnUse">
<stop stop-color="#FEBBBA"/>
<stop offset="1" stop-color="#FF928E"/>
</linearGradient>
<linearGradient id="paint10_linear_71_823" x1="132.705" y1="83.1784" x2="120.806" y2="119.419" gradientUnits="userSpaceOnUse">
<stop offset="0.08" stop-color="#FF6D00"/>
<stop offset="1" stop-color="#FA7B00"/>
</linearGradient>
<linearGradient id="paint11_linear_71_823" x1="133.257" y1="27.8391" x2="108.796" y2="86.5648" gradientUnits="userSpaceOnUse">
<stop/>
<stop offset="1" stop-color="#830000"/>
</linearGradient>
<linearGradient id="paint12_linear_71_823" x1="124.003" y1="80.1671" x2="115.46" y2="96.6693" gradientUnits="userSpaceOnUse">
<stop stop-color="#630000"/>
</linearGradient>
<linearGradient id="paint13_linear_71_823" x1="89.0312" y1="-128.181" x2="86.6263" y2="-144.113" gradientUnits="userSpaceOnUse">
<stop stop-color="#FEBBBA"/>
<stop offset="1" stop-color="#FF928E"/>
</linearGradient>
<linearGradient id="paint14_linear_71_823" x1="141.321" y1="32.5595" x2="119.24" y2="90.2687" gradientUnits="userSpaceOnUse">
<stop/>
<stop offset="1" stop-color="#830000"/>
</linearGradient>
<linearGradient id="paint15_linear_71_823" x1="126.03" y1="25.1831" x2="102.947" y2="83.7057" gradientUnits="userSpaceOnUse">
<stop/>
<stop offset="1" stop-color="#830000"/>
</linearGradient>
<linearGradient id="paint16_linear_71_823" x1="107.538" y1="74.2516" x2="98.8388" y2="76.7402" gradientUnits="userSpaceOnUse">
<stop stop-color="#FEBBBA"/>
<stop offset="1" stop-color="#FF928E"/>
</linearGradient>
<linearGradient id="paint17_linear_71_823" x1="112.984" y1="51.9573" x2="113.069" y2="67.1026" gradientUnits="userSpaceOnUse">
<stop stop-color="#FEBBBA"/>
<stop offset="1" stop-color="#FF928E"/>
</linearGradient>
<linearGradient id="paint18_linear_71_823" x1="108.482" y1="49.3212" x2="115.172" y2="60.717" gradientUnits="userSpaceOnUse">
<stop stop-color="#FEBBBA"/>
<stop offset="1" stop-color="#FF928E"/>
</linearGradient>
<linearGradient id="paint19_linear_71_823" x1="113.635" y1="52.7256" x2="104.534" y2="51.4101" gradientUnits="userSpaceOnUse">
<stop stop-color="#510000"/>
<stop offset="1"/>
</linearGradient>
<linearGradient id="paint20_linear_71_823" x1="118.382" y1="60.3623" x2="112.49" y2="52.6346" gradientUnits="userSpaceOnUse">
<stop stop-color="#FEBBBA"/>
<stop offset="1" stop-color="#FF928E"/>
</linearGradient>
<linearGradient id="paint21_linear_71_823" x1="71.5836" y1="81.6514" x2="183.051" y2="78.5695" gradientUnits="userSpaceOnUse">
<stop offset="0.08" stop-color="#FF6D00"/>
<stop offset="1" stop-color="#FA7B00"/>
</linearGradient>
<linearGradient id="paint22_linear_71_823" x1="77.8427" y1="95.2625" x2="62.1905" y2="94.3338" gradientUnits="userSpaceOnUse">
<stop stop-color="#510000"/>
<stop offset="1"/>
</linearGradient>
<linearGradient id="paint23_linear_71_823" x1="60.9315" y1="89.2502" x2="121.977" y2="97.7159" gradientUnits="userSpaceOnUse">
<stop stop-color="#FEBBBA"/>
<stop offset="1" stop-color="#FF928E"/>
</linearGradient>
<linearGradient id="paint24_linear_71_823" x1="89.8072" y1="-142.612" x2="86.5825" y2="-159.496" gradientUnits="userSpaceOnUse">
<stop stop-color="#FEBBBA"/>
<stop offset="1" stop-color="#FF928E"/>
</linearGradient>
<linearGradient id="paint25_linear_71_823" x1="102.001" y1="78.5016" x2="98.9979" y2="78.5016" gradientUnits="userSpaceOnUse">
<stop stop-color="#FEBBBA"/>
<stop offset="1" stop-color="#FF928E"/>
</linearGradient>
<clipPath id="clip0_71_823">
<rect width="145" height="124" fill="white"/>
</clipPath>
</defs>
</svg>
