<svg width="132" height="129" viewBox="0 0 132 129" fill="none" xmlns="http://www.w3.org/2000/svg">
<g clip-path="url(#clip0_71_477)">
<path d="M115.652 80L4.21053 76.9513C1.86433 76.888 0 74.961 0 72.6141V26.2052C0 23.8583 1.91023 21.9716 4.25068 22.0003L114.436 23.5707C117.522 23.6167 120 26.1362 120 29.2309V75.7549C120 78.142 118.032 80.0633 115.652 79.9942V80Z" fill="#FFC294"/>
<path opacity="0.14" d="M112.868 76.9986L7.0001 74.2649C4.77401 74.2078 3 72.4842 3 70.3726V28.7671C3 26.6669 4.81979 24.9718 7.04016 25.0004L111.712 26.41C114.642 26.45 117 28.71 117 31.4837V73.1976C117 75.3378 115.134 77.0557 112.874 76.9986H112.868Z" fill="white"/>
<path d="M15 77.0056L22.3825 89.4302C22.8806 90.2682 24.191 90.1614 24.529 89.2446L29 77H15V77.0056Z" fill="#FFC294"/>
<path d="M58.7563 26L45.2379 25.7217C45.1046 25.7217 44.9944 25.5565 45.0002 25.3565C45.006 25.1565 45.1104 25 45.2437 25L58.7621 25.2783C58.8954 25.2783 59.0056 25.4435 58.9998 25.6435C58.9998 25.8435 58.8896 26 58.7563 26Z" fill="white"/>
<path d="M13.0776 38.5538L13.0097 42.447C13.0043 42.7524 13.2595 43.0047 13.5796 43.0105L106.405 44.6953C106.725 44.7011 106.989 44.4582 106.994 44.1528L107.062 40.2596C107.067 39.9542 106.812 39.7018 106.492 39.696L13.6669 38.0113C13.3468 38.0055 13.0829 38.2484 13.0776 38.5538Z" fill="white"/>
<path d="M13.0776 56.5538L13.0097 60.447C13.0043 60.7524 13.2595 61.0047 13.5796 61.0105L106.405 62.6953C106.725 62.7011 106.989 62.4582 106.994 62.1528L107.062 58.2596C107.067 57.9542 106.812 57.7018 106.492 57.696L13.6669 56.0113C13.3468 56.0055 13.0829 56.2484 13.0776 56.5538Z" fill="white"/>
<path d="M13.0806 47.3841L13.0067 51.6167C13.003 51.8284 13.1806 52.0033 13.4034 52.0073L47.5909 52.6278C47.8136 52.6319 47.9972 52.4635 48.0009 52.2518L48.0748 48.0192C48.0785 47.8075 47.9009 47.6326 47.6781 47.6286L13.4906 47.0081C13.2679 47.004 13.0843 47.1724 13.0806 47.3841Z" fill="white"/>
<path d="M51.0806 48.3841L51.0067 52.6167C51.003 52.8284 51.18 53.0033 51.4019 53.0073L106.589 54.0089C106.811 54.0129 106.994 53.8446 106.997 53.6329L107.071 49.4003C107.075 49.1886 106.898 49.0137 106.676 49.0097L51.4892 48.0081C51.2672 48.004 51.0843 48.1724 51.0806 48.3841Z" fill="white"/>
<path d="M36.4868 45.9999L127.73 45.3262C129.648 45.3147 131.204 43.7714 131.244 41.8537L131.999 4.00805C132.04 2.09619 130.501 0.524084 128.588 0.512567L38.3998 4.91141e-05C35.8703 -0.0114681 33.8017 2.00405 33.7556 4.52633L33.0008 42.4699C32.9604 44.4163 34.5392 46.0115 36.4868 45.9999Z" fill="url(#paint0_linear_71_477)"/>
<path d="M99 45.2202L92.9938 55.5373C92.5876 56.2328 91.558 56.1227 91.312 55.3518L88 45L99 45.2202Z" fill="url(#paint1_linear_71_477)"/>
<g opacity="0.63">
<path d="M62.2471 44C62.1118 44 62 43.7935 62 43.5435C62 43.2935 62.1059 43.087 62.2471 43.087L69.7529 43C69.8882 43 70 43.2065 70 43.4565C70 43.7065 69.8941 43.913 69.7529 43.913L62.2471 44Z" fill="white"/>
</g>
<g opacity="0.63">
<path d="M38.5978 43.9937C37.6109 43.9937 36.6591 43.5743 35.9759 42.8357C35.3277 42.1346 34.9831 41.2207 35.0006 40.2566C35.0006 40.1127 35.1174 40 35.2517 40C35.3861 40 35.4912 40.1252 35.4912 40.2692C35.4736 41.0892 35.7715 41.8717 36.3262 42.4726C36.9102 43.1111 37.7394 43.4742 38.5978 43.4742H38.6154L59.7547 43.3365C59.889 43.3365 60 43.4554 60 43.5994C60 43.7433 59.8949 43.8623 59.7547 43.8623L38.6154 44H38.592L38.5978 43.9937Z" fill="white"/>
</g>
<g opacity="0.63">
<path d="M35.3475 38C35.1525 38 35 37.88 35 37.7421L35.2966 27.2459C35.2966 27.108 35.4576 27 35.6525 27C35.8475 27 36 27.12 36 27.2579L35.7034 37.7541C35.7034 37.892 35.5424 38 35.3475 38Z" fill="white"/>
</g>
<g opacity="0.63">
<path d="M94.7673 3L84.2327 2.875C84.1053 2.875 84 2.67708 84 2.4375C84 2.19792 84.1053 2 84.2327 2L94.7673 2.125C94.8947 2.125 95 2.32292 95 2.5625C95 2.80208 94.8947 3 94.7673 3Z" fill="white"/>
</g>
<g opacity="0.63">
<path d="M128.564 16C128.434 16 128.332 15.8854 128.332 15.7536L128.53 5.53582C128.547 4.80229 128.264 4.09742 127.743 3.55301C127.183 2.97421 126.397 2.6361 125.571 2.63037L102.238 2.48138C102.107 2.48138 102 2.37249 102 2.24069C102 2.10888 102.107 2 102.238 2L125.571 2.149C126.516 2.15473 127.432 2.54441 128.077 3.2149C128.688 3.851 129.016 4.67622 128.999 5.54155L128.801 15.7593C128.801 15.8911 128.694 15.9943 128.564 15.9943V16Z" fill="white"/>
</g>
<path d="M117.271 10H46.7294C45.222 10 44 11.3417 44 12.9968V13.0032C44 14.6583 45.222 16 46.7294 16H117.271C118.778 16 120 14.6583 120 13.0032V12.9968C120 11.3417 118.778 10 117.271 10Z" fill="white"/>
<path d="M117.271 28H46.7294C45.222 28 44 29.3417 44 30.9968V31.0032C44 32.6583 45.222 34 46.7294 34H117.271C118.778 34 120 32.6583 120 31.0032V30.9968C120 29.3417 118.778 28 117.271 28Z" fill="white"/>
<path d="M77.2964 19H46.7036C45.2104 19 44 20.3417 44 21.9968V22.0032C44 23.6583 45.2104 25 46.7036 25H77.2964C78.7896 25 80 23.6583 80 22.0032V21.9968C80 20.3417 78.7896 19 77.2964 19Z" fill="white"/>
<path d="M117.296 19H86.7036C85.2104 19 84 20.3417 84 21.9968V22.0032C84 23.6583 85.2104 25 86.7036 25H117.296C118.79 25 120 23.6583 120 22.0032V21.9968C120 20.3417 118.79 19 117.296 19Z" fill="white"/>
<path d="M124.123 81C124.941 81.8495 126.153 82.5809 127 83.0422C125.73 84.5668 124.012 86.0914 121.738 87.5823L121.088 89L119 86.5752C119 86.5752 122.742 84.7693 124.123 81.0056V81Z" fill="url(#paint2_linear_71_477)"/>
<path d="M113 128.77C113 128.72 113 128.677 113.012 128.627C113.685 125.773 117.041 124 117.041 124L118.371 124.111C119.137 126.626 119.039 128.17 118.917 128.856C118.917 128.875 118.905 128.893 118.905 128.912C117.808 129.017 115.549 129.085 113 128.776V128.77Z" fill="url(#paint3_linear_71_477)"/>
<path d="M119 128.18C118.941 128.482 118.776 128.719 118.569 128.776C116.982 129.242 114.463 128.866 113.407 128.678C113.171 128.637 113.006 128.335 113 128C115.59 128.408 117.885 128.319 119 128.18Z" fill="url(#paint4_linear_71_477)"/>
<path d="M119 122L118.502 124.626C118.466 124.817 118.332 124.963 118.168 124.98C117.968 125.003 117.685 125.014 117.398 124.969C117.141 124.93 116.961 124.643 117.007 124.334L117.351 122H119Z" fill="url(#paint5_linear_71_477)"/>
<path d="M107.284 128.508C108.807 128.453 109.596 128.219 110 128C110 128.195 110 128.398 110 128.602C110 128.82 109.867 129 109.711 129L101.345 128.93C101.08 128.93 100.924 128.523 101.038 128.211C102.134 128.328 104.929 128.594 107.284 128.508Z" fill="url(#paint6_linear_71_477)"/>
<path d="M101 127.772C101 127.772 101.018 127.733 101.036 127.716C101.78 126.768 103.667 124.871 107.399 124.05L109.19 124C109.19 124 109.988 125.27 110 127.628C109.589 127.783 108.802 127.944 107.272 127.988C104.907 128.049 102.101 127.86 101 127.777V127.772Z" fill="url(#paint7_linear_71_477)"/>
<path d="M108.995 121.461C108.979 121.602 108.766 123.755 108.682 124.587C108.661 124.786 108.547 124.94 108.401 124.959C108.141 124.997 107.714 125.036 107.344 124.94C107.141 124.888 107 124.651 107 124.376V121L109 121.461H108.995Z" fill="url(#paint8_linear_71_477)"/>
<path d="M111.072 86C111.072 86 106.926 101.894 107.001 121.886C107.001 122.249 107.257 122.565 107.611 122.641C108.134 122.753 108.9 122.881 109.533 122.864C109.87 122.852 110.155 122.6 110.213 122.267C110.793 118.83 114.133 99.4588 116.032 96.3151C116.032 96.3151 117.281 113.567 116.886 122.519C116.874 122.741 117.037 122.934 117.258 122.958C117.589 122.999 118.123 123.028 118.802 122.958C119.058 122.928 119.267 122.735 119.302 122.478C119.714 119.568 122.101 102.245 121.997 89.7701C121.997 89.0676 120.15 86.0059 120.15 86.0059H111.072V86Z" fill="url(#paint9_linear_71_477)"/>
<path d="M105 67.6078C105.669 66.762 106.252 65.8519 106.742 64.9127C107.428 63.606 106.8 65.7586 106.984 64.2827C112.107 60.5434 119.825 62.4335 122.813 62.8185C123.793 62.941 124.687 63.431 125.334 64.1836C127.889 67.1761 133.507 75.3722 126.897 83.6325C126.049 83.16 124.849 82.3958 124.036 81.5149C124.768 79.4323 124.826 76.7664 123.297 73.5055C123.245 73.7622 123.182 74.0188 123.101 74.2755C120.99 81.0424 120.875 86.6717 120.88 87.9668C120.88 88.1418 120.777 88.2993 120.615 88.3693C117.835 89.4951 112.487 88.8243 110.693 88.556C110.365 88.5034 110.145 88.1943 110.186 87.8618C111.068 81.4041 106.546 70.7812 105.352 68.1212C105.265 67.9287 105.15 67.7595 105.006 67.6078H105Z" fill="url(#paint10_linear_71_477)"/>
<path d="M117.496 57.1526L118 62.7241C118 62.7241 115.104 63.6693 113 62.0607L114.48 57L117.496 57.1585V57.1526Z" fill="url(#paint11_linear_71_477)"/>
<path d="M115.04 50.2269C114.967 50.2964 112 56.319 112 56.319L115.365 58L119 52.7252C119 52.7252 116.246 49.056 115.04 50.2327V50.2269Z" fill="url(#paint12_linear_71_477)"/>
<path d="M117.522 53.3258C117.585 53.4871 117.568 53.6656 117.482 53.8096L115.784 56.6832C115.756 56.7293 115.728 56.7638 115.693 56.7984C115.489 56.9884 114.802 57.547 114.262 56.7869C113.808 56.1419 113.376 55.5545 112.922 55.3126C112.655 55.1686 112.326 55.2838 112.19 55.5545C111.911 56.1188 111.366 57.2648 111.025 58.3533C110.94 58.6239 111.076 58.9176 111.338 59.027C112.025 59.3092 113.388 59.8218 114.597 59.9945C114.796 60.0233 114.995 59.9369 115.109 59.7757C115.631 59.0501 117.096 57.0345 117.596 56.5277C118.062 56.0555 118.919 56.234 119.305 56.3492C119.453 56.3895 119.606 56.3722 119.737 56.2916C120.129 56.0497 120.816 55.4566 120.186 54.443C120.032 54.1896 120.112 53.8556 120.356 53.6944C120.793 53.4007 121.27 52.8536 120.816 51.9667C120.356 51.0684 119.538 50.9877 118.982 51.0568C118.737 51.0856 118.482 50.9589 118.391 50.7228C118.351 50.6192 118.266 50.5328 118.113 50.4982C117.823 50.4406 117.63 50.1642 117.687 49.8705C117.783 49.3637 117.71 48.7015 116.909 48.2523C115.438 47.4345 114.154 48.7706 113.825 49.8936C113.496 51.0223 115.143 51.817 116.176 51.9495C116.937 52.0474 117.352 52.8881 117.516 53.3258H117.522Z" fill="url(#paint13_linear_71_477)"/>
<path d="M117 57.5614C117 57.5614 117.527 55.9392 118.201 56.0018C118.875 56.0595 119.407 56.7672 118.573 57.5614C117.532 58.5482 117 57.5614 117 57.5614Z" fill="url(#paint14_linear_71_477)"/>
<path d="M123.269 73C124.311 69.8473 123.935 66.0356 123.93 66L123.645 66.0356C123.645 66.0712 124.021 69.8117 123 72.8931L123.274 73H123.269Z" fill="url(#paint15_linear_71_477)"/>
<path d="M116.146 96C116.209 96 116.266 95.9566 116.282 95.8915C116.59 94.6543 118.907 93.2868 118.928 93.2759C118.996 93.238 119.022 93.1457 118.98 93.0752C118.943 93.0046 118.855 92.9775 118.787 93.0209C118.688 93.0806 116.344 94.4589 116.005 95.8155C115.984 95.8915 116.031 95.9729 116.104 95.9946C116.115 95.9946 116.13 95.9946 116.141 95.9946L116.146 96Z" fill="url(#paint16_linear_71_477)"/>
<path d="M94.793 68.8762C100.653 69.7494 104.472 66.083 107.318 63.8566C111.073 60.9188 114 62.3472 114 62.3472L109.994 69.9287C104.012 75.5266 97.8775 74.2833 94.0058 72.4674C93.9475 71.0043 94.3382 69.7783 94.793 68.8704V68.8762Z" fill="url(#paint17_linear_71_477)"/>
<path d="M87.0856 65L88.9521 66.0262C91.1941 67.4193 93.1951 68.1589 95 68.4341C94.5628 69.3342 94.1873 70.5495 94.2433 72C91.8779 70.8534 90.3926 69.4832 90.3926 69.4832C86.1607 66.9034 87.0856 65 87.0856 65Z" fill="url(#paint18_linear_71_477)"/>
<path d="M81.2114 68.0662C81.3338 67.613 81.6231 67.2543 82.0125 67.0781L85.7733 65.3663C85.7733 65.3663 85.8289 64.8188 84.9777 64.4475C84.1266 64.0762 84.3268 63 84.3268 63C84.3268 63 85.4896 63.5979 87.1919 64.5545C88.1655 65.102 88.7107 66.0586 89 66.7823L88.032 68.2235C85.7121 69.0102 83.3644 69.1612 81 68.8466L81.2058 68.0662H81.2114Z" fill="url(#paint19_linear_71_477)"/>
<path d="M65 67.3134L67.3891 75.045C67.3891 75.045 70.1592 77.1304 73.6916 75.1379C74.232 74.8359 74.7951 74.4351 75.364 73.9123C79.6529 70.0029 76.8088 64.316 76.8088 64.316C76.8088 64.316 80.0795 62.9684 78.629 60.1279C78.5266 59.9362 78.2479 59.9652 78.191 60.1801C77.9805 60.9643 77.4629 62.3294 76.3821 62.8174C76.3253 62.8406 76.2741 62.8696 76.2286 62.8871C76.1774 62.7418 76.1774 62.5618 76.2968 62.3759C76.6381 61.8531 76.0238 61.1328 76.0238 61.1328C76.0238 61.1328 75.984 61.766 75.5118 62.161C75.108 62.5037 74.9146 63.2646 75.1876 63.892C75.7735 66.2155 76.6552 69.2884 73.2366 71.5365C72.8896 71.763 72.5198 71.9024 72.1501 71.9663C68.8851 72.524 65.0057 67.296 65.0057 67.296L65 67.3134Z" fill="url(#paint20_linear_71_477)"/>
<path d="M65 67.006L67.4738 75.0112C67.4738 75.0112 70.3423 77.1704 74 75.1074L72.3979 71.8356C69.017 72.413 65 67 65 67V67.006Z" fill="url(#paint21_linear_71_477)"/>
<path d="M64.6749 57.7574C64.6749 57.7574 66.0588 52.8941 60.8838 54.2333C60.8838 54.2333 58.3486 53.875 58.2788 56.2831C58.2788 56.2831 57.1856 57.9512 57.1391 60.0069C57.1391 60.0069 52.1618 61.3049 51.3768 63.3195C50.5744 65.3811 51.0163 68.6585 53.063 69.2223C53.063 69.2223 51.4407 70.0975 52.2606 71.9594C53.0805 73.8271 57.0577 75.0605 59.3312 72.7112C59.3312 72.7112 65.9774 73.4395 65.7332 68.7113C65.7332 68.7113 68.7684 66.6263 65.4425 62.7968C62.1165 58.9673 64.6749 57.7515 64.6749 57.7515V57.7574Z" fill="url(#paint22_linear_71_477)"/>
<path d="M64.1598 66.2708C63.1689 65.966 60.2898 65.407 57.5483 67.9985C57.0858 68.4388 56.8931 69.105 57.0583 69.7317C57.796 72.5095 59.7338 80.7185 58.0327 84.2754C58.0327 84.2754 61.033 87.6685 64.3085 84.9359C64.3085 84.9359 65.7783 78.3698 67.6996 75.4905C69.0263 73.5031 65.5801 68.021 64.7103 66.6943C64.5782 66.491 64.3855 66.3442 64.1598 66.2765V66.2708Z" fill="url(#paint23_linear_71_477)"/>
<path d="M61.7819 61C61.7819 61 60.1246 65.0162 60 66.7894C60 66.7894 61.8318 67.505 63.5576 66.298C63.5576 66.298 63.7383 62.2871 64 61.5715L61.7819 61.0053V61Z" fill="url(#paint24_linear_71_477)"/>
<path d="M63.6824 56.0122C63.6824 56.0122 67.5082 61.7888 65.3289 63.5593C63.1495 65.3237 60.4267 61.2208 60.4267 61.2208C60.4267 61.2208 59.4995 58.0244 60.3787 56.9125C61.2526 55.7947 63.6824 56.0183 63.6824 56.0183V56.0122Z" fill="url(#paint25_linear_71_477)"/>
<path d="M62.0117 55.0486C62.0117 55.0486 63.7262 55.4175 63.9825 56.1987C64.2389 56.9745 61.6005 57.7666 60.8527 57.8208L60.324 61C60.324 61 58.4814 58.065 59.1436 56.3344C59.8059 54.5983 62.0064 55.054 62.0064 55.054L62.0117 55.0486Z" fill="url(#paint26_linear_71_477)"/>
<path d="M61 60.9682C61 60.9682 59.6083 59.2371 59.0927 60.4043C58.577 61.5716 60.3542 62.3892 60.9499 61.8084L61 60.9682Z" fill="url(#paint27_linear_71_477)"/>
<path d="M69.1499 99C69.1385 99.3083 69.666 101.746 69.9497 103.043C70.0631 103.567 69.9837 104.114 69.7228 104.579L59.8134 121.682C59.6943 121.892 59.6035 122.113 59.5525 122.345C59.371 123.148 58.9966 125.115 59.1895 126.906L59.7 128L57.4821 127.482L57 121.374L57.6296 120.984C58.1741 120.647 58.5939 120.141 58.8378 119.536C59.734 117.302 61.9575 111.624 62.5304 108.855C63.1827 105.708 66.5917 103.154 66.5917 103.154L65.9905 101.699L69.1442 99H69.1499Z" fill="url(#paint28_linear_71_477)"/>
<path d="M55 125.64C55 125.64 56.1192 123.618 56.2518 122.833C56.3845 122.048 56.7505 120.66 57.44 121.076C57.44 121.076 57.7636 124.898 57.6522 126.389C57.5408 127.88 59.1321 127.832 59.1321 127.832C59.1321 127.832 59.5724 127.904 59.896 128.266C60.1188 128.52 59.9596 128.96 59.6467 128.979C59.1268 129.015 58.294 129.027 57.4241 128.834C57.1218 128.767 56.8937 128.471 56.8778 128.121L56.6497 123.726L55.2387 125.755L55.0053 125.634L55 125.64Z" fill="url(#paint29_linear_71_477)"/>
<path d="M62.9373 102.411C62.9373 102.411 62.585 117.703 62.5395 119.871C62.4941 122.04 62.8748 126.854 65 128.296L64.0738 129C64.0738 129 62.9146 127.994 61.7838 126.058C60.5166 123.883 60.1302 123.482 60.1302 123.482L60.5507 122.598C60.7325 122.215 60.7894 121.773 60.7041 121.354C60.2439 119.075 58.7096 111.504 58.2948 109.871C57.8004 107.946 57.7663 105.376 59.4824 103.225C61.1985 101.073 62.9316 102.411 62.9316 102.411H62.9373Z" fill="url(#paint30_linear_71_477)"/>
<path d="M61.246 128.994C61.182 128.994 61.1341 128.944 61.1234 128.87C61.0595 128.325 60.7825 126.153 60.5534 125.59C60.2924 124.946 59.4507 122.229 60.5534 122C60.5534 122 63.3023 126.667 63.8297 127.292C64.3571 127.923 65.023 127.515 65.023 127.515C65.023 127.515 65.5397 127.694 65.9233 128.27C66.1098 128.542 65.934 128.944 65.6356 128.95L63.7817 128.969C63.2437 128.969 62.7589 128.598 62.5618 128.016C62.2368 127.069 61.6775 125.683 61.0222 125.07L61.3632 128.839C61.3685 128.926 61.3152 128.994 61.2406 129L61.246 128.994Z" fill="url(#paint31_linear_71_477)"/>
<path d="M65.4481 83.999C65.4481 83.999 64.9994 85.451 65.6897 87.8381L69.9812 102.974C70.0502 103.212 69.9237 103.462 69.6936 103.543C68.4107 104.008 64.1883 105.326 58.4241 104.925C58.1365 104.908 57.8891 104.699 57.8259 104.408C57.4462 102.683 56.1518 96.794 55.8815 95.5859C54.8633 90.9744 53.73 86.0027 58.7233 83C61.0243 83.9932 63.1701 84.5798 65.4424 83.999H65.4481Z" fill="url(#paint32_linear_71_477)"/>
<path d="M52.0493 78H52.0164C52.5315 77.5686 55.266 77.5511 55.266 77.5511C55.266 77.5511 57.2552 74.4906 57.9292 73.7327C57.9511 73.7094 57.973 73.6861 57.9895 73.6686C58.0059 73.6511 58.0169 73.6394 58.0388 73.6161C58.2854 73.3713 58.5484 73.1323 58.8279 72.8816C59.1402 72.6018 59.3923 72.2461 59.5403 71.8439C60.5924 69.0282 59.7595 67.1802 57.847 68.3636C57.847 68.3636 53.8029 71.9372 52.2302 77.0031C52.2137 77.0673 52.1973 77.1256 52.1808 77.1838C52.1206 77.417 52.0548 77.6444 52 77.8484C52 77.8659 52.011 77.8892 52.011 77.9009C52 77.9359 52.0548 77.965 52.0438 78H52.0493Z" fill="url(#paint33_linear_71_477)"/>
<path d="M61.3703 79.3871C61.3703 79.3871 56.5888 82.0333 54.9782 79.7745C54.6439 79.3052 54.3931 77.6902 54.4767 77.2483C53.0445 76.539 51.9633 77.5811 51.1608 77.5211C50.9491 78.6014 50.8488 79.6599 51.4952 80.822C54.3206 85.8798 62 80.5438 62 80.5438L61.3647 79.3925L61.3703 79.3871Z" fill="url(#paint34_linear_71_477)"/>
<path d="M61.0148 83.5759L63.6334 73.8096C63.6614 73.6961 63.7509 73.6184 63.8572 73.6065C64.3328 73.5467 65.7092 73.3795 67.2926 73.2361C69.2062 73.0629 71.4275 72.9255 72.7535 73.045C72.9438 73.0629 73.0557 73.272 72.9717 73.4571C72.2164 75.0878 69.1111 81.7182 67.5612 83.8865C67.5108 83.9582 67.4325 84 67.343 84L61.2666 83.9403C61.0876 83.9403 60.9645 83.7551 61.0092 83.5759H61.0148Z" fill="url(#paint35_linear_71_477)"/>
<path d="M67.2082 72.2933L68.8618 72.0018C68.9495 71.9864 69.0227 72.0734 68.9934 72.1654L68.8276 72.6871C68.813 72.7331 68.774 72.7638 68.7301 72.774L67.1351 72.9991C67.0521 73.0093 66.9838 72.9326 67.0034 72.8456L67.1058 72.3905C67.1155 72.3393 67.1546 72.3035 67.2033 72.2984L67.2082 72.2933Z" fill="#FFC294"/>
<path d="M66.0081 74.7233L66.1514 73.6885C66.1667 73.5822 66.2281 73.5042 66.3049 73.4971L69.8101 73.0009C69.9278 72.9868 70.025 73.1356 69.9943 73.2915L69.7691 74.5745C69.7538 74.6808 69.6873 74.7517 69.6105 74.7588L66.1821 74.9997C66.0695 75.0068 65.9825 74.8651 66.003 74.7162L66.0081 74.7233Z" fill="#FFC294"/>
<path d="M61.2173 80.983C61.2173 80.983 60.9044 79.5472 61.0296 79.0383C61.1547 78.5294 61.4003 77.8758 62.2187 78.0204C63.0371 78.1651 64 78.5508 64 78.5508C64 78.5508 63.9519 79.2151 63.3308 79.0008L63.716 79.3329C63.716 79.3329 63.663 79.8633 63.1382 79.5794L63.4945 80.0187C63.4945 80.0187 63.2682 80.4526 62.8831 80.174C62.4979 79.8954 62.3102 81.1598 61.2173 80.983Z" fill="url(#paint36_linear_71_477)"/>
</g>
<defs>
<linearGradient id="paint0_linear_71_477" x1="131.37" y1="-36.5545" x2="61.8589" y2="48.2634" gradientUnits="userSpaceOnUse">
<stop stop-color="#FE7000"/>
<stop offset="1" stop-color="#FF5D00"/>
</linearGradient>
<linearGradient id="paint1_linear_71_477" x1="149.128" y1="-22.1658" x2="78.9815" y2="62.2563" gradientUnits="userSpaceOnUse">
<stop stop-color="#FE7000"/>
<stop offset="1" stop-color="#FF5D00"/>
</linearGradient>
<linearGradient id="paint2_linear_71_477" x1="127" y1="85" x2="119" y2="85" gradientUnits="userSpaceOnUse">
<stop stop-color="#FEBBBA"/>
<stop offset="1" stop-color="#FF928E"/>
</linearGradient>
<linearGradient id="paint3_linear_71_477" x1="116.159" y1="109.37" x2="115.935" y2="132.872" gradientUnits="userSpaceOnUse">
<stop stop-color="#FF5600"/>
<stop offset="1" stop-color="#500000"/>
</linearGradient>
<linearGradient id="paint4_linear_71_477" x1="103.826" y1="115.026" x2="130.971" y2="130.422" gradientUnits="userSpaceOnUse">
<stop stop-color="#090000"/>
<stop offset="1" stop-color="#1A0F00"/>
</linearGradient>
<linearGradient id="paint5_linear_71_477" x1="117.603" y1="119.475" x2="118.813" y2="129.139" gradientUnits="userSpaceOnUse">
<stop stop-color="#FEBBBA"/>
<stop offset="1" stop-color="#FF928E"/>
</linearGradient>
<linearGradient id="paint6_linear_71_477" x1="99.8695" y1="122.617" x2="126.67" y2="138.845" gradientUnits="userSpaceOnUse">
<stop stop-color="#090000"/>
<stop offset="1" stop-color="#1A0F00"/>
</linearGradient>
<linearGradient id="paint7_linear_71_477" x1="105.669" y1="110.377" x2="105.491" y2="131.477" gradientUnits="userSpaceOnUse">
<stop stop-color="#FF5600"/>
<stop offset="1" stop-color="#500000"/>
</linearGradient>
<linearGradient id="paint8_linear_71_477" x1="107.729" y1="120.11" x2="109.271" y2="131.081" gradientUnits="userSpaceOnUse">
<stop stop-color="#FEBBBA"/>
<stop offset="1" stop-color="#FF928E"/>
</linearGradient>
<linearGradient id="paint9_linear_71_477" x1="104.213" y1="116.594" x2="140.808" y2="76.2557" gradientUnits="userSpaceOnUse">
<stop stop-color="#090000"/>
<stop offset="1" stop-color="#1A0F00"/>
</linearGradient>
<linearGradient id="paint10_linear_71_477" x1="330.065" y1="-100.957" x2="376.512" y2="-138.236" gradientUnits="userSpaceOnUse">
<stop stop-color="#FF5600"/>
<stop offset="1" stop-color="#500000"/>
</linearGradient>
<linearGradient id="paint11_linear_71_477" x1="114.399" y1="55.6673" x2="119.156" y2="74.6284" gradientUnits="userSpaceOnUse">
<stop stop-color="#FEBBBA"/>
<stop offset="1" stop-color="#FF928E"/>
</linearGradient>
<linearGradient id="paint12_linear_71_477" x1="116.145" y1="51.3695" x2="113.923" y2="64.025" gradientUnits="userSpaceOnUse">
<stop stop-color="#FEBBBA"/>
<stop offset="1" stop-color="#FF928E"/>
</linearGradient>
<linearGradient id="paint13_linear_71_477" x1="118.363" y1="57.798" x2="112.051" y2="51.1852" gradientUnits="userSpaceOnUse">
<stop stop-color="#090000"/>
<stop offset="1" stop-color="#1A0F00"/>
</linearGradient>
<linearGradient id="paint14_linear_71_477" x1="117.819" y1="64.2537" x2="118.15" y2="56.8579" gradientUnits="userSpaceOnUse">
<stop stop-color="#FEBBBA"/>
<stop offset="1" stop-color="#FF928E"/>
</linearGradient>
<linearGradient id="paint15_linear_71_477" x1="164.805" y1="20.402" x2="123.508" y2="60.5825" gradientUnits="userSpaceOnUse">
<stop stop-color="#FF5600"/>
<stop offset="1" stop-color="#500000"/>
</linearGradient>
<linearGradient id="paint16_linear_71_477" x1="117.409" y1="94.2147" x2="105.27" y2="58.0857" gradientUnits="userSpaceOnUse">
<stop stop-color="#090000"/>
<stop offset="1" stop-color="#1A0F00"/>
</linearGradient>
<linearGradient id="paint17_linear_71_477" x1="324.881" y1="-109.65" x2="371.112" y2="-147.48" gradientUnits="userSpaceOnUse">
<stop stop-color="#FF5600"/>
<stop offset="1" stop-color="#500000"/>
</linearGradient>
<linearGradient id="paint18_linear_71_477" x1="81.3683" y1="54.7666" x2="107.959" y2="88.0322" gradientUnits="userSpaceOnUse">
<stop stop-color="#FEBBBA"/>
<stop offset="1" stop-color="#FF928E"/>
</linearGradient>
<linearGradient id="paint19_linear_71_477" x1="77.5563" y1="56.9143" x2="107.261" y2="90.5069" gradientUnits="userSpaceOnUse">
<stop stop-color="#FEBBBA"/>
<stop offset="1" stop-color="#FF928E"/>
</linearGradient>
<linearGradient id="paint20_linear_71_477" x1="67.5938" y1="60.7959" x2="77.4856" y2="72.6983" gradientUnits="userSpaceOnUse">
<stop stop-color="#FEBBBA"/>
<stop offset="1" stop-color="#FF928E"/>
</linearGradient>
<linearGradient id="paint21_linear_71_477" x1="75.9673" y1="52.5834" x2="66.6711" y2="78.0577" gradientUnits="userSpaceOnUse">
<stop stop-color="#FF5600"/>
<stop offset="1" stop-color="#500000"/>
</linearGradient>
<linearGradient id="paint22_linear_71_477" x1="63.8027" y1="54.2333" x2="55.0026" y2="74.497" gradientUnits="userSpaceOnUse">
<stop stop-color="#090000"/>
<stop offset="1" stop-color="#1A0F00"/>
</linearGradient>
<linearGradient id="paint23_linear_71_477" x1="64.837" y1="70.3641" x2="49.8852" y2="92.391" gradientUnits="userSpaceOnUse">
<stop stop-color="#FF5600"/>
<stop offset="1" stop-color="#500000"/>
</linearGradient>
<linearGradient id="paint24_linear_71_477" x1="64.2034" y1="69.4211" x2="62.174" y2="64.165" gradientUnits="userSpaceOnUse">
<stop stop-color="#FEBBBA"/>
<stop offset="1" stop-color="#FF928E"/>
</linearGradient>
<linearGradient id="paint25_linear_71_477" x1="63.588" y1="57.3559" x2="58.2435" y2="68.2291" gradientUnits="userSpaceOnUse">
<stop stop-color="#FEBBBA"/>
<stop offset="1" stop-color="#FF928E"/>
</linearGradient>
<linearGradient id="paint26_linear_71_477" x1="62.5298" y1="54.0992" x2="54.3649" y2="72.7775" gradientUnits="userSpaceOnUse">
<stop stop-color="#090000"/>
<stop offset="1" stop-color="#1A0F00"/>
</linearGradient>
<linearGradient id="paint27_linear_71_477" x1="61.2595" y1="56.7866" x2="56.2926" y2="66.9599" gradientUnits="userSpaceOnUse">
<stop stop-color="#FEBBBA"/>
<stop offset="1" stop-color="#FF928E"/>
</linearGradient>
<linearGradient id="paint28_linear_71_477" x1="50.8174" y1="137.06" x2="69.4176" y2="104.329" gradientUnits="userSpaceOnUse">
<stop stop-color="#FEBBBA"/>
<stop offset="1" stop-color="#FF928E"/>
</linearGradient>
<linearGradient id="paint29_linear_71_477" x1="173.018" y1="-110.111" x2="168.426" y2="-102.843" gradientUnits="userSpaceOnUse">
<stop stop-color="#090000"/>
<stop offset="1" stop-color="#1A0F00"/>
</linearGradient>
<linearGradient id="paint30_linear_71_477" x1="53.8885" y1="118.922" x2="26.5817" y2="127.73" gradientUnits="userSpaceOnUse">
<stop stop-color="#FEBBBA"/>
<stop offset="1" stop-color="#FF928E"/>
</linearGradient>
<linearGradient id="paint31_linear_71_477" x1="59.6992" y1="126.108" x2="65.655" y2="126.06" gradientUnits="userSpaceOnUse">
<stop stop-color="#090000"/>
<stop offset="1" stop-color="#1A0F00"/>
</linearGradient>
<linearGradient id="paint32_linear_71_477" x1="58.9888" y1="105.826" x2="66.0529" y2="84.8907" gradientUnits="userSpaceOnUse">
<stop stop-color="#090000"/>
<stop offset="1" stop-color="#1A0F00"/>
</linearGradient>
<linearGradient id="paint33_linear_71_477" x1="60.2691" y1="66.912" x2="44.6295" y2="89.1235" gradientUnits="userSpaceOnUse">
<stop stop-color="#FF5600"/>
<stop offset="1" stop-color="#500000"/>
</linearGradient>
<linearGradient id="paint34_linear_71_477" x1="64.0619" y1="79.9982" x2="75.0683" y2="79.9982" gradientUnits="userSpaceOnUse">
<stop stop-color="#FEBBBA"/>
<stop offset="1" stop-color="#FF928E"/>
</linearGradient>
<linearGradient id="paint35_linear_71_477" x1="78.1081" y1="56.2361" x2="49.6308" y2="101.593" gradientUnits="userSpaceOnUse">
<stop stop-color="#FE7000"/>
<stop offset="1" stop-color="#FF5D00"/>
</linearGradient>
<linearGradient id="paint36_linear_71_477" x1="61.0007" y1="79.4937" x2="64" y2="79.4937" gradientUnits="userSpaceOnUse">
<stop stop-color="#FEBBBA"/>
<stop offset="1" stop-color="#FF928E"/>
</linearGradient>
<clipPath id="clip0_71_477">
<rect width="132" height="129" fill="white"/>
</clipPath>
</defs>
</svg>
