<svg width="112" height="127" viewBox="0 0 112 127" fill="none" xmlns="http://www.w3.org/2000/svg">
<g clip-path="url(#clip0_71_350)">
<path d="M31.9155 59C35.0256 53.0502 40.8198 48.8506 47.5396 48.1032L48 19.4437C48 19.1978 47.8041 18.9953 47.5543 19.0001C28.5899 19.2026 11.8539 30.8226 4.04186 48.0357C3.92921 48.2864 4.05166 48.5805 4.31614 48.677L31.9155 59Z" fill="#EF7511"/>
<path d="M69.2476 73.0048C68.8641 72.9952 68.5146 73.237 68.4029 73.6045C68.0825 74.6346 67.4903 76.6028 67.3932 76.8543C66.9223 78.0682 66.3738 79.2481 65.7282 80.3798C64.534 82.4786 63.0049 84.3985 61.1165 85.9219C56.335 89.781 49.4612 90.4967 43.7282 88.5865C43.5631 88.5333 43.4029 88.4753 43.2427 88.4124C42.9417 88.3012 42.6068 88.4269 42.4563 88.7026L28 114.967C35.0194 118.473 41.6262 119.392 49.9126 118.86C73.9903 117.322 92.9029 97.8427 95 73.6915L69.2524 73L69.2476 73.0048Z" fill="#EFBC1D"/>
<path d="M69.6335 73C68.05 82.7113 60.8676 90.301 51.1113 90.6292C48.3658 90.7223 45.0908 90.0854 42.6836 89.1103C42.4336 89.0074 42.1443 89.1103 42.007 89.3455L27 115.148C34.0892 118.7 42.0953 120.439 50.4641 119.905C74.7813 118.347 93.882 98.0131 96 73.539L69.6335 73Z" fill="#EF7511"/>
<path d="M23.5129 110.47L37.945 84.7552C38.0472 84.5714 38.0034 84.3441 37.8427 84.2135C33.4021 80.4985 29.8477 75.5113 29.8477 69.0487C29.8477 67.4524 29.1368 65.1354 29.463 63.6406L2.3177 54C0.813142 58.8663 0 64.0518 0 69.4212C0 86.7772 9.2854 102.044 22.0279 110.818C22.5245 111.162 23.2159 111.002 23.5081 110.475L23.5129 110.47Z" fill="#EF7511"/>
<path d="M21.9904 110L36.8917 84.6234C37.0809 84.2995 37.0178 83.8887 36.7364 83.6421C32.4616 79.8961 29.7395 74.2649 29.7395 67.9135C29.7395 66.3184 29.9142 64.7668 30.2393 63.2732L2.71726 53.0259C2.49891 52.9437 2.25145 53.0645 2.18837 53.2869C0.766656 58.0335 0 63.0702 0 68.2808C0 86.0445 8.81169 101.343 21.9904 110Z" fill="#EFBC1D"/>
<path d="M53 48.2602C61.5607 49.6802 68.198 56.8285 69.3229 65.7638C69.3813 66.2419 69.7806 66.609 70.2676 66.6235L111.674 68L112 67.6861C111.873 33.3311 87.0336 3.89772 53.7645 0L53 48.2602Z" fill="url(#paint0_linear_71_350)"/>
<path d="M77 32C82.5228 32 87 27.5228 87 22C87 16.4772 82.5228 12 77 12C71.4772 12 67 16.4772 67 22C67 27.5228 71.4772 32 77 32Z" fill="#EF7511"/>
<path d="M77 31C81.9706 31 86 26.9706 86 22C86 17.0294 81.9706 13 77 13C72.0294 13 68 17.0294 68 22C68 26.9706 72.0294 31 77 31Z" fill="white"/>
<path d="M71.7318 30C71.8786 29.3812 72 28.9792 72 28.9792L69.3691 25C69.3691 25 68.5191 25.7678 68.0081 29.1238C67.9372 29.589 68.342 30 68.8682 30H71.7369H71.7318Z" fill="#EFBC1D"/>
<path d="M84.9873 29.1367C84.3964 26.3146 83.3377 25 83.3377 25L82 29.7283C82 29.7283 82.041 29.8203 82.1026 30H84.3349C84.7616 30 85.0776 29.5793 84.9832 29.1367H84.9873Z" fill="#EFBC1D"/>
<path d="M71.2507 30.3626C73.8514 31.2762 77.3854 31.1463 81.5076 30.3626C81.6049 29.9823 81.7361 29.5695 81.9111 29.1012L83 25.0711C81.4736 23.768 79.3347 23.3367 78.5083 23.2161C76.5931 22.7616 74.3521 23.1651 74.3521 23.1651C71.3139 23.3692 69 25.2242 69 25.2242L70.8813 29.3098C71.0319 29.653 71.1535 30.0055 71.2507 30.3672V30.3626Z" fill="#EFBC1D"/>
<path d="M75.0561 21L75.0001 23.2109C74.9958 23.4274 75.112 23.6289 75.2884 23.6994C75.7704 23.9008 76.7731 24.203 77.7198 23.8051C77.9092 23.7245 78.0254 23.4979 77.9953 23.2612L77.7112 21H75.0604H75.0561Z" fill="url(#paint1_linear_71_350)"/>
<path d="M74 16.7925C74 16.7925 74.12 19.714 74.5956 20.857C75.0711 22 76.2622 22 76.3823 22C76.5023 22 77.5734 21.7438 78.169 20.7289C78.7645 19.714 79 16.4082 79 16.4082C79 16.4082 77.9289 15.1371 76.5023 15.009C75.0757 14.8809 74.0046 16.152 74.0046 16.7875L74 16.7925Z" fill="url(#paint2_linear_71_350)"/>
<path d="M78.2139 17.5703C78.2139 17.5703 78.6953 16.7941 78.936 17.0528C79.1767 17.3116 78.6953 19 78.2139 19C77.7326 19 78.2139 17.5747 78.2139 17.5747V17.5703Z" fill="url(#paint3_linear_71_350)"/>
<path d="M74 17.6977C74 17.6977 73.3285 16.787 73.0608 17.0465C72.7931 17.3061 73.4646 19 74 19V17.6977Z" fill="url(#paint4_linear_71_350)"/>
<path d="M78.9819 16.6621C78.9819 16.4643 78.973 16.2566 78.9641 16.0242C78.9553 15.7918 78.973 15.5544 78.9951 15.322C79.0616 14.6494 78.4321 14.1203 77.8647 14.2885C77.8204 14.3033 77.776 14.3181 77.7317 14.2983C77.6785 14.2736 77.6564 14.2093 77.6342 14.15C77.5012 13.7841 77.1554 13.3143 76.8229 13.161C76.5392 13.0275 76.2245 12.9731 75.9186 13.0126C75.3024 13.0918 74.7349 13.5516 74.4778 14.1797C74.4645 14.2143 74.4468 14.2538 74.4202 14.2736C74.3936 14.2934 74.3581 14.2934 74.3271 14.2934C74.0168 14.2934 73.6621 14.2242 73.4006 14.4368C73.1789 14.6148 73.0193 14.8967 73.0016 15.2082C72.9839 15.5445 73.1169 15.8709 73.2498 16.1725C73.3296 16.3555 73.4183 16.5681 73.3518 16.761C73.3296 16.8203 73.2986 16.8698 73.272 16.9291C72.9883 17.5522 73.7286 18.1654 73.8661 18.7242L74.1764 20C74.2207 19.728 74.234 19.4511 74.2163 19.1742C74.1897 18.7934 74.0966 18.4225 74.1099 18.0418C74.1187 17.7698 74.1764 17.4978 74.2872 17.2555C74.3936 17.0231 74.5931 16.9192 74.7394 16.7115C74.8768 16.8549 75.0231 17.0033 75.2093 17.033C75.3245 17.0527 75.4442 17.0231 75.5551 16.9835C75.7235 16.9242 75.9673 16.7115 76.1314 16.6967C76.2954 16.6819 76.353 16.8747 76.4638 16.9786C76.7653 17.2604 77.2795 17.3396 77.6431 17.1714C77.5588 17.211 78.0509 18.2297 78.0642 18.3236C78.1573 18.8676 78.2149 19.4165 78.2327 19.9703C78.2726 20 78.3169 19.9357 78.3302 19.8863C78.4188 19.5203 78.4454 19.1346 78.5031 18.7588C78.5696 18.3335 78.7203 17.933 78.8444 17.5275C78.942 17.211 78.973 16.944 78.9774 16.6621H78.9819Z" fill="url(#paint5_linear_71_350)"/>
<path d="M96 26C100.971 26 105 21.9706 105 17C105 12.0294 100.971 8 96 8C91.0294 8 87 12.0294 87 17C87 21.9706 91.0294 26 96 26Z" fill="#EF7511"/>
<path d="M96 25C100.418 25 104 21.4183 104 17C104 12.5817 100.418 9 96 9C91.5817 9 88 12.5817 88 17C88 21.4183 91.5817 25 96 25Z" fill="white"/>
<path d="M94.2855 15.9977C93.7979 15.9977 93.2968 16.0705 93.1044 15.3896C92.7465 14.1108 93.346 12.1927 94.3348 11.4962C94.6658 11.2623 95.0506 11.1635 95.4264 11.0752C95.8738 10.9712 96.2586 10.9452 96.6568 11.1947C97.0281 11.4286 97.386 11.0544 97.7708 11.3507C98.0974 11.6054 98.348 12.0004 98.5224 12.4007C98.7506 12.9257 98.8669 13.5027 98.9698 14.0796C98.9922 14.2096 99.0146 14.3448 98.9877 14.4747C98.9654 14.5839 98.9161 14.6826 98.8625 14.7762C98.4643 15.4935 97.9363 15.9925 97.1668 15.9925H94.2855V15.9977Z" fill="#070707"/>
<path d="M94.3311 14.005C94.3311 14.005 94.4246 14.2112 93.8262 14.533C93.4943 14.7141 92.8445 14.9806 92.7603 15.755C92.7183 16.1573 92.5687 17.148 92.2134 17.2083C91.3298 17.3592 90.1331 17.9526 90.0255 19.1092C89.8993 20.4368 90.2499 21.1307 90.881 21.3017C91.3438 21.4274 91.4607 21.5632 91.3672 22.0862C91.2784 22.5891 91.6337 24.3893 92.405 24.852C94.1347 25.8829 95.6447 21.1911 95.6447 21.1911L96 15.1365L94.3404 14L94.3311 14.005Z" fill="#070707"/>
<path d="M98.694 13C98.694 13 98.6007 13.2126 99.2074 13.5413C99.5481 13.7249 100.206 13.9955 100.29 14.7881C100.337 15.1989 100.439 15.7691 100.799 15.8319C101.699 15.9866 102.74 16.8951 102.959 18.6542C103.127 19.9977 102.759 21.4378 102.124 21.6166C101.657 21.7471 101.69 21.491 101.788 22.0226C101.877 22.5348 101.667 22.3367 100.878 22.8055C99.1187 23.8541 97.3593 20.3215 97.3593 20.3215L97 14.1598L98.6894 13H98.694Z" fill="#070707"/>
<path d="M96.1045 19.1386C96.1045 19.1386 97.4839 18.7771 97.7781 19.2217C97.9228 19.9643 98 20.6971 98 20.6971L96.4084 21L95.3569 20.7557L95.1061 20.6092L95 19.5588C95 19.5588 95.5402 19.2412 96.0997 19.1386H96.1045Z" fill="url(#paint6_linear_71_350)"/>
<path d="M95 15.5804C95 15.5804 94.6495 14.7904 94.1238 15.0537C93.5981 15.3171 94.9162 17 94.9162 17L95 15.5804Z" fill="url(#paint7_linear_71_350)"/>
<path d="M98 15.8159C98 15.8159 98 14.4838 98.7812 15.2238C99.5625 15.9639 98 17 98 17V15.8159Z" fill="url(#paint8_linear_71_350)"/>
<path d="M102.974 24.9425C102.488 22.7857 101.784 21.0974 101.566 21L100.245 23.9963C100.245 23.9963 99.9764 24.8915 100.002 26H102.037C102.645 26 103.106 25.4852 102.979 24.9378L102.974 24.9425Z" fill="url(#paint9_linear_71_350)"/>
<path d="M92.9656 26C93.017 24.8901 92.9956 24.191 92.9956 24.191L91.4219 21C91.4219 21 91.2251 21.9765 91.0284 24.5592C91.0199 24.6766 91.0113 24.7994 91.0028 24.9221C90.9643 25.4984 91.3321 25.9947 91.7939 25.9947H92.9656V26Z" fill="url(#paint10_linear_71_350)"/>
<path d="M95.7061 26H97.5097L98 20.3228C98 20.3228 97.5862 20.2036 97.3793 19.404C97.1724 18.6043 97.069 17 97.069 17L95.2069 17.457C95.2069 17.457 95.4138 19.6374 95 20.6656L95.7106 26H95.7061Z" fill="url(#paint11_linear_71_350)"/>
<path d="M98.7302 25.9958L99 23C97.0465 24.0429 95.0372 23.9931 93 23.4404L93.5767 26H98.7302V25.9958Z" fill="#070707"/>
<path d="M96.9948 25.9952C96.3557 23.1335 95.6753 20 95.6753 20L95.3196 20.6582L92 21.5405C92.1649 22.2417 92.6598 24.1781 93.1598 26H97L96.9948 25.9952Z" fill="url(#paint12_linear_71_350)"/>
<path d="M100.955 26C101.129 25.1674 101.288 24.5204 101.288 24.5204L102 21.1222C101.775 20.9231 98.25 20.4977 98.25 20.4977L97.8709 20C97.8709 20 97.3996 23.0226 97 26H100.955Z" fill="url(#paint13_linear_71_350)"/>
<path d="M94.0187 14.2682C94.0187 14.2682 93.9016 16.9698 94.2529 17.42C94.6042 17.8703 95.0726 18.8834 95.8923 18.9959C96.7119 19.1085 98 16.8572 98 16.7446C98 16.6321 97.8829 13.7054 97.8829 13.7054C97.8829 13.7054 95.4239 11.7918 94.0136 14.2682H94.0187Z" fill="url(#paint14_linear_71_350)"/>
<path d="M94.0633 14.0562C94.0633 14.0562 93.6675 15.1461 94.8551 14.7828L96.0427 14.4195C96.0427 14.4195 97.2303 13.7837 97.4282 14.0562C97.6261 14.3287 97.8241 15 97.8241 15C97.8241 15 98.2199 14.0562 97.8241 13.5113C97.4282 12.9663 94.954 12.5122 94.059 14.0562H94.0633Z" fill="#070707"/>
<path d="M81.5 55C87.299 55 92 50.299 92 44.5C92 38.701 87.299 34 81.5 34C75.701 34 71 38.701 71 44.5C71 50.299 75.701 55 81.5 55Z" fill="#EF7511"/>
<path d="M81.5 54C86.7467 54 91 49.7467 91 44.5C91 39.2533 86.7467 35 81.5 35C76.2533 35 72 39.2533 72 44.5C72 49.7467 76.2533 54 81.5 54Z" fill="white"/>
<path d="M82 43C83.6569 43 85 41.6569 85 40C85 38.3431 83.6569 37 82 37C80.3431 37 79 38.3431 79 40C79 41.6569 80.3431 43 82 43Z" fill="#070707"/>
<path d="M78.9368 39C77.7112 43.618 76.878 47.8179 77.0147 49L80.5856 48.5867L81 40.0428L78.9368 39Z" fill="#070707"/>
<path d="M83.4842 38.2124L83 49.4724L87 52C86.9171 48.1517 85.2595 38.2642 84.5834 38L83.4842 38.2124Z" fill="#070707"/>
<path d="M82.8672 45L83 47.6195L80.177 48L80 45.2522L82.8672 45Z" fill="url(#paint15_linear_71_350)"/>
<path d="M84.8725 42.7201C84.8725 42.7201 84.172 45.6244 82.2837 45.9692C80.3954 46.3187 79.832 43.5843 79.7355 43.386C79.7355 43.386 79.3142 43.5702 79.2177 43.1782C79.1213 42.7862 78.6238 41.804 79.5629 41.8229C79.5629 41.8229 79.3802 40.8453 79.7051 40.3683C80.0299 39.8914 80.6847 38.7344 82.035 39.0555C83.3852 39.3766 85.5477 40.4344 84.8725 42.7154V42.7201Z" fill="url(#paint16_linear_71_350)"/>
<path d="M83.1251 46.0056L85 47.0823L82.543 50L78 46.9038C78.6902 46.6248 79.3701 46.2455 79.9934 46.1339L83.1199 46L83.1251 46.0056Z" fill="url(#paint17_linear_71_350)"/>
<path d="M79.3132 38.7446C78.7184 39.6109 79.1837 40.3777 79.0254 41C79.6058 40.7809 81.5583 40.4573 82.1435 40.5171C82.2634 40.1038 82.0284 39.4118 81.9037 38.8691C82.0955 39.3869 82.5321 40.1735 82.4841 40.5818C83.2756 40.6216 83.1125 40.6316 84 41L83.3092 38.5007C81.7693 37.7539 80.4453 37.8485 79.3132 38.7446Z" fill="#070707"/>
<path d="M83 35.9221C83 36.4316 82.4154 37 82 37C81.6564 37 81 36.4316 81 35.9221C81 35.4126 81.4513 35 82 35C82.5487 35 83 35.4126 83 35.9221Z" fill="#070707"/>
<path d="M86.02 54L87 48.0652C85.6624 47.0752 84.4276 46.6068 82.9528 46C82.4971 47.0326 80.4147 46.9262 79.9786 46.1277C78.592 46.511 77.2739 47.2189 76 48.1344L77.3425 54H86.02Z" fill="url(#paint18_linear_71_350)"/>
<path d="M88.9765 52.9399C88.2335 49.2054 87.3759 48 87.3759 48L86 52.913C86 52.913 86.1651 53.3058 86.3852 54H88.261C88.738 54 89.0866 53.4834 88.9811 52.9399H88.9765Z" fill="url(#paint19_linear_71_350)"/>
<path d="M77.4314 54C77.5704 53.3521 77.7557 52.6715 78 51.9691L76.1931 48C76.1931 48 75.3002 50.0036 75.0053 53.02C74.9548 53.5427 75.2707 54 75.675 54H77.4314Z" fill="url(#paint20_linear_71_350)"/>
<path d="M83 39C83.9251 41.6373 84.3855 49.0686 83.8209 53C84.7026 49.5686 85.8058 45.2157 84.1249 39.3627L83 39Z" fill="#070707"/>
<path d="M102.5 46C107.747 46 112 41.7467 112 36.5C112 31.2533 107.747 27 102.5 27C97.2533 27 93 31.2533 93 36.5C93 41.7467 97.2533 46 102.5 46Z" fill="#EF7511"/>
<path d="M102.5 45C107.194 45 111 41.1944 111 36.5C111 31.8056 107.194 28 102.5 28C97.8056 28 94 31.8056 94 36.5C94 41.1944 97.8056 45 102.5 45Z" fill="white"/>
<path d="M107.939 46C108.527 46 109.006 45.632 109 45.1801C108.988 43.8851 108.951 42.7438 108.873 42.1149C108.673 40.5078 107.564 40 107.564 40L107 46H107.933H107.939Z" fill="url(#paint21_linear_71_350)"/>
<path d="M105.995 46C105.922 42.6194 105.855 39.8287 105.855 39.8287C104.164 38.8876 97.9259 39.0046 97.9259 39.0046C97.9259 39.0046 97.4914 42.2635 97 46H106H105.995Z" fill="url(#paint22_linear_71_350)"/>
<path d="M95.5086 46H101C100.824 44.2976 99.4059 38 99.4059 38L95 39.3463C95 39.3463 95.3472 43.2732 95.3472 44.4976C95.3472 44.7805 95.4254 45.322 95.5086 46Z" fill="url(#paint23_linear_71_350)"/>
<path d="M95.9965 46C96.0155 43.8173 95.9776 39.7858 95.3439 39C95.3439 39 94.521 39.4571 93.6933 42.4255C93.4521 43.2832 93.2346 44.0946 93.0312 44.8701C92.8846 45.4351 93.2724 45.9949 93.8163 45.9949H95.9965V46Z" fill="url(#paint24_linear_71_350)"/>
<path d="M107.767 45.9948C107.934 42.8114 108.085 39.42 107.944 39.2848C107.683 39.0247 104.531 38 104.531 38C104.531 38 102.475 44.2575 102 46H107.767V45.9948Z" fill="url(#paint25_linear_71_350)"/>
<path d="M100 38.4673L100.775 36H103.615L104 38.8178C104 38.8178 101.546 39.4066 100 38.4673Z" fill="url(#paint26_linear_71_350)"/>
<path d="M100 32.5294C100 32.5294 100.219 35.0407 100.589 36.0203C100.959 37 101.88 37 101.973 37C102.065 37 102.894 36.7812 103.356 35.9109C103.819 35.0407 104 32.2062 104 32.2062C104 32.2062 103.171 31.1171 102.065 31.0077C100.959 30.8983 100.004 31.9824 100.004 32.5294H100Z" fill="url(#paint27_linear_71_350)"/>
<path d="M103.215 33.5742C103.215 33.5742 103.697 32.7941 103.936 33.0524C104.175 33.3107 103.697 35 103.215 35C102.732 35 103.215 33.5742 103.215 33.5742Z" fill="url(#paint28_linear_71_350)"/>
<path d="M100 33.6993C100 33.6993 99.3276 32.7872 99.0607 33.0463C98.7939 33.3054 99.461 35 100 35V33.6993Z" fill="url(#paint29_linear_71_350)"/>
<path d="M104.867 32.143C104.994 31.8422 105.022 31.5065 104.985 31.184C104.924 30.6957 104.642 29.7934 104.252 29.4316C104.365 29.5362 103.304 29.9503 103.145 29.9372C103.464 29.6975 103.858 29.4228 103.872 29C103.506 29.231 103.056 29.3139 102.619 29.3836C101.53 29.5623 100.357 29.5231 99.5165 30.2903C99.1645 30.6085 98.9298 31.1055 99.019 31.5676C99.0847 31.9032 99.6245 32.2607 99.2912 32.5702C99.0565 32.7881 99.77 33.1892 99.8826 33.8082C99.892 33.8518 99.9014 33.8997 99.9155 33.9433C99.9061 33.6251 99.7747 33.2851 99.7841 32.9756C99.8028 32.3391 100.831 32.2956 101.333 32.2563C102.004 32.1997 102.732 32.204 103.314 31.8422C103.548 31.694 103.699 32.8884 103.708 32.9494C103.764 33.2895 103.835 33.6556 103.774 34H103.938C103.985 33.599 103.938 33.211 104.262 32.9189C104.417 32.7751 104.572 32.6356 104.694 32.4656C104.764 32.3653 104.825 32.2607 104.872 32.1473L104.867 32.143Z" fill="url(#paint30_linear_71_350)"/>
<path d="M100.889 37.0045C100.809 37.5401 100.784 37.794 100.629 38.3111C100.49 38.7728 100.591 39.4191 100.599 39.9085C100.612 40.5872 101.09 41.3352 100.985 42C100.717 41.169 99.8948 40.5226 99.4755 39.7423C99.0645 38.9851 98.771 38.3711 99.2406 37.6555C99.53 37.2122 100.893 36.9629 100.884 37.0045H100.889Z" fill="url(#paint31_linear_71_350)"/>
<path d="M103.447 38.9688C103.513 40.3393 103.231 40.6161 103 42C103.311 41.0625 104.003 40.5715 104.55 39.7411C105.091 38.9197 105.266 37.8929 104.38 37.3483C104.319 37.3126 103.466 36.9376 103.471 37.009C103.48 37.2099 103.419 38.3795 103.447 38.9733V38.9688Z" fill="url(#paint32_linear_71_350)"/>
<path d="M18.5 50C22.0899 50 25 47.0899 25 43.5C25 39.9101 22.0899 37 18.5 37C14.9101 37 12 39.9101 12 43.5C12 47.0899 14.9101 50 18.5 50Z" fill="url(#paint33_linear_71_350)"/>
<path d="M18.5 50C22.0899 50 25 47.0899 25 43.5C25 39.9101 22.0899 37 18.5 37C14.9101 37 12 39.9101 12 43.5C12 47.0899 14.9101 50 18.5 50Z" fill="url(#paint34_linear_71_350)"/>
<path opacity="0.7" d="M13.055 43C13.0204 43 12.9957 42.9651 13.0006 42.9245C13.0155 42.634 13.0402 42.3436 13.0847 42.059C13.0897 42.0183 13.1194 41.9951 13.154 42.0009C13.1886 42.0067 13.2084 42.0415 13.2034 42.0822C13.1589 42.361 13.1342 42.6457 13.1194 42.9303C13.1194 42.9651 13.0897 42.9942 13.06 42.9942L13.055 43Z" fill="white"/>
<path opacity="0.7" d="M13.0531 40.9955C13.0531 40.9955 13.0345 40.9955 13.0298 40.991C13.0018 40.9776 12.9924 40.9463 13.0064 40.9194C13.9546 39.1194 15.8511 38 17.953 38C18.2893 38 18.6256 38.0269 18.9526 38.0851C18.9853 38.0896 19.004 38.1164 18.9993 38.1478C18.9946 38.1791 18.9666 38.197 18.9339 38.1925C18.6116 38.1343 18.2846 38.1075 17.9577 38.1075C15.8978 38.1075 14.0434 39.2045 13.1139 40.9687C13.1045 40.9866 13.0858 41 13.0625 41L13.0531 40.9955Z" fill="white"/>
<path opacity="0.78" d="M18.5 49C21.5376 49 24 46.5376 24 43.5C24 40.4624 21.5376 38 18.5 38C15.4624 38 13 40.4624 13 43.5C13 46.5376 15.4624 49 18.5 49Z" fill="white"/>
<path d="M20 41.3522C20 42.1435 19.3273 43 18.5 43C17.6727 43 17 42.1435 17 41.3522C17 40.5609 17.6727 40 18.5 40C19.3273 40 20 40.5609 20 41.3522Z" fill="url(#paint35_linear_71_350)"/>
<path d="M16.0757 46.995H19.8748C20.2759 46.995 20.6299 46.7181 20.7526 46.3153L20.9555 45.6357C21.1065 45.1373 20.8611 44.5987 20.3986 44.4174C18.8507 43.8133 17.2556 43.8939 15.6179 44.4728C15.1602 44.6339 14.9053 45.1575 15.0327 45.6559L15.1885 46.2751C15.297 46.703 15.6604 47 16.0757 47V46.995Z" fill="url(#paint36_linear_71_350)"/>
<path d="M30.5 40C34.0899 40 37 37.0899 37 33.5C37 29.9101 34.0899 27 30.5 27C26.9101 27 24 29.9101 24 33.5C24 37.0899 26.9101 40 30.5 40Z" fill="url(#paint37_linear_71_350)"/>
<path d="M30.5 40C34.0899 40 37 37.0899 37 33.5C37 29.9101 34.0899 27 30.5 27C26.9101 27 24 29.9101 24 33.5C24 37.0899 26.9101 40 30.5 40Z" fill="url(#paint38_linear_71_350)"/>
<path opacity="0.7" d="M25.055 33C25.0204 33 24.9957 32.9651 25.0006 32.9245C25.0155 32.634 25.0402 32.3436 25.0847 32.059C25.0897 32.0183 25.1194 31.9951 25.154 32.0009C25.1886 32.0067 25.2084 32.0415 25.2034 32.0822C25.1589 32.361 25.1342 32.6457 25.1194 32.9303C25.1194 32.9651 25.0897 32.9942 25.06 32.9942L25.055 33Z" fill="white"/>
<path opacity="0.7" d="M25.0531 30.9955C25.0531 30.9955 25.0345 30.9955 25.0298 30.991C25.0018 30.9776 24.9924 30.9463 25.0064 30.9194C25.9546 29.1194 27.8511 28 29.953 28C30.2893 28 30.6256 28.0269 30.9526 28.0851C30.9853 28.0896 31.004 28.1164 30.9993 28.1478C30.9946 28.1791 30.9666 28.197 30.9339 28.1925C30.6116 28.1343 30.2846 28.1075 29.9577 28.1075C27.8978 28.1075 26.0434 29.2045 25.1139 30.9687C25.1045 30.9866 25.0858 31 25.0625 31L25.0531 30.9955Z" fill="white"/>
<path opacity="0.78" d="M30.5 39C33.5376 39 36 36.5376 36 33.5C36 30.4624 33.5376 28 30.5 28C27.4624 28 25 30.4624 25 33.5C25 36.5376 27.4624 39 30.5 39Z" fill="white"/>
<path d="M32 31.3522C32 32.1435 31.3273 33 30.5 33C29.6727 33 29 32.1435 29 31.3522C29 30.5609 29.6727 30 30.5 30C31.3273 30 32 30.5609 32 31.3522Z" fill="url(#paint39_linear_71_350)"/>
<path d="M28.0757 36.995H31.8748C32.2759 36.995 32.6299 36.7181 32.7526 36.3153L32.9555 35.6357C33.1065 35.1373 32.8611 34.5987 32.3986 34.4174C30.8507 33.8133 29.2556 33.8939 27.6179 34.4728C27.1602 34.6339 26.9053 35.1575 27.0327 35.6558L27.1885 36.2751C27.297 36.703 27.6604 37 28.0757 37V36.995Z" fill="url(#paint40_linear_71_350)"/>
<path d="M32.5 55C36.0899 55 39 52.0899 39 48.5C39 44.9101 36.0899 42 32.5 42C28.9101 42 26 44.9101 26 48.5C26 52.0899 28.9101 55 32.5 55Z" fill="url(#paint41_linear_71_350)"/>
<path d="M32.5 55C36.0899 55 39 52.0899 39 48.5C39 44.9101 36.0899 42 32.5 42C28.9101 42 26 44.9101 26 48.5C26 52.0899 28.9101 55 32.5 55Z" fill="url(#paint42_linear_71_350)"/>
<path opacity="0.7" d="M27.055 48C27.0204 48 26.9957 47.9651 27.0006 47.9245C27.0155 47.634 27.0402 47.3436 27.0847 47.059C27.0897 47.0183 27.1194 46.9951 27.154 47.0009C27.1886 47.0067 27.2084 47.0415 27.2034 47.0822C27.1589 47.361 27.1342 47.6457 27.1194 47.9303C27.1194 47.9651 27.0897 47.9942 27.06 47.9942L27.055 48Z" fill="white"/>
<path opacity="0.7" d="M27.0531 45.9955C27.0531 45.9955 27.0345 45.9955 27.0298 45.991C27.0018 45.9776 26.9924 45.9463 27.0064 45.9194C27.9546 44.1194 29.8511 43 31.953 43C32.2893 43 32.6256 43.0269 32.9526 43.0851C32.9853 43.0896 33.004 43.1164 32.9993 43.1478C32.9946 43.1791 32.9666 43.197 32.9339 43.1925C32.6116 43.1343 32.2846 43.1075 31.9577 43.1075C29.8978 43.1075 28.0434 44.2045 27.1139 45.9687C27.1045 45.9866 27.0858 46 27.0625 46L27.0531 45.9955Z" fill="white"/>
<path opacity="0.78" d="M32.5 54C35.5376 54 38 51.5376 38 48.5C38 45.4624 35.5376 43 32.5 43C29.4624 43 27 45.4624 27 48.5C27 51.5376 29.4624 54 32.5 54Z" fill="white"/>
<path d="M34 46.3522C34 47.1435 33.3273 48 32.5 48C31.6727 48 31 47.1435 31 46.3522C31 45.5609 31.6727 45 32.5 45C33.3273 45 34 45.5609 34 46.3522Z" fill="url(#paint43_linear_71_350)"/>
<path d="M30.0757 51.995H33.8748C34.2759 51.995 34.6299 51.7181 34.7526 51.3153L34.9555 50.6357C35.1065 50.1373 34.8611 49.5987 34.3986 49.4174C32.8507 48.8133 31.2556 48.8939 29.6179 49.4728C29.1602 49.6339 28.9053 50.1575 29.0327 50.6558L29.1885 51.2751C29.297 51.703 29.6604 52 30.0757 52V51.995Z" fill="url(#paint44_linear_71_350)"/>
<path d="M42.2794 48C42.2794 48 40.5648 48.8838 40.2484 49.8974C39.9933 50.7113 38.0993 50.8162 37.9103 52.414C37.8159 53.2379 37.2349 53.902 36.4603 54.0269C34.5237 54.3414 31.5386 55.405 31.0616 58.9602C30.6979 61.6715 32.0062 62.7051 33.3807 63.0597C34.3915 63.3193 35.0575 64.3579 34.8544 65.4364C34.6607 66.4701 34.9488 67.6634 36.6445 68.6072C40.4373 70.7243 44.2254 63.5939 44.2254 63.5939L45 51.1507L42.2841 48.005L42.2794 48Z" fill="#070707"/>
<path d="M62.5427 45C62.5427 45 54.9856 57.6629 46 60.1106C46 60.1106 47.749 65.3956 49.1021 66C49.1021 66 60.1572 56.2243 63 46.7983L62.5427 45Z" fill="url(#paint45_linear_71_350)"/>
<path d="M26 123.857L25.7722 126.088C25.7284 126.511 25.4481 126.846 25.0933 126.893C24.4932 126.976 23.5295 127.06 22.5878 126.94C22.176 126.888 21.9045 126.386 22.0315 125.916C22.2593 125.054 22.6798 123.763 23.2842 123H25.3605C25.7459 123 26.0394 123.402 25.9956 123.857H26Z" fill="#070707"/>
<path d="M44.3137 100.005L44.6916 102.309C44.6916 102.309 43.4257 115.606 43.2037 120.925C43.1707 121.759 43.3785 122.583 43.7989 123.293L46 127L40.4122 123.578L40.2988 122.872L41.2152 121.568L40.0154 106.668C39.9445 105.79 40.1193 104.913 40.5161 104.138L41.6733 101.883L44.3185 100L44.3137 100.005Z" fill="url(#paint46_linear_71_350)"/>
<path d="M46.5246 126.996H44.7338C44.3974 126.996 44.0847 126.853 43.881 126.604C43.322 125.923 42.166 124.596 41.6165 124.56C40.8727 124.516 40.9674 127 40.9674 127H40.5505L40.0246 123.91C39.892 123.131 40.3041 122.365 41.0432 122C41.0432 122 41.2138 123.18 42.1376 123.705C43.0614 124.231 45.8897 126.101 45.8897 126.101C45.8897 126.101 46.2356 126.056 46.6146 126.118C47.1784 126.216 47.1026 127 46.5246 127V126.996Z" fill="#070707"/>
<path d="M37 100.957C37 100.957 29.2549 115.516 28.0257 118.838C26.7966 122.16 26.3622 124.933 26.3474 125.198C26.3227 125.609 25.8044 126 24.3876 126C23.6571 126 23.2967 125.711 23.119 125.428C22.9709 125.188 22.961 124.885 23.0894 124.635C23.5386 123.735 24.9603 120.863 25.4835 119.562C26.1104 118.006 27.463 110.961 28.2034 108.51C28.9439 106.059 29.7831 103.403 33.0114 100.957C33.0114 100.957 35.2279 98.8041 36.9951 100.957H37Z" fill="url(#paint47_linear_71_350)"/>
<path d="M41.0703 76.7971C43.0759 68.2904 38 63.479 38 63.479C41.204 60.3988 47.0376 59 47.0376 59C47.0376 59 52.6087 63.0773 51.9451 66.2716C51.5588 68.1416 48.0329 77.4766 48.0329 77.4766C48.0329 77.4766 44.7695 79.0242 41.0703 76.7971Z" fill="url(#paint48_linear_71_350)"/>
<path d="M36.5613 81.0975C37.3527 78.7037 40.8637 77 40.8637 77C44.4466 79.167 47.6074 77.6612 47.6074 77.6612C47.6074 77.6612 48.3172 80.388 47.828 82.917C47.3388 85.4507 44.2691 101.725 44.2691 101.725C39.4344 102.709 32 100.735 32 100.735C35.0793 95.2335 35.7699 83.4913 36.5613 81.0975Z" fill="url(#paint49_linear_71_350)"/>
<path d="M43.7231 53.6557L42.0271 60.5228C41.8622 61.1268 42.4756 61.0292 43.1561 60.9131C44.2695 60.7226 45.6975 60.3369 46.1769 59.5564C46.2233 59.4774 46.2491 59.3891 46.2645 59.2962L46.9914 54.5338C47.0481 54.1575 46.8213 53.7904 46.4346 53.6371L45.0273 53.0749C44.4861 52.8565 43.8571 53.1353 43.718 53.6557H43.7231Z" fill="url(#paint50_linear_71_350)"/>
<path d="M46.2736 47.2479C46.2736 47.2479 48.0169 48.3624 48.7691 51.2026C49.5212 54.0428 48.3009 55.0585 47.0506 54.9974C45.8004 54.9363 43.9923 54.5695 42.4232 52.5334C40.8542 50.4973 43.9873 45.8842 46.2736 47.2479Z" fill="url(#paint51_linear_71_350)"/>
<path d="M43.8713 51.532C43.8713 51.532 43.2714 47.0396 46.6362 47.7251L47.3157 48.5093C47.3157 48.5093 48.9652 46.4527 47.1423 44.8998C45.3193 43.3469 42.7887 43.7416 41.3875 46.5721C39.9864 49.4026 39.4802 51.3918 40.6518 53.1472C41.8234 54.9078 42.7091 53.3965 42.7091 53.3965C42.7091 53.3965 42.1701 51.8748 42.6153 51.2204C43.0605 50.566 43.6369 51.5995 43.6369 51.5995L43.8666 51.5268L43.8713 51.532Z" fill="#070707"/>
<path d="M44 51.9046C44 51.9046 43.6613 49.4177 42.4357 50.1274C41.2154 50.8372 42.8765 52.4523 43.5431 53L44 51.9046Z" fill="url(#paint52_linear_71_350)"/>
<path d="M63.209 46.818C63.233 47.0596 62.2975 47.2269 62 46.1905C62.0816 45.7397 62.2255 43.7692 62.5805 43.4624C64.4756 41.8311 67.8579 40 67.8579 40C68.2369 40.5577 67.7379 40.9295 67.7379 40.9295L66.0492 42.031C66.2267 42.598 66.481 43.0953 66.5097 43.7413C66.5337 44.2293 66.3466 44.708 66.0108 45.0798C65.675 45.4516 65.224 45.9303 64.8162 46.2974C64.0438 46.9853 63.1994 46.818 63.1994 46.818H63.209Z" fill="url(#paint53_linear_71_350)"/>
<path d="M64.2814 45.9959L63.9792 45.9047C64.0184 45.8343 64.964 44.1312 65.4229 43.779C65.5963 43.6464 65.6803 43.5304 65.6747 43.4392C65.6747 43.3895 65.6355 43.3398 65.5739 43.2901L63.9792 43.9199L63.2742 44.7362L63 44.6077L63.7498 43.7376L65.6187 43L65.7026 43.0497C65.8929 43.1657 65.988 43.2859 65.9992 43.4268C66.0104 43.5925 65.9041 43.7624 65.6579 43.9489C65.311 44.2141 64.55 45.5193 64.2814 46V45.9959Z" fill="url(#paint54_linear_71_350)"/>
<path d="M42.6246 81C42.6246 81 42.6446 81 42.6596 81L57.3454 80.9886C57.7102 80.9886 58 80.7681 58 80.4943C58 80.2206 57.7052 79.9962 57.3404 80L42.6546 80.0115C42.2898 80.0115 42 80.232 42 80.5057C42 80.7719 42.2748 80.9848 42.6246 81Z" fill="url(#paint55_linear_71_350)"/>
<path d="M70.0197 68H57.7738C56.8683 68 56.0479 68.5074 55.6627 69.3054L50 81H65.2174C65.7976 81 66.3229 80.6552 66.538 80.1281L70.9301 69.3054C71.1852 68.6798 70.71 68 70.0197 68Z" fill="url(#paint56_linear_71_350)"/>
<path d="M63.3645 74.195C63.6205 73.4071 63.4025 72.6293 62.8775 72.4576C62.3526 72.286 61.7195 72.7855 61.4635 73.5734C61.2075 74.3613 61.4255 75.1391 61.9505 75.3108C62.4754 75.4824 63.1085 74.9829 63.3645 74.195Z" fill="#EF7511"/>
<path d="M38.5842 64C36.6009 65.9506 34.0835 74.5912 35.3348 76.0313C36.4327 77.7122 40.1767 80 43.7426 80H49C46.7892 77.7122 45.2709 77.1343 43.4558 78.7333C42.0165 78.1361 40.152 75.8194 38.9106 74.7839C38.4209 74.3793 38.3072 73.6857 38.6336 73.1463C39.6228 71.5184 40.8642 69.8423 41.2549 68.2191C41.339 66.3167 39.8948 64.1397 38.5842 64.0048V64Z" fill="url(#paint57_linear_71_350)"/>
</g>
<defs>
<linearGradient id="paint0_linear_71_350" x1="15.5041" y1="95.6076" x2="286.279" y2="-156.67" gradientUnits="userSpaceOnUse">
<stop stop-color="#FF9B04"/>
<stop offset="1" stop-color="#FF931E"/>
</linearGradient>
<linearGradient id="paint1_linear_71_350" x1="76.2309" y1="18.5122" x2="76.9076" y2="27.4526" gradientUnits="userSpaceOnUse">
<stop stop-color="#FEBBBA"/>
<stop offset="1" stop-color="#FF928E"/>
</linearGradient>
<linearGradient id="paint2_linear_71_350" x1="76.0591" y1="22.5666" x2="76.8313" y2="13.3565" gradientUnits="userSpaceOnUse">
<stop stop-color="#FEBBBA"/>
<stop offset="1" stop-color="#FF928E"/>
</linearGradient>
<linearGradient id="paint3_linear_71_350" x1="78.2099" y1="21.9515" x2="78.907" y2="13.754" gradientUnits="userSpaceOnUse">
<stop stop-color="#FEBBBA"/>
<stop offset="1" stop-color="#FF928E"/>
</linearGradient>
<linearGradient id="paint4_linear_71_350" x1="73.2151" y1="21.5958" x2="73.8467" y2="13.361" gradientUnits="userSpaceOnUse">
<stop stop-color="#FEBBBA"/>
<stop offset="1" stop-color="#FF928E"/>
</linearGradient>
<linearGradient id="paint5_linear_71_350" x1="75.8831" y1="14.2934" x2="77.2017" y2="23.4397" gradientUnits="userSpaceOnUse">
<stop stop-color="#090056"/>
<stop offset="1" stop-color="#020039"/>
</linearGradient>
<linearGradient id="paint6_linear_71_350" x1="93.9968" y1="3.62724" x2="94.9365" y2="9.70117" gradientUnits="userSpaceOnUse">
<stop stop-color="#FF928E"/>
<stop offset="1" stop-color="#FED929"/>
</linearGradient>
<linearGradient id="paint7_linear_71_350" x1="94.7562" y1="15.3915" x2="96.9624" y2="6.01669" gradientUnits="userSpaceOnUse">
<stop stop-color="#FEBBBA"/>
<stop offset="1" stop-color="#FF928E"/>
</linearGradient>
<linearGradient id="paint8_linear_71_350" x1="98.034" y1="17.0708" x2="101.067" y2="6.84777" gradientUnits="userSpaceOnUse">
<stop stop-color="#FEBBBA"/>
<stop offset="1" stop-color="#FF928E"/>
</linearGradient>
<linearGradient id="paint9_linear_71_350" x1="97.9763" y1="4.41837" x2="98.7866" y2="10.2096" gradientUnits="userSpaceOnUse">
<stop stop-color="#FF928E"/>
<stop offset="1" stop-color="#FED929"/>
</linearGradient>
<linearGradient id="paint10_linear_71_350" x1="89.3136" y1="2.69157" x2="90.5629" y2="9.25194" gradientUnits="userSpaceOnUse">
<stop stop-color="#FF928E"/>
<stop offset="1" stop-color="#FED929"/>
</linearGradient>
<linearGradient id="paint11_linear_71_350" x1="96.1244" y1="23.457" x2="97.3636" y2="15.9383" gradientUnits="userSpaceOnUse">
<stop stop-color="#FEBBBA"/>
<stop offset="1" stop-color="#FF928E"/>
</linearGradient>
<linearGradient id="paint12_linear_71_350" x1="91.3814" y1="4.8903" x2="92.2227" y2="10.8431" gradientUnits="userSpaceOnUse">
<stop stop-color="#FF928E"/>
<stop offset="1" stop-color="#FED929"/>
</linearGradient>
<linearGradient id="paint13_linear_71_350" x1="96.3289" y1="5.21267" x2="97.0921" y2="10.8745" gradientUnits="userSpaceOnUse">
<stop stop-color="#FF928E"/>
<stop offset="1" stop-color="#FED929"/>
</linearGradient>
<linearGradient id="paint14_linear_71_350" x1="95.7904" y1="16.1916" x2="98.1257" y2="8.43569" gradientUnits="userSpaceOnUse">
<stop stop-color="#FEBBBA"/>
<stop offset="1" stop-color="#FF928E"/>
</linearGradient>
<linearGradient id="paint15_linear_71_350" x1="79.3325" y1="41.6783" x2="82.5677" y2="50.7599" gradientUnits="userSpaceOnUse">
<stop stop-color="#FEBBBA"/>
<stop offset="1" stop-color="#FF928E"/>
</linearGradient>
<linearGradient id="paint16_linear_71_350" x1="81.0908" y1="46.9137" x2="83.4998" y2="32.4874" gradientUnits="userSpaceOnUse">
<stop stop-color="#FEBBBA"/>
<stop offset="1" stop-color="#FF928E"/>
</linearGradient>
<linearGradient id="paint17_linear_71_350" x1="80.4982" y1="39.1715" x2="82.2808" y2="51.0156" gradientUnits="userSpaceOnUse">
<stop stop-color="#FEBBBA"/>
<stop offset="1" stop-color="#FF928E"/>
</linearGradient>
<linearGradient id="paint18_linear_71_350" x1="81.5024" y1="28.0146" x2="81.5024" y2="38.9049" gradientUnits="userSpaceOnUse">
<stop stop-color="#FF928E"/>
<stop offset="1" stop-color="#FED929"/>
</linearGradient>
<linearGradient id="paint19_linear_71_350" x1="87.4997" y1="27.7291" x2="87.4997" y2="38.739" gradientUnits="userSpaceOnUse">
<stop stop-color="#FF928E"/>
<stop offset="1" stop-color="#FED929"/>
</linearGradient>
<linearGradient id="paint20_linear_71_350" x1="76.5006" y1="27.4192" x2="76.5006" y2="38.559" gradientUnits="userSpaceOnUse">
<stop stop-color="#FF928E"/>
<stop offset="1" stop-color="#FED929"/>
</linearGradient>
<linearGradient id="paint21_linear_71_350" x1="107" y1="43" x2="109" y2="43" gradientUnits="userSpaceOnUse">
<stop stop-color="#FF9B04"/>
<stop offset="1" stop-color="#FF931E"/>
</linearGradient>
<linearGradient id="paint22_linear_71_350" x1="130.445" y1="-8.39427" x2="122.51" y2="8.90797" gradientUnits="userSpaceOnUse">
<stop stop-color="#FF928E"/>
<stop offset="1" stop-color="#FED929"/>
</linearGradient>
<linearGradient id="paint23_linear_71_350" x1="95.0049" y1="42" x2="101" y2="42" gradientUnits="userSpaceOnUse">
<stop stop-color="#FF9B04"/>
<stop offset="1" stop-color="#FF931E"/>
</linearGradient>
<linearGradient id="paint24_linear_71_350" x1="93.0028" y1="42.5026" x2="96.0013" y2="42.5026" gradientUnits="userSpaceOnUse">
<stop stop-color="#FF9B04"/>
<stop offset="1" stop-color="#FF931E"/>
</linearGradient>
<linearGradient id="paint25_linear_71_350" x1="101.995" y1="41.9948" x2="107.996" y2="41.9948" gradientUnits="userSpaceOnUse">
<stop stop-color="#FF9B04"/>
<stop offset="1" stop-color="#FF931E"/>
</linearGradient>
<linearGradient id="paint26_linear_71_350" x1="104.062" y1="29.9906" x2="101.383" y2="43.5674" gradientUnits="userSpaceOnUse">
<stop stop-color="#FEBBBA"/>
<stop offset="1" stop-color="#FF928E"/>
</linearGradient>
<linearGradient id="paint27_linear_71_350" x1="101.746" y1="34.1655" x2="104.064" y2="24.809" gradientUnits="userSpaceOnUse">
<stop stop-color="#FEBBBA"/>
<stop offset="1" stop-color="#FF928E"/>
</linearGradient>
<linearGradient id="paint28_linear_71_350" x1="103.334" y1="34.8295" x2="105.552" y2="25.016" gradientUnits="userSpaceOnUse">
<stop stop-color="#FEBBBA"/>
<stop offset="1" stop-color="#FF928E"/>
</linearGradient>
<linearGradient id="paint29_linear_71_350" x1="99.5464" y1="33.8962" x2="101.564" y2="23.9538" gradientUnits="userSpaceOnUse">
<stop stop-color="#FEBBBA"/>
<stop offset="1" stop-color="#FF928E"/>
</linearGradient>
<linearGradient id="paint30_linear_71_350" x1="101.826" y1="30.1203" x2="102.585" y2="36.4293" gradientUnits="userSpaceOnUse">
<stop stop-color="#090056"/>
<stop offset="1" stop-color="#020039"/>
</linearGradient>
<linearGradient id="paint31_linear_71_350" x1="100.13" y1="37.8909" x2="99.5912" y2="45.6639" gradientUnits="userSpaceOnUse">
<stop stop-color="#FF9B04"/>
<stop offset="1" stop-color="#FF931E"/>
</linearGradient>
<linearGradient id="paint32_linear_71_350" x1="104.145" y1="38.0358" x2="103.713" y2="45.3242" gradientUnits="userSpaceOnUse">
<stop stop-color="#FF9B04"/>
<stop offset="1" stop-color="#FF931E"/>
</linearGradient>
<linearGradient id="paint33_linear_71_350" x1="63.4905" y1="-45.2938" x2="54.5715" y2="-27.6933" gradientUnits="userSpaceOnUse">
<stop stop-color="#FF928E"/>
<stop offset="1" stop-color="#FED929"/>
</linearGradient>
<linearGradient id="paint34_linear_71_350" x1="65.0126" y1="-48.2978" x2="55.7919" y2="-30.1019" gradientUnits="userSpaceOnUse">
<stop stop-color="#FF928E"/>
<stop offset="1" stop-color="#FED929"/>
</linearGradient>
<linearGradient id="paint35_linear_71_350" x1="59.1364" y1="-35.3261" x2="51.5055" y2="-19.5786" gradientUnits="userSpaceOnUse">
<stop stop-color="#FF928E"/>
<stop offset="1" stop-color="#FED929"/>
</linearGradient>
<linearGradient id="paint36_linear_71_350" x1="61.6599" y1="-46.4362" x2="52.2427" y2="-29.01" gradientUnits="userSpaceOnUse">
<stop stop-color="#FF928E"/>
<stop offset="1" stop-color="#FED929"/>
</linearGradient>
<linearGradient id="paint37_linear_71_350" x1="69.0202" y1="-42.5263" x2="60.1012" y2="-24.9258" gradientUnits="userSpaceOnUse">
<stop stop-color="#FF928E"/>
<stop offset="1" stop-color="#FED929"/>
</linearGradient>
<linearGradient id="paint38_linear_71_350" x1="70.3234" y1="-45.0984" x2="61.1027" y2="-26.9024" gradientUnits="userSpaceOnUse">
<stop stop-color="#FF928E"/>
<stop offset="1" stop-color="#FED929"/>
</linearGradient>
<linearGradient id="paint39_linear_71_350" x1="65.1909" y1="-34.1044" x2="57.56" y2="-18.3569" gradientUnits="userSpaceOnUse">
<stop stop-color="#FF928E"/>
<stop offset="1" stop-color="#FED929"/>
</linearGradient>
<linearGradient id="paint40_linear_71_350" x1="67.487" y1="-43.4427" x2="58.0698" y2="-26.0165" gradientUnits="userSpaceOnUse">
<stop stop-color="#FF928E"/>
<stop offset="1" stop-color="#FED929"/>
</linearGradient>
<linearGradient id="paint41_linear_71_350" x1="76.5902" y1="-38.5179" x2="67.6712" y2="-20.9125" gradientUnits="userSpaceOnUse">
<stop stop-color="#FF928E"/>
<stop offset="1" stop-color="#FED929"/>
</linearGradient>
<linearGradient id="paint42_linear_71_350" x1="78.0818" y1="-41.467" x2="68.8611" y2="-23.2659" gradientUnits="userSpaceOnUse">
<stop stop-color="#FF928E"/>
<stop offset="1" stop-color="#FED929"/>
</linearGradient>
<linearGradient id="paint43_linear_71_350" x1="72.3091" y1="-28.7739" x2="64.6782" y2="-13.0264" gradientUnits="userSpaceOnUse">
<stop stop-color="#FF928E"/>
<stop offset="1" stop-color="#FED929"/>
</linearGradient>
<linearGradient id="paint44_linear_71_350" x1="74.801" y1="-39.6339" x2="65.3838" y2="-22.2077" gradientUnits="userSpaceOnUse">
<stop stop-color="#FF928E"/>
<stop offset="1" stop-color="#FED929"/>
</linearGradient>
<linearGradient id="paint45_linear_71_350" x1="56.823" y1="51.0905" x2="42.0991" y2="70.2978" gradientUnits="userSpaceOnUse">
<stop stop-color="#FEBBBA"/>
<stop offset="1" stop-color="#FF928E"/>
</linearGradient>
<linearGradient id="paint46_linear_71_350" x1="45.0175" y1="143.268" x2="38.3342" y2="67.9924" gradientUnits="userSpaceOnUse">
<stop stop-color="#FEBBBA"/>
<stop offset="1" stop-color="#FF928E"/>
</linearGradient>
<linearGradient id="paint47_linear_71_350" x1="32.6856" y1="144.15" x2="26.309" y2="68.9665" gradientUnits="userSpaceOnUse">
<stop stop-color="#FEBBBA"/>
<stop offset="1" stop-color="#FF928E"/>
</linearGradient>
<linearGradient id="paint48_linear_71_350" x1="-224.075" y1="-464.134" x2="-215.123" y2="-446.497" gradientUnits="userSpaceOnUse">
<stop stop-color="#FF928E"/>
<stop offset="1" stop-color="#FED929"/>
</linearGradient>
<linearGradient id="paint49_linear_71_350" x1="27.0789" y1="68.7182" x2="42.9857" y2="94.0057" gradientUnits="userSpaceOnUse">
<stop stop-color="#FF9B04"/>
<stop offset="1" stop-color="#FF931E"/>
</linearGradient>
<linearGradient id="paint50_linear_71_350" x1="46.0635" y1="67.8499" x2="45.0255" y2="59.4298" gradientUnits="userSpaceOnUse">
<stop stop-color="#FEBBBA"/>
<stop offset="1" stop-color="#FF928E"/>
</linearGradient>
<linearGradient id="paint51_linear_71_350" x1="47.7078" y1="57.5591" x2="41.5645" y2="37.6959" gradientUnits="userSpaceOnUse">
<stop stop-color="#FEBBBA"/>
<stop offset="1" stop-color="#FF928E"/>
</linearGradient>
<linearGradient id="paint52_linear_71_350" x1="45.8361" y1="59.7439" x2="37.9489" y2="36.5625" gradientUnits="userSpaceOnUse">
<stop stop-color="#FEBBBA"/>
<stop offset="1" stop-color="#FF928E"/>
</linearGradient>
<linearGradient id="paint53_linear_71_350" x1="59.1094" y1="51.2292" x2="45.7748" y2="70.2555" gradientUnits="userSpaceOnUse">
<stop stop-color="#FEBBBA"/>
<stop offset="1" stop-color="#FF928E"/>
</linearGradient>
<linearGradient id="paint54_linear_71_350" x1="63" y1="44.4959" x2="65.9992" y2="44.4959" gradientUnits="userSpaceOnUse">
<stop stop-color="#FEBBBA"/>
<stop offset="1" stop-color="#FF928E"/>
</linearGradient>
<linearGradient id="paint55_linear_71_350" x1="42" y1="80.4981" x2="58.005" y2="80.4981" gradientUnits="userSpaceOnUse">
<stop stop-color="#CCCCCC"/>
<stop offset="1" stop-color="white"/>
</linearGradient>
<linearGradient id="paint56_linear_71_350" x1="50" y1="74.5025" x2="70.9952" y2="74.5025" gradientUnits="userSpaceOnUse">
<stop stop-color="#CCCCCC"/>
<stop offset="1" stop-color="white"/>
</linearGradient>
<linearGradient id="paint57_linear_71_350" x1="23.8061" y1="80.1445" x2="49.1406" y2="69.2578" gradientUnits="userSpaceOnUse">
<stop stop-color="#FEBBBA"/>
<stop offset="1" stop-color="#FF928E"/>
</linearGradient>
<clipPath id="clip0_71_350">
<rect width="112" height="127" fill="white"/>
</clipPath>
</defs>
</svg>
