<svg width="156" height="112" viewBox="0 0 156 112" fill="none" xmlns="http://www.w3.org/2000/svg">
<path d="M36.3837 50H23.6163C22.7237 50 22 50.7224 22 51.6134V106.387C22 107.278 22.7237 108 23.6163 108H36.3837C37.2763 108 38 107.278 38 106.387V51.6134C38 50.7224 37.2763 50 36.3837 50Z" fill="url(#paint0_linear_71_244)"/>
<path d="M77.1818 44H64.6108C63.7293 44 63 44.8584 63 45.8572V107.08C63 108.079 63.7293 109 64.6108 109H77.1818C78.0632 109 79 108.079 79 107.08V45.8572C79 44.8575 78.0623 44 77.1818 44Z" fill="url(#paint1_linear_71_244)"/>
<path d="M56.3837 32H43.6163C42.7237 32 42 32.7217 42 33.6119V106.388C42 107.278 42.7237 108 43.6163 108H56.3837C57.2763 108 58 107.278 58 106.388V33.6119C58 32.7217 57.2763 32 56.3837 32Z" fill="url(#paint2_linear_71_244)"/>
<path d="M124.485 0H112.515C111.678 0 111 0.765441 111 1.70966V106.29C111 107.235 111.678 108 112.515 108H124.485C125.322 108 126 107.235 126 106.29V1.70966C126 0.765441 125.322 0 124.485 0Z" fill="url(#paint3_linear_71_244)"/>
<path d="M101.384 14H88.6163C87.7237 14 87 14.773 87 15.7266V106.273C87 107.227 87.7237 108 88.6163 108H101.384C102.276 108 103 107.227 103 106.273V15.7266C103 14.773 102.276 14 101.384 14Z" fill="url(#paint4_linear_71_244)"/>
<path d="M99 97.866L128.088 41.3182H122.128C121.029 41.3182 120.425 40.0217 121.122 39.1595L152.123 0.817151C153.467 -0.844666 156.121 0.208922 155.996 2.35475L153.817 39.8487C153.692 41.9954 151.816 43.5947 149.712 43.3499L145.557 42.8678L116.697 106.292C115.945 107.943 114.316 109 112.525 109H102.522L99.0009 97.8651L99 97.866Z" fill="url(#paint5_linear_71_244)"/>
<path d="M74 58.0175L94.6602 104.478C95.8836 107.23 98.5877 109 101.569 109H112.22C113.633 109 114.935 108.224 115.621 106.973L116 106.282C114.856 106.282 113.808 105.633 113.288 104.601L85.7606 50L74.0009 58.0193L74 58.0175Z" fill="url(#paint6_linear_71_244)"/>
<path d="M89 55.8962C86.9138 54.2426 83.8658 54.7286 82.3932 56.9503L51.8063 103.085C49.3563 106.78 45.228 109 40.8066 109H36.5028L33 98.8702C33 98.8702 61.4354 55.0994 68.7643 48.4778C68.7643 48.4778 76.0629 41.8737 83.2594 46.8666C85.161 48.1854 86.6042 50.0686 87.4861 52.2128L89 55.8962Z" fill="url(#paint7_linear_71_244)"/>
<path d="M0 71.3828C0 71.3828 5.11322 64.9932 15.0204 64C15.0204 64 19.7264 65.6031 29.1006 82.3973C38.4748 99.1915 44.698 106.85 52 102.667L51.3955 103.671C49.403 106.978 45.8236 109 41.9625 109H37.9244C33.4781 109 29.3042 106.863 26.7073 103.254C19.4108 93.1138 4.48301 72.9584 0.00091823 71.3837L0 71.3828Z" fill="url(#paint8_linear_71_244)"/>
<path d="M152.377 14C152.363 14 152.348 14 152.334 13.9985C152.127 13.9828 151.979 13.8552 152.002 13.714L152.249 12.2283C152.272 12.0871 152.459 11.9841 152.666 12.002C152.873 12.0177 153.021 12.1454 152.998 12.2865L152.751 13.7723C152.729 13.9037 152.566 14 152.378 14H152.377Z" fill="white"/>
<path d="M126.317 38C126.249 38 126.181 37.9787 126.124 37.9341C125.985 37.8264 125.959 37.626 126.066 37.4867L152.006 3.44025C152.314 3.03557 152.836 2.89264 153.304 3.08384C153.773 3.27504 154.05 3.74468 153.993 4.25145L153.535 8.33254C153.516 8.50796 153.359 8.63419 153.185 8.61377C153.011 8.59428 152.887 8.43556 152.907 8.26014L153.364 4.17905C153.394 3.90896 153.231 3.7419 153.067 3.67507C152.904 3.60824 152.671 3.61381 152.507 3.82914L126.566 37.8756C126.504 37.9573 126.41 38 126.316 38H126.317Z" fill="white"/>
<path d="M68.3224 72C68.2605 72 68.1977 71.9829 68.1424 71.9469C67.9942 71.8514 67.9558 71.6588 68.0551 71.5165L81.7449 52.0318C82.2409 51.326 83.0642 50.9415 83.9503 51.0072C84.8354 51.0712 85.5902 51.5699 85.969 52.3397C86.045 52.4946 85.9765 52.6791 85.8153 52.7521C85.654 52.8259 85.4618 52.7593 85.3858 52.6044C85.1064 52.0381 84.5513 51.6717 83.9015 51.6249C83.2498 51.5771 82.645 51.8589 82.2803 52.3784L68.5906 71.8631C68.5277 71.9523 68.4265 72 68.3224 72Z" fill="white"/>
<path d="M64.2116 78C64.171 78 64.1298 77.9817 64.0934 77.9432C63.9962 77.8411 63.971 77.635 64.0362 77.4829L64.6123 76.1462C64.6782 75.994 64.8093 75.9546 64.9066 76.0566C65.0038 76.1587 65.029 76.3648 64.9638 76.517L64.3877 77.8536C64.3464 77.949 64.2799 78 64.2116 78Z" fill="white"/>
<path d="M16.1592 106.529C16.1592 106.529 16.0456 107.241 16.0011 108.087C15.9819 108.447 16.2177 108.759 16.5356 108.795C17.6414 108.916 20.1587 109.14 21.7659 108.878C21.9912 108.841 22.0803 108.528 21.9144 108.353C21.2514 107.655 19.6513 106.297 17.0169 106L16.1601 106.53L16.1592 106.529Z" fill="url(#paint9_linear_71_244)"/>
<path d="M15 105.526L15.5856 106.745C15.6661 106.912 15.8655 107.016 16.0769 106.998C16.2205 106.985 16.3898 106.962 16.5554 106.919C16.8857 106.834 17.0724 106.536 16.9736 106.256L16.5316 105L15 105.527V105.526Z" fill="url(#paint10_linear_71_244)"/>
<path d="M5.11529 108.001C5.11529 108.001 6.44624 108.998 6.96429 110.277C7.10652 110.629 6.80545 111 6.38707 111H3.64834C3.24761 111 2.94031 110.677 3.00986 110.323C3.18428 109.44 3.68779 108.004 5.11425 108L5.11529 108.001Z" fill="url(#paint11_linear_71_244)"/>
<path d="M3 107.171C3 107.171 3.26348 108.178 3.46592 108.842C3.50254 108.963 3.65209 109.029 3.7884 108.987C4.1943 108.862 4.52492 108.806 4.76501 108.835C4.87589 108.848 4.97253 108.768 4.97457 108.671L5 107L3.00102 107.171H3Z" fill="url(#paint12_linear_71_244)"/>
<path d="M9.75788 83.6573L17 104.975C17 104.975 15.6114 105.852 14.9491 105.816L6.34721 88.6841C6.34721 88.6841 4.84157 99.2397 5.57163 106.819L3.10743 107C3.10743 107 -0.898629 87.6338 2.13587 81L9.75788 83.6573Z" fill="url(#paint13_linear_71_244)"/>
<path d="M6.0699 87.9992C6.0699 87.9992 6.06429 87.9992 6.06149 87.9992C6.02315 87.9953 5.99511 87.9655 6.00072 87.9334L6.28402 86.0514C6.28869 86.0192 6.32422 85.9965 6.36256 86.0004C6.40089 86.0044 6.42894 86.0341 6.42333 86.0663L6.14003 87.9483C6.13535 87.9781 6.10543 88 6.0699 88V87.9992Z" fill="url(#paint14_linear_71_244)"/>
<path d="M10.8896 64C10.8896 64 4.97182 64.5165 5.80932 68.6602C5.80932 68.6602 2.53799 74.7097 1.00912 81.8363C0.959473 82.0683 1.11779 82.2947 1.35481 82.3343L11.21 83.9924C11.4817 84.0384 11.744 83.8718 11.8133 83.6094L14.1675 74.6664L15.0847 78.824L18 78.0773L15.5456 65.8597C15.5456 65.8597 15.2036 64.0773 10.8896 64Z" fill="url(#paint15_linear_71_244)"/>
<path d="M14.0762 75C14.0704 75 14.0655 75 14.0597 74.9981C14.0191 74.9895 13.993 74.9493 14.0017 74.9091L14.8503 71.059C14.859 71.0189 14.8987 70.993 14.9403 71.0017C14.9809 71.0103 15.007 71.0504 14.9983 71.0906L14.1497 74.9407C14.142 74.9761 14.111 75 14.0752 75H14.0762Z" fill="url(#paint16_linear_71_244)"/>
<path d="M14.0579 85.6687C13.7625 85.4936 13.4162 85.4445 13.0886 85.533L12.4353 85.7082C12.2961 85.7458 12.1586 85.6428 12.1425 85.4887L11.4669 79C10.6217 79.4332 9.40252 79.3812 9 79.3494L10.5557 87H16L14.0579 85.6697V85.6687Z" fill="url(#paint17_linear_71_244)"/>
<path d="M29 72.1654L28.8241 71.6082C28.7228 71.2874 28.4733 71.0284 28.1474 70.9039L24.9597 69.685C24.9597 69.685 24.9119 69.2961 25.6336 69.0325C26.3552 68.768 26.186 68 26.186 68C26.186 68 25.2006 68.4272 23.7573 69.1061C22.9315 69.4942 22.4688 70.1786 22.2232 70.6939L15 79.0665L15.8478 79.6209C16.9633 80.3498 18.4964 79.9917 19.1301 78.8547L23.0433 71.72C25.0075 72.2808 26.9956 72.388 29 72.1663V72.1654Z" fill="url(#paint18_linear_71_244)"/>
<path d="M12.9651 60.0591L11 65.0897C11 65.0897 12.7396 66.334 14.0099 65.9131L15 63.0296C15 63.0296 14.2435 59.505 12.9651 60.0591Z" fill="url(#paint19_linear_71_244)"/>
<path d="M19 59.0178C19 59.0967 17.0609 64 17.0609 64L14 62.9355L15.0773 58.0397C15.0773 58.0397 18.999 57.6984 18.999 59.0168L19 59.0178Z" fill="url(#paint20_linear_71_244)"/>
<path d="M14.9846 58.8309L14.1817 61.2836C14.1711 61.3154 14.1659 61.3463 14.1659 61.3791C14.1659 61.5791 14.2228 62.2676 15.0352 62.1739C15.7729 62.0893 16.4473 62.0211 16.8761 62.1948C17.069 62.273 17.1606 62.464 17.089 62.6368C16.9099 63.0678 16.4852 64.0318 15.9678 64.8212C15.8624 64.9813 15.6327 65.044 15.4388 64.9676C14.854 64.7384 13.6369 64.2237 12.7696 63.6126C12.6516 63.5298 12.5958 63.3998 12.6232 63.2706C12.7591 62.6432 13.1659 60.7343 13.1838 60.1877C13.2006 59.6739 12.5326 59.2829 12.2396 59.1355C12.1437 59.0873 12.0752 59.0073 12.0489 58.9145C11.9562 58.5844 11.8782 57.836 12.9836 57.6714C13.2154 57.6368 13.3661 57.4458 13.3187 57.2476C13.2249 56.852 13.2554 56.2709 14.1248 56.0562C15.0089 55.8389 15.5653 56.2972 15.8477 56.6501C15.9625 56.7929 16.1764 56.8383 16.3598 56.7683C16.4641 56.7283 16.5906 56.7265 16.7254 56.8247C16.9077 56.9575 17.1859 56.9175 17.3198 56.7465C17.5779 56.4191 18.0458 56.0926 18.8382 56.3136C20.245 56.7065 20.1776 58.1061 19.6623 58.8673C19.147 59.6284 17.6496 59.1273 16.9415 58.6235C16.403 58.2398 15.5821 58.4698 15.2196 58.6017C15.1048 58.6435 15.0194 58.7281 14.9857 58.8318L14.9846 58.8309Z" fill="url(#paint21_linear_71_244)"/>
<path d="M13.4288 60.983C13.4288 60.983 14.4398 59.6563 13.7718 59.239C13.1037 58.8225 11.9711 58.89 12.0006 59.9281C12.039 61.2193 13.4288 60.983 13.4288 60.983Z" fill="url(#paint22_linear_71_244)"/>
<path d="M8.72638 80C8.35092 80 8.08262 79.9696 8.05387 79.9669L8.00509 79.9613L6.00151 70.0874C5.99367 70.0487 6.01719 70.01 6.05378 70.0017C6.09123 69.9934 6.12695 70.0183 6.13479 70.057L8.11746 79.8287C8.41539 79.8564 10.0078 79.9678 10.8484 79.3389L9.11228 70.7604L9.47467 70.0386C9.49209 70.0036 9.5339 69.9898 9.56701 70.0082C9.60011 70.0266 9.61318 70.0708 9.59488 70.1058L9.25602 70.7807L11 79.3988L10.9652 79.4264C10.358 79.9088 9.37972 80 8.7255 80H8.72638Z" fill="url(#paint23_linear_71_244)"/>
<path d="M11.4354 112C11.3777 112 11.3201 111.988 11.2634 111.963C11.0424 111.864 10.9405 111.598 11.0356 111.368L20.1648 89.2744C20.26 89.0444 20.5156 88.938 20.7366 89.037C20.9576 89.136 21.0595 89.4027 20.9644 89.6328L11.8352 111.726C11.7641 111.897 11.6036 112 11.4354 112Z" fill="#070707"/>
<path d="M21.5646 112C21.3955 112 21.235 111.897 21.1648 111.726L12.0356 89.6328C11.9405 89.4027 12.0424 89.136 12.2634 89.037C12.4844 88.938 12.74 89.0444 12.8352 89.2744L21.9644 111.368C22.0595 111.598 21.9576 111.864 21.7366 111.963C21.6809 111.988 21.6223 112 21.5646 112Z" fill="#070707"/>
<path d="M48.4354 112C48.3777 112 48.3201 111.988 48.2634 111.963C48.0424 111.864 47.9405 111.598 48.0356 111.368L57.1648 89.2744C57.26 89.0444 57.5156 88.938 57.7366 89.037C57.9576 89.136 58.0595 89.4027 57.9644 89.6328L48.8352 111.726C48.7641 111.897 48.6036 112 48.4354 112Z" fill="#070707"/>
<path d="M58.5646 112C58.3955 112 58.235 111.897 58.1648 111.726L49.0356 89.6328C48.9405 89.4027 49.0424 89.136 49.2634 89.037C49.4844 88.938 49.74 89.0444 49.8352 89.2744L58.9644 111.368C59.0595 111.598 58.9576 111.864 58.7366 111.963C58.6809 111.988 58.6223 112 58.5646 112Z" fill="#070707"/>
<path d="M44 98H43V109H44V98Z" fill="url(#paint24_linear_71_244)"/>
<path d="M48 109H39V108.927C39 108.414 39.2781 108 39.6203 108H47.3304C47.6999 108 47.9991 108.447 47.9991 109H48Z" fill="url(#paint25_linear_71_244)"/>
<path d="M47.9257 95H39.0743C38.481 95 38 95.4625 38 96.0331V96.9669C38 97.5375 38.481 98 39.0743 98H47.9257C48.519 98 49 97.5375 49 96.9669V96.0331C49 95.4625 48.519 95 47.9257 95Z" fill="url(#paint26_linear_71_244)"/>
<path d="M36.4764 90.0009C36.4764 90.0009 35.0135 90.2348 33.3683 91.3673C33.1097 91.5452 32.9677 91.8568 33.0063 92.1747C33.2035 93.7822 34.0134 98.9851 36.6833 104.067C36.8244 104.335 36.8647 104.647 36.8025 104.945L36.3388 107.169L35.478 108H37.6939L39.1691 103.885L38.538 103.679C38.0489 103.521 37.7132 103.056 37.7044 102.528L37.6308 98.1145C37.6939 96.1484 36.4606 94.7919 36.4606 94.7919L40 94.6149L36.4755 90L36.4764 90.0009Z" fill="url(#paint27_linear_71_244)"/>
<path d="M34.012 108.648C33.8122 108.915 36.1638 109.268 37.3527 108.683C37.3527 108.683 39 105.755 39 104.248C39 104.248 38.8689 103.941 37.9024 104.01C37.9024 104.01 37.3492 107.477 36.7656 107.865C36.1812 108.254 35.1313 107.904 35.1313 107.904C35.1313 107.904 34.3081 108.253 34.0128 108.648H34.012Z" fill="url(#paint28_linear_71_244)"/>
<path d="M40 95.3254C39.9801 95.2917 35.873 94.8519 35.873 94.8519C35.873 94.8519 36.0078 96.0493 35.5873 97.6984C35.1676 99.3476 29.1371 106.49 29.1371 106.49L29.7694 108.413C27.8146 109.066 25.8921 109.17 24 108.746L27.9181 106.49C27.9181 106.49 31.5846 94.504 33.8309 92.3659L37.9474 91L40 95.3254Z" fill="url(#paint29_linear_71_244)"/>
<path d="M48.5461 88.0009C48.5461 88.0009 50.7899 91.2441 50.9745 92.7235C51.1591 94.203 50.3595 94.804 48.0049 94.9029C45.6504 95.0017 39.3646 95 39.3646 95L34 90.5451C34 90.5451 37.9096 89.1899 38.9261 88.8058C39.9427 88.4226 48.5461 88 48.5461 88V88.0009Z" fill="url(#paint30_linear_71_244)"/>
<path d="M29.6204 107.001C29.6204 107.001 30.2995 107.65 29.8411 108.374C29.8411 108.374 24.4607 109.316 23 108.889C23 108.889 23.3031 108.205 24.9485 107.426L24.8272 107.518C24.6738 107.634 24.7638 107.877 24.957 107.866C26.0407 107.805 28.2838 107.608 29.6204 107V107.001Z" fill="url(#paint31_linear_71_244)"/>
<path d="M44.4687 68.006C44.8162 68.1114 46.0673 68.551 45.906 69.3374C45.8848 69.4419 45.9852 69.5302 46.0903 69.5022C46.6297 69.3608 47.8208 69.1816 48.5592 70.086C49.211 70.8841 48.7243 71.6371 48.3269 72.0506C48.231 72.1506 48.3112 72.3127 48.4505 72.2956C49.4415 72.1731 51.596 72.1443 51.9482 74.1161C52.2764 75.9546 50.9673 76.4735 50.1901 76.6194C50.0583 76.6437 50.0279 76.8131 50.1413 76.8833C50.5285 77.1239 50.9774 77.6202 50.7967 78.5993C50.5128 80.1352 47.4317 80.0091 47.0713 79.9893C47.0482 79.9884 47.027 79.9812 47.0067 79.9704L42.0717 77.2202C42.033 77.1986 42.0062 77.1617 41.9989 77.1194L41.0023 71.4975C40.994 71.4525 41.0087 71.4056 41.0419 71.3723L44.3184 68.0448C44.3571 68.0051 44.4152 67.9898 44.4687 68.0069V68.006Z" fill="url(#paint32_linear_71_244)"/>
<path d="M43.0022 86.9991C43.0022 86.9991 40.1836 84.5309 38.7957 82.8968C38.0459 82.0136 37.8099 80.8501 38.1566 79.7758C38.7899 77.8139 39.9156 75.7815 40.0185 75.4645C40.1759 74.9796 43.3363 75.0001 43.3363 75.0001C43.3363 75.0001 49.5563 78.7114 52 84.9979L49.2552 85.7838C49.2552 85.7838 47.6313 83.2789 46.0267 81.6868C46.0267 81.6868 48.8036 85.0587 48.9007 86.4392L43.0013 87L43.0022 86.9991Z" fill="#FFD506"/>
<path d="M39 72.3795C39.0279 72.4771 39.7242 74.9113 39.7791 74.9614C39.8332 75.0116 41.307 75.0954 42 74.5958L40.8239 72L39 72.3786V72.3795Z" fill="url(#paint33_linear_71_244)"/>
<path d="M40.6469 67.0861C40.6469 67.0861 39.3259 67.6937 38.4272 69.7746C37.5285 71.8555 38.1998 72.8161 39.0425 72.9476C39.8852 73.079 41.1458 73.0593 42.4788 71.7155C43.8117 70.3718 42.365 66.3649 40.6469 67.0861Z" fill="url(#paint34_linear_71_244)"/>
<path d="M41.6915 70.8115C41.6915 70.8115 42.84 67.5705 39.9871 67.5325L39.316 68.0053C39.316 68.0053 38.2688 66.2089 39.9871 65.3511C41.7054 64.4934 43.7165 65.2021 44.4471 67.5335C45.1787 69.8648 45.3028 71.4253 44.0868 72.54C42.8708 73.6557 42.3695 72.3911 42.3695 72.3911C42.3695 72.3911 43.0316 71.3484 42.7626 70.7895C42.4935 70.2307 41.8711 70.9045 41.8711 70.9045L41.6925 70.8115H41.6915Z" fill="url(#paint35_linear_71_244)"/>
<path d="M42 71.1711C42 71.1711 42.3669 69.4872 42.8561 70.1578C43.3453 70.8283 42.4585 71.7136 42.111 72L42 71.1711Z" fill="url(#paint36_linear_71_244)"/>
<path d="M37 87.0857L39.02 85.3334L41.8149 86.3958C41.8149 86.3958 44.5967 86.7838 46.1893 86.3958L47.782 86.0079L51.3804 85L51.9451 86.4376C52.0881 86.8026 51.9451 87.2076 51.5936 87.4319C51.2819 87.6305 50.9171 87.8497 50.685 87.9409C50.2112 88.1276 39.0048 87.8121 39.0048 87.8121L37.0009 87.0865L37 87.0857Z" fill="url(#paint37_linear_71_244)"/>
<path d="M44.5316 88C44.5236 88 44.5147 88 44.5067 88L33.4924 87.9875C33.2199 87.9875 33 87.7663 33 87.4934C33 87.2204 33.2217 86.9947 33.4933 87.0001L44.5076 87.0117C44.7801 87.0117 45 87.2329 45 87.5059C45 87.7699 44.7925 87.9857 44.5316 87.9982V88Z" fill="url(#paint38_linear_71_244)"/>
<path d="M22.7466 78H32.0776C32.7661 78 33.3929 78.3911 33.6864 79.0032L38 88H26.4035C25.9596 88 25.561 87.7336 25.398 87.3273L22.0527 79.0023C21.8598 78.5212 22.2203 78 22.7457 78H22.7466Z" fill="url(#paint39_linear_71_244)"/>
<path d="M29.886 82.8059C30.1418 83.348 29.9525 83.8738 29.4639 83.9808C28.9742 84.0879 28.3697 83.7355 28.114 83.1941C27.8582 82.652 28.0475 82.1262 28.5361 82.0192C29.0258 81.9121 29.6291 82.2645 29.886 82.8059Z" fill="#070707"/>
<path d="M21 88H10V87H21C20.7642 87 20.7642 88 21 88Z" fill="url(#paint40_linear_71_244)"/>
<path d="M10.2492 88.6877C10.1973 88.6877 10.1548 88.6384 10.1548 88.5781V87.4208C10.1548 87.3606 10.1973 87.3112 10.2492 87.3112H21.9056C21.9575 87.3112 22 87.2619 22 87.2017V87.1096C22 87.0493 21.9575 87 21.9056 87H9.49666C9.22284 87 9 87.2575 9 87.5764V88.4564C9 88.7567 9.20962 89 9.46833 89H21.9056C21.9575 89 22 88.9507 22 88.8904V88.7984C22 88.7381 21.9575 88.6888 21.9056 88.6888H10.2492V88.6877Z" fill="url(#paint41_linear_71_244)"/>
<path d="M59.9909 88.4857C60.0192 88.3662 59.9808 88.2424 59.8849 88.1485C59.7889 88.0546 59.6463 88 59.4964 88H8.57937C8.38195 88 8.19733 88.0819 8.09131 88.2168C7.98438 88.3517 7.97067 88.5216 8.05384 88.6675L8.60587 89.6364C8.73199 89.8583 9.00618 90 9.30687 90H59.1482C59.4288 90 59.6692 89.8387 59.7222 89.6159L59.9918 88.4866L59.9909 88.4857Z" fill="url(#paint42_linear_71_244)"/>
<path d="M87.6494 96C87.3547 96.4538 86.1839 106.733 86.0006 110.529C85.988 110.786 86.1857 111 86.4319 111C86.6448 111 86.8264 110.838 86.8587 110.619L89 96.3266L87.6485 96H87.6494Z" fill="#FFD506"/>
<path d="M97.3506 96C97.6453 96.4538 98.8161 106.733 98.9994 110.529C99.012 110.786 98.8143 111 98.5681 111C98.3552 111 98.1745 110.838 98.1413 110.619L96 96.3266L97.3515 96H97.3506Z" fill="#FFD506"/>
<path d="M86.0009 95.3557V95.46C85.9928 96.2095 86.662 96.8241 87.5009 96.8372L97.4378 96.9998C98.264 97.0137 98.9531 96.4372 98.9928 95.7L98.9982 95.6043C99.0397 94.8349 98.3623 94.1872 97.5 94.1724L87.5586 94.0003C86.708 93.9855 86.0072 94.5941 86 95.3548L86.0009 95.3557Z" fill="url(#paint43_linear_71_244)"/>
<path d="M104.814 109.557C103.099 109.557 102.339 109.266 102 109C102.066 109.559 102.317 110 102.634 110H108.705C108.909 110 109.039 109.613 108.99 109.26C108.297 109.372 106.828 109.557 104.815 109.557H104.814Z" fill="url(#paint44_linear_71_244)"/>
<path d="M109 109.829C108.99 109.788 108.975 109.748 108.95 109.711C108.488 109.038 107.56 107.98 106.298 108C104.448 108.03 103.804 108.259 102.366 108.013L102.027 109.296C101.993 109.427 101.992 109.558 102.017 109.679C102.356 109.832 103.115 110 104.829 110C106.84 110 108.308 109.892 108.999 109.829H109Z" fill="url(#paint45_linear_71_244)"/>
<path d="M102.439 107L102 108.738C102 108.738 102.974 109.252 103.832 108.84L104 107.334L102.44 107H102.439Z" fill="url(#paint46_linear_71_244)"/>
<path d="M116.096 109.094C114.912 110.312 114.308 110.721 114 110.844C114.201 111.044 114.497 111.062 114.716 110.837L118.902 106.53C119.043 106.385 119.024 106.121 118.893 106C118.447 106.54 117.485 107.665 116.097 109.093L116.096 109.094Z" fill="url(#paint47_linear_71_244)"/>
<path d="M119 106.2C118.971 106.175 118.939 106.155 118.899 106.145C118.191 105.956 116.924 105.801 115.977 106.705C114.589 108.029 114.221 108.659 113 109.482L113.424 110.701C113.468 110.825 113.537 110.925 113.62 111C113.96 110.878 114.624 110.473 115.925 109.266C117.451 107.85 118.508 106.735 118.999 106.2H119Z" fill="url(#paint48_linear_71_244)"/>
<path d="M93.9795 90C93.9795 90 104.258 90.8474 106.366 91.8507C108.475 92.853 104.646 106.906 104.646 106.906C104.646 106.906 104.071 107.185 102.794 106.783C102.794 106.783 104.104 96.4135 103.129 94.1644L92 92.3262L93.9786 90H93.9795Z" fill="url(#paint49_linear_71_244)"/>
<path d="M112 107.71C112.084 107.812 112.903 110 112.903 110C112.903 110 113.814 109.739 114 108.975L113.18 107L112 107.711V107.71Z" fill="url(#paint50_linear_71_244)"/>
<path d="M87.3267 90C87.3267 90 86.987 90.8506 87.0004 91.9816C87.0199 93.5457 88.2272 94.8146 89.7279 94.8924L102.05 95.4773C102.311 95.4893 102.53 95.6772 102.596 95.9401C102.886 97.1063 104.301 100.687 111.22 107.832C111.404 108.022 111.691 108.054 111.909 107.911L112.894 107.263C112.998 107.195 113.031 107.054 112.969 106.944L105.794 94.188C105.417 93.5402 104.812 93.0728 104.107 92.8858L93.6039 90.0907L87.3258 90H87.3267Z" fill="url(#paint51_linear_71_244)"/>
<path d="M102.056 71C102.056 71 98.4125 73.171 97 74.3633L99.9193 76C99.9193 76 101.497 74.1693 103 73.4063L102.056 71Z" fill="url(#paint52_linear_71_244)"/>
<path d="M87.0009 90.629C87.0009 90.629 90.3504 91.4637 93.5477 90.629C93.5477 90.629 98.0215 84.4796 99.7517 82.8065C99.7517 82.8065 102.512 87.261 108.657 87.8916L109 87.1081C109 87.1081 104.108 84.8026 102.602 81.2598C101.095 77.7169 100.491 76.2059 99.1207 75.2815C98.2676 74.7058 97.7565 74.3122 97.4925 74.0981C97.3475 73.9809 97.1487 73.9672 96.9903 74.0651C95.5367 74.9712 88.6944 79.7625 87 90.6281L87.0009 90.629Z" fill="url(#paint53_linear_71_244)"/>
<path d="M99.9197 82C99.9366 82 99.9545 81.9956 99.9684 81.9852C100.004 81.9616 100.01 81.9172 99.9833 81.8858C98.8273 80.5634 98.1634 79.0605 98.1564 79.0456C98.1405 79.009 98.0938 78.9907 98.052 79.0047C98.0103 79.0186 97.9894 79.0596 98.0053 79.0962C98.0123 79.111 98.6842 80.6331 99.8551 81.9721C99.871 81.9904 99.8949 82 99.9197 82Z" fill="url(#paint54_linear_71_244)"/>
<path d="M108 86.541L108.648 86.3975L110.616 86.0194C110.853 85.9741 111.102 86.0089 111.308 86.1162L113 87L108.327 86.9937L108 86.541Z" fill="url(#paint55_linear_71_244)"/>
<path d="M107.429 88C107.437 88 107.445 88 107.452 88L117.549 87.9888C117.798 87.9888 118 87.7665 118 87.494C118 87.2205 117.796 86.9954 117.548 87.0001L107.451 87.0112C107.202 87.0112 107 87.2335 107 87.5061C107 87.7712 107.191 87.987 107.429 88Z" fill="url(#paint56_linear_71_244)"/>
<path d="M122.174 77.2638C122.171 77.2712 122.168 77.2786 122.164 77.287L118.041 87.2982C117.939 87.5458 118.034 87.8388 118.253 87.9538C118.473 88.0688 118.738 87.9621 118.836 87.7127L122.959 77.7015C123.061 77.4539 122.966 77.1609 122.747 77.0459C122.534 76.9346 122.283 77.0329 122.175 77.2638H122.174Z" fill="url(#paint57_linear_71_244)"/>
<path d="M112.149 89C112.098 89.192 107.256 105.821 106.029 110.037C105.888 110.523 106.282 111 106.825 111C107.204 111 107.534 110.761 107.626 110.421L113 90.4652L112.149 89Z" fill="#070707"/>
<path d="M113.851 89C113.902 89.192 118.744 105.821 119.971 110.037C120.112 110.523 119.718 111 119.175 111C118.796 111 118.466 110.761 118.374 110.421L113 90.4652L113.851 89Z" fill="#070707"/>
<path d="M115 89H112V91.1605C112 91.471 112.277 91.7223 112.62 91.7223H113.031V96.5747C113.031 96.8095 113.241 97 113.5 97C113.758 97 113.968 96.8095 113.968 96.5747V91.7223H114.177C114.63 91.7223 114.999 91.3884 114.999 90.9761V89H115Z" fill="#070707"/>
<path d="M104.668 88H120.303C120.521 88 120.712 88.1637 120.766 88.3988L120.984 89.3363C121.063 89.6736 120.832 90.003 120.518 90L104.476 89.8978C104.166 89.8958 103.939 89.5714 104.015 89.2371L104.205 88.4018C104.258 88.1657 104.45 88 104.669 88H104.668Z" fill="url(#paint58_linear_71_244)"/>
<path d="M105.999 70.4298C105.999 70.4298 106.035 73.0357 105.592 74.2192C105.15 75.4028 105.081 76.2574 103.574 75.9293C102.067 75.6012 101.178 74.4618 101.044 73.0535C101.044 73.0535 100.823 70.8773 101.368 70.2408C101.914 69.6044 105.998 70.4307 105.998 70.4307L105.999 70.4298Z" fill="url(#paint59_linear_71_244)"/>
<path d="M101.37 72.0573L101.537 72.1231C101.537 72.1231 101.441 70.5161 102.149 70.5222C102.857 70.5275 105.452 71.0164 106.325 70.4187C107.166 69.842 107.166 68.6659 106.627 68.1227C106.592 68.0884 106.535 68.0876 106.496 68.1174L106.398 68.1937C106.33 68.2464 106.23 68.1937 106.239 68.1121C106.248 68.034 106.156 67.9796 106.089 68.0252C105.824 68.2025 105.223 68.4228 103.987 68.1674C102.233 67.8049 100.881 68.0007 100.382 69.0548C100.351 69.1215 100.258 69.1285 100.212 69.0688C100.123 68.9521 99.9453 68.8432 99.5975 68.945C98.9928 69.1232 98.7665 70.1185 99.4093 71.2665C99.4399 71.3209 99.4093 71.3894 99.3443 71.4008C99.118 71.4394 98.7378 71.5948 99.2701 72.2144C99.8146 72.8481 100.247 72.9745 100.42 72.9991C100.467 73.0052 100.511 72.9806 100.527 72.9385L100.884 71.9704C100.902 71.9204 100.962 71.8958 101.013 71.916L101.368 72.0573H101.37Z" fill="url(#paint60_linear_71_244)"/>
<path d="M100.972 72.4475C100.972 72.4475 101.189 70.8772 100.418 71.0077C99.6459 71.1383 100.093 72.7332 100.563 73L100.972 72.4475Z" fill="url(#paint61_linear_71_244)"/>
<defs>
<linearGradient id="paint0_linear_71_244" x1="45.017" y1="16.3141" x2="21.0648" y2="116.657" gradientUnits="userSpaceOnUse">
<stop stop-color="#FE5100"/>
<stop offset="1" stop-color="#FF4700"/>
</linearGradient>
<linearGradient id="paint1_linear_71_244" x1="82.8276" y1="26.3766" x2="58.5716" y2="126.572" gradientUnits="userSpaceOnUse">
<stop stop-color="#FE5100"/>
<stop offset="1" stop-color="#FF4700"/>
</linearGradient>
<linearGradient id="paint2_linear_71_244" x1="61.8862" y1="20.4313" x2="37.9866" y2="120.651" gradientUnits="userSpaceOnUse">
<stop stop-color="#FE5100"/>
<stop offset="1" stop-color="#FF4700"/>
</linearGradient>
<linearGradient id="paint3_linear_71_244" x1="123.362" y1="31.0642" x2="95.1337" y2="135.69" gradientUnits="userSpaceOnUse">
<stop stop-color="#FE5100"/>
<stop offset="1" stop-color="#FF4700"/>
</linearGradient>
<linearGradient id="paint4_linear_71_244" x1="98.1996" y1="46.7056" x2="70.9961" y2="153.207" gradientUnits="userSpaceOnUse">
<stop stop-color="#FE5100"/>
<stop offset="1" stop-color="#FF4700"/>
</linearGradient>
<linearGradient id="paint5_linear_71_244" x1="127.463" y1="48.1044" x2="128.551" y2="102.405" gradientUnits="userSpaceOnUse">
<stop stop-color="#FF9500"/>
<stop offset="1" stop-color="#FFB900"/>
</linearGradient>
<linearGradient id="paint6_linear_71_244" x1="93.9449" y1="60.9008" x2="97.2114" y2="125.081" gradientUnits="userSpaceOnUse">
<stop stop-color="#FF9500"/>
<stop offset="1" stop-color="#FFB900"/>
</linearGradient>
<linearGradient id="paint7_linear_71_244" x1="54.6734" y1="114.356" x2="64.7359" y2="56.008" gradientUnits="userSpaceOnUse">
<stop stop-color="#FF9500"/>
<stop offset="1" stop-color="#FFB900"/>
</linearGradient>
<linearGradient id="paint8_linear_71_244" x1="28.1062" y1="102.188" x2="32.555" y2="134.229" gradientUnits="userSpaceOnUse">
<stop stop-color="#FF9500"/>
<stop offset="1" stop-color="#FFB900"/>
</linearGradient>
<linearGradient id="paint9_linear_71_244" x1="19.0922" y1="119.42" x2="19.2095" y2="130.35" gradientUnits="userSpaceOnUse">
<stop stop-color="#090000"/>
<stop offset="1" stop-color="#6A2F00"/>
</linearGradient>
<linearGradient id="paint10_linear_71_244" x1="16.2068" y1="107.327" x2="15.8263" y2="103.823" gradientUnits="userSpaceOnUse">
<stop stop-color="#FF928E"/>
<stop offset="1" stop-color="#FEB3B1"/>
</linearGradient>
<linearGradient id="paint11_linear_71_244" x1="5.09142" y1="119.109" x2="5.17888" y2="129.402" gradientUnits="userSpaceOnUse">
<stop stop-color="#090000"/>
<stop offset="1" stop-color="#6A2F00"/>
</linearGradient>
<linearGradient id="paint12_linear_71_244" x1="4.32146" y1="109.26" x2="3.89518" y2="105.402" gradientUnits="userSpaceOnUse">
<stop stop-color="#FF928E"/>
<stop offset="1" stop-color="#FEB3B1"/>
</linearGradient>
<linearGradient id="paint13_linear_71_244" x1="0.999908" y1="93.9996" x2="17" y2="93.9996" gradientUnits="userSpaceOnUse">
<stop stop-color="#FF9500"/>
<stop offset="1" stop-color="#FFB900"/>
</linearGradient>
<linearGradient id="paint14_linear_71_244" x1="3.98112" y1="90.7369" x2="4.41891" y2="89.6928" gradientUnits="userSpaceOnUse">
<stop stop-color="#FF9500"/>
<stop offset="1" stop-color="#FFB900"/>
</linearGradient>
<linearGradient id="paint15_linear_71_244" x1="13.6926" y1="67.2296" x2="3.92817" y2="96.7474" gradientUnits="userSpaceOnUse">
<stop stop-color="#090000"/>
<stop offset="1" stop-color="#6A2F00"/>
</linearGradient>
<linearGradient id="paint16_linear_71_244" x1="14.0007" y1="72.9994" x2="15.0003" y2="72.9994" gradientUnits="userSpaceOnUse">
<stop stop-color="#FF9500"/>
<stop offset="1" stop-color="#FFB900"/>
</linearGradient>
<linearGradient id="paint17_linear_71_244" x1="9" y1="82.9995" x2="16" y2="82.9995" gradientUnits="userSpaceOnUse">
<stop stop-color="#FF928E"/>
<stop offset="1" stop-color="#FEB3B1"/>
</linearGradient>
<linearGradient id="paint18_linear_71_244" x1="15" y1="73.9995" x2="29" y2="73.9995" gradientUnits="userSpaceOnUse">
<stop stop-color="#FF928E"/>
<stop offset="1" stop-color="#FEB3B1"/>
</linearGradient>
<linearGradient id="paint19_linear_71_244" x1="13.671" y1="61.5716" x2="12.2711" y2="67.7742" gradientUnits="userSpaceOnUse">
<stop stop-color="#FF928E"/>
<stop offset="1" stop-color="#FEB3B1"/>
</linearGradient>
<linearGradient id="paint20_linear_71_244" x1="20.0825" y1="60.9559" x2="13.7382" y2="61.054" gradientUnits="userSpaceOnUse">
<stop stop-color="#FF928E"/>
<stop offset="1" stop-color="#FEB3B1"/>
</linearGradient>
<linearGradient id="paint21_linear_71_244" x1="12.0004" y1="60.5006" x2="19.9995" y2="60.5006" gradientUnits="userSpaceOnUse">
<stop stop-color="#090000"/>
<stop offset="1" stop-color="#6A2F00"/>
</linearGradient>
<linearGradient id="paint22_linear_71_244" x1="12.3704" y1="61.5523" x2="11.3288" y2="67.6317" gradientUnits="userSpaceOnUse">
<stop stop-color="#FF928E"/>
<stop offset="1" stop-color="#FEB3B1"/>
</linearGradient>
<linearGradient id="paint23_linear_71_244" x1="5.99977" y1="74.9995" x2="11" y2="74.9995" gradientUnits="userSpaceOnUse">
<stop stop-color="#FF9500"/>
<stop offset="1" stop-color="#FFB900"/>
</linearGradient>
<linearGradient id="paint24_linear_71_244" x1="42.7195" y1="108.495" x2="44.9536" y2="94.6773" gradientUnits="userSpaceOnUse">
<stop stop-color="#090000"/>
<stop offset="1" stop-color="#6A2F00"/>
</linearGradient>
<linearGradient id="paint25_linear_71_244" x1="43.5851" y1="108.127" x2="48.405" y2="87.8545" gradientUnits="userSpaceOnUse">
<stop stop-color="#090000"/>
<stop offset="1" stop-color="#6A2F00"/>
</linearGradient>
<linearGradient id="paint26_linear_71_244" x1="41.7449" y1="107.115" x2="43.7453" y2="94.0316" gradientUnits="userSpaceOnUse">
<stop stop-color="#090000"/>
<stop offset="1" stop-color="#6A2F00"/>
</linearGradient>
<linearGradient id="paint27_linear_71_244" x1="36.0399" y1="98.4342" x2="34.7556" y2="111.048" gradientUnits="userSpaceOnUse">
<stop stop-color="#FF928E"/>
<stop offset="0.48" stop-color="#FFA29F"/>
<stop offset="1" stop-color="#FEB3B1"/>
</linearGradient>
<linearGradient id="paint28_linear_71_244" x1="36.6579" y1="104.029" x2="35.5931" y2="120.006" gradientUnits="userSpaceOnUse">
<stop stop-color="#090000"/>
<stop offset="1" stop-color="#6A2F00"/>
</linearGradient>
<linearGradient id="paint29_linear_71_244" x1="23.9991" y1="99.9996" x2="40" y2="99.9996" gradientUnits="userSpaceOnUse">
<stop stop-color="#FF928E"/>
<stop offset="1" stop-color="#FEB3B1"/>
</linearGradient>
<linearGradient id="paint30_linear_71_244" x1="33.9991" y1="91.5004" x2="50.9997" y2="91.5004" gradientUnits="userSpaceOnUse">
<stop stop-color="#E1473D"/>
<stop offset="1" stop-color="#E9605A"/>
</linearGradient>
<linearGradient id="paint31_linear_71_244" x1="26.8762" y1="102.688" x2="25.7895" y2="119.548" gradientUnits="userSpaceOnUse">
<stop stop-color="#090000"/>
<stop offset="1" stop-color="#6A2F00"/>
</linearGradient>
<linearGradient id="paint32_linear_71_244" x1="51.8238" y1="69.3951" x2="46.0087" y2="75.2175" gradientUnits="userSpaceOnUse">
<stop stop-color="#090000"/>
<stop offset="1" stop-color="#6A2F00"/>
</linearGradient>
<linearGradient id="paint33_linear_71_244" x1="40.5" y1="74.4393" x2="40.5" y2="77.571" gradientUnits="userSpaceOnUse">
<stop stop-color="#FF928E"/>
<stop offset="1" stop-color="#FEB3B1"/>
</linearGradient>
<linearGradient id="paint34_linear_71_244" x1="43.3792" y1="70.7296" x2="39.4874" y2="69.9741" gradientUnits="userSpaceOnUse">
<stop stop-color="#FF928E"/>
<stop offset="1" stop-color="#FEB3B1"/>
</linearGradient>
<linearGradient id="paint35_linear_71_244" x1="46.6429" y1="64.3304" x2="40.1839" y2="70.6049" gradientUnits="userSpaceOnUse">
<stop stop-color="#090000"/>
<stop offset="1" stop-color="#6A2F00"/>
</linearGradient>
<linearGradient id="paint36_linear_71_244" x1="43.0668" y1="71.2327" x2="40.178" y2="70.8525" gradientUnits="userSpaceOnUse">
<stop stop-color="#FF928E"/>
<stop offset="1" stop-color="#FEB3B1"/>
</linearGradient>
<linearGradient id="paint37_linear_71_244" x1="13.9467" y1="86.4999" x2="28.9457" y2="86.4999" gradientUnits="userSpaceOnUse">
<stop stop-color="#FF928E"/>
<stop offset="1" stop-color="#FEB3B1"/>
</linearGradient>
<linearGradient id="paint38_linear_71_244" x1="46.3951" y1="85.068" x2="37.6487" y2="87.932" gradientUnits="userSpaceOnUse">
<stop stop-color="white"/>
<stop offset="1" stop-color="#CCCCCC"/>
</linearGradient>
<linearGradient id="paint39_linear_71_244" x1="22.0011" y1="83" x2="38.0009" y2="83" gradientUnits="userSpaceOnUse">
<stop stop-color="white"/>
<stop offset="1" stop-color="#CCCCCC"/>
</linearGradient>
<linearGradient id="paint40_linear_71_244" x1="10.0009" y1="87.5" x2="21" y2="87.5" gradientUnits="userSpaceOnUse">
<stop stop-color="#FE5100"/>
<stop offset="1" stop-color="#FF4700"/>
</linearGradient>
<linearGradient id="paint41_linear_71_244" x1="15.6114" y1="95.594" x2="15.5453" y2="92.1642" gradientUnits="userSpaceOnUse">
<stop stop-color="#A22B25"/>
<stop offset="1" stop-color="#C0423C"/>
</linearGradient>
<linearGradient id="paint42_linear_71_244" x1="7.99901" y1="88.9996" x2="60" y2="88.9996" gradientUnits="userSpaceOnUse">
<stop stop-color="#090000"/>
<stop offset="1" stop-color="#6A2F00"/>
</linearGradient>
<linearGradient id="paint43_linear_71_244" x1="89.938" y1="107.345" x2="91.6056" y2="99.0401" gradientUnits="userSpaceOnUse">
<stop stop-color="#E1473D"/>
<stop offset="1" stop-color="#E9605A"/>
</linearGradient>
<linearGradient id="paint44_linear_71_244" x1="102" y1="109.5" x2="108.999" y2="109.5" gradientUnits="userSpaceOnUse">
<stop stop-color="#FF9500"/>
<stop offset="1" stop-color="#FFB900"/>
</linearGradient>
<linearGradient id="paint45_linear_71_244" x1="107.405" y1="94.6158" x2="104.93" y2="109.593" gradientUnits="userSpaceOnUse">
<stop stop-color="#090000"/>
<stop offset="1" stop-color="#6A2F00"/>
</linearGradient>
<linearGradient id="paint46_linear_71_244" x1="102" y1="108" x2="103.999" y2="108" gradientUnits="userSpaceOnUse">
<stop stop-color="#FF928E"/>
<stop offset="1" stop-color="#FEB3B1"/>
</linearGradient>
<linearGradient id="paint47_linear_71_244" x1="113.999" y1="108.501" x2="118.999" y2="108.501" gradientUnits="userSpaceOnUse">
<stop stop-color="#FF9500"/>
<stop offset="1" stop-color="#FFB900"/>
</linearGradient>
<linearGradient id="paint48_linear_71_244" x1="117.402" y1="96.6639" x2="114.94" y2="111.397" gradientUnits="userSpaceOnUse">
<stop stop-color="#090000"/>
<stop offset="1" stop-color="#6A2F00"/>
</linearGradient>
<linearGradient id="paint49_linear_71_244" x1="99.4164" y1="94.8099" x2="97.9714" y2="101.507" gradientUnits="userSpaceOnUse">
<stop stop-color="#090000"/>
<stop offset="1" stop-color="#6A2F00"/>
</linearGradient>
<linearGradient id="paint50_linear_71_244" x1="112" y1="108.499" x2="113.999" y2="108.499" gradientUnits="userSpaceOnUse">
<stop stop-color="#FF928E"/>
<stop offset="1" stop-color="#FEB3B1"/>
</linearGradient>
<linearGradient id="paint51_linear_71_244" x1="102.279" y1="84.221" x2="100.848" y2="92.9458" gradientUnits="userSpaceOnUse">
<stop stop-color="#090000"/>
<stop offset="1" stop-color="#6A2F00"/>
</linearGradient>
<linearGradient id="paint52_linear_71_244" x1="100.892" y1="73.5572" x2="104.584" y2="71.3285" gradientUnits="userSpaceOnUse">
<stop stop-color="#FF928E"/>
<stop offset="1" stop-color="#FEB3B1"/>
</linearGradient>
<linearGradient id="paint53_linear_71_244" x1="99.3257" y1="84.5638" x2="91.6536" y2="103.253" gradientUnits="userSpaceOnUse">
<stop stop-color="#090000"/>
<stop offset="1" stop-color="#6A2F00"/>
</linearGradient>
<linearGradient id="paint54_linear_71_244" x1="100.852" y1="78.7327" x2="92.5179" y2="89.0755" gradientUnits="userSpaceOnUse">
<stop stop-color="#FF9500"/>
<stop offset="1" stop-color="#FFB900"/>
</linearGradient>
<linearGradient id="paint55_linear_71_244" x1="108" y1="86.4999" x2="112.999" y2="86.4999" gradientUnits="userSpaceOnUse">
<stop stop-color="#F9B776"/>
<stop offset="1" stop-color="#F47960"/>
</linearGradient>
<linearGradient id="paint56_linear_71_244" x1="107" y1="87.5005" x2="118" y2="87.5005" gradientUnits="userSpaceOnUse">
<stop stop-color="white"/>
<stop offset="1" stop-color="#CCCCCC"/>
</linearGradient>
<linearGradient id="paint57_linear_71_244" x1="118" y1="82.5003" x2="122.999" y2="82.5003" gradientUnits="userSpaceOnUse">
<stop stop-color="white"/>
<stop offset="1" stop-color="#CCCCCC"/>
</linearGradient>
<linearGradient id="paint58_linear_71_244" x1="113.442" y1="63.8147" x2="112.739" y2="79.728" gradientUnits="userSpaceOnUse">
<stop stop-color="#090000"/>
<stop offset="1" stop-color="#6A2F00"/>
</linearGradient>
<linearGradient id="paint59_linear_71_244" x1="106.126" y1="71.0897" x2="101.668" y2="74.2119" gradientUnits="userSpaceOnUse">
<stop stop-color="#FF928E"/>
<stop offset="1" stop-color="#FEB3B1"/>
</linearGradient>
<linearGradient id="paint60_linear_71_244" x1="102.201" y1="67.5042" x2="104.23" y2="75.4741" gradientUnits="userSpaceOnUse">
<stop stop-color="#090000"/>
<stop offset="1" stop-color="#6A2F00"/>
</linearGradient>
<linearGradient id="paint61_linear_71_244" x1="104.048" y1="69.514" x2="99.7061" y2="72.302" gradientUnits="userSpaceOnUse">
<stop stop-color="#FF928E"/>
<stop offset="1" stop-color="#FEB3B1"/>
</linearGradient>
</defs>
</svg>
