<svg width="132" height="128" viewBox="0 0 132 128" fill="none" xmlns="http://www.w3.org/2000/svg">
<path d="M8.73767 140.489C8.73767 140.489 12.963 142.344 20.208 138.983C27.453 135.623 47.1536 135.291 47.1536 135.291C47.1536 135.291 40.7722 111.33 54.9551 94.1885C54.9551 94.1885 66.379 115.638 74.4065 118.836L78 118.999V103.695C78 103.695 74.9513 84.8039 55.6622 70.7038L49.6575 65.273C49.6575 65.273 28.5426 60.9994 14.1801 86.2692C-0.182395 111.539 8.73767 140.484 8.73767 140.484V140.489Z" fill="#FFB217"/>
<path d="M79.6423 74.1261C79.8457 73.0569 79.9212 70.5619 77.3587 67.5236C73.9362 63.4511 69.5376 65.5312 69.5376 65.5312C65.6444 67.7223 64 74.8799 64 74.8799L68.1139 72.6712C68.7357 74.4942 74.8194 76.4575 74.8194 76.4575L74.8543 76.4458C74.9124 80.4073 74.8195 91.953 72.0245 99.987C70.9321 103.136 68.7066 108.979 76.0513 119L80.1013 118.836C80.1013 118.836 89.1718 103.353 79.6423 74.1378V74.1261Z" fill="url(#paint0_linear_117_15)"/>
<path d="M58.8545 51.0446L47.4933 67.1003C46.7554 68.1437 46.8549 69.5623 47.7275 70.4943C49.256 72.1298 51.8387 74.4335 54.6204 74.9611C55.4872 75.1252 56.3656 74.7618 56.8458 74.0232L62.8895 64.738C62.8895 64.738 64.0491 50.1536 58.8545 51.0387V51.0446Z" fill="url(#paint1_linear_117_15)"/>
<path d="M66.691 41.0517C66.8776 41.2982 73 60.8019 73 60.8019L61.5948 64L53 46.3589C53 46.3589 63.5364 36.9137 66.691 41.046V41.0517Z" fill="url(#paint2_linear_117_15)"/>
<path d="M57.4659 49.004L61.1192 58.3037C61.2013 58.5056 61.3068 58.696 61.4475 58.8633C62.0633 59.619 63.84 61.4016 65.8162 59.4921C67.3115 58.0498 68.7188 56.7172 70.0617 56.0538C71.2462 55.4711 72.677 56.1057 73.0523 57.3576C73.6152 59.2267 74.5066 62.4458 74.9757 65.5091C75.1457 66.6168 74.4069 67.661 73.2927 67.8917C70.9589 68.3706 66.8834 69.0744 63.3123 68.9936C62.5206 68.9763 61.8111 68.5148 61.4593 67.8167C60.1399 65.1919 56.8209 58.6671 55.5719 56.9307C54.4225 55.3326 51.8307 55.3442 50.5113 55.4653C49.8956 55.523 49.2916 55.3211 48.8459 54.9057C47.7904 53.9308 46.383 51.9693 48.3885 49.5348C49.0863 48.6868 49.0277 47.481 48.2595 46.6964C47.1454 45.56 46.2247 43.7485 47.9839 41.4697C49.8486 39.0525 52.3643 39.1852 54.059 39.664C54.8858 39.9006 55.7302 39.5429 56.2755 38.8852C56.4339 38.6949 56.6567 38.5449 56.9792 38.4987C58.0171 38.3372 58.8146 37.5468 58.8439 36.5199C58.885 34.9912 59.5593 33.2201 62.116 32.3547C67.118 30.6644 70.4077 35.3719 70.824 38.9429C71.2403 42.5139 65.7106 44.0427 62.4327 43.8927C60.1575 43.7889 58.4804 45.8426 57.6653 47.1118C57.3017 47.6772 57.2314 48.381 57.4776 49.0098L57.4659 49.004Z" fill="url(#paint3_linear_117_15)"/>
<path d="M57 60.7773C57 60.7773 56.0343 54.2604 53.4782 54.0175C50.922 53.7745 48.5079 56.0885 51.1379 59.6841C54.4098 64.1542 57 60.7773 57 60.7773V60.7773Z" fill="url(#paint4_linear_117_15)"/>
<path d="M29.1653 67.6975C29.1653 67.6975 6.25403 82.2867 1.2323 99.2274C-3.78357 116.168 7.44355 119.497 18.1316 121L18.9343 108.066C18.9343 108.066 11.4457 108.066 16.2213 100.994C20.9969 93.9217 33.8355 89.2127 33.8355 89.2127C33.8355 89.2127 66.3625 58.572 29.1595 67.6975H29.1653Z" fill="#FFB217"/>
<path d="M18.6483 108C18.5181 108 15.3877 107.977 14.3343 106.062C13.6124 104.754 14.0621 102.93 15.6599 100.644C20.4827 93.7396 33.0577 89.2129 33.5962 89.0185C33.75 88.9614 33.9216 89.0414 33.9808 89.19C34.04 89.3386 33.9571 89.5044 33.8033 89.5615C33.6731 89.6072 20.8733 94.214 16.1569 100.964C14.6894 103.062 14.2574 104.685 14.861 105.794C15.7427 107.406 18.6187 107.428 18.6483 107.428C18.814 107.428 18.9441 107.56 18.9441 107.714C18.9441 107.874 18.808 108 18.6483 108V108Z" fill="white"/>
<path d="M18.2029 121C18.2029 121 14.8943 115.533 19.2516 109L48.5131 113.842C48.5131 113.842 62.5238 111.473 63.1902 111.519C63.8623 111.566 73 117.195 73 117.195C73 117.195 72.6929 117.849 70.52 117.728C68.3471 117.606 69.7725 117.988 69.7725 117.988L69.6914 119.089C69.6914 119.089 68.1791 119.436 66.9623 118.145C65.7455 116.853 62.3732 116.228 62.3732 116.228C62.3732 116.228 55.194 121.527 48.1422 118.961L18.1971 121H18.2029Z" fill="url(#paint5_linear_117_15)"/>
<path d="M128.983 121.188C129.035 120.648 128.966 120.091 128.785 119.667C128.604 119.244 128.342 119 128.062 119H33.0797C32.7127 119 32.3689 119.366 32.1708 119.975C31.9727 120.584 31.9436 121.35 32.1009 122L33.1322 126.364C33.3652 127.362 33.878 128 34.4431 128H127.41C127.934 128 128.383 127.275 128.482 126.271L128.983 121.188V121.188Z" fill="url(#paint6_linear_117_15)"/>
<path d="M95.9931 36.3575C95.9752 36.1239 95.7258 35.9244 95.3102 35.7648C95.7615 35.5255 96.0109 35.269 95.9931 35.0182C95.9277 34.2546 93.4158 33.8271 90.3814 34.0665C87.3469 34.3002 84.936 35.1094 85.0013 35.8731C85.0191 36.1068 85.2685 36.3062 85.6842 36.4658C85.2329 36.7052 84.9835 36.9616 85.0013 37.2124C85.0191 37.4461 85.2685 37.6455 85.6842 37.8051C85.2329 38.0445 84.9835 38.3009 85.0013 38.5517C85.0191 38.7853 85.2685 38.9848 85.6842 39.1444C85.2329 39.3837 84.9835 39.6402 85.0013 39.891C85.031 40.2272 85.5357 40.5008 86.3552 40.6774C86.3433 40.9282 86.3552 41.2017 86.379 41.4981C86.4977 42.9001 88.1426 44 90.3161 44C92.4895 44 94.3778 42.5011 94.3957 41.0935C94.3957 40.7458 94.3838 40.4438 94.3541 40.1759C95.3933 39.8397 96.0287 39.435 95.999 39.0418C95.9812 38.8081 95.7318 38.6087 95.3161 38.4491C95.7674 38.2097 96.0168 37.9533 95.999 37.7025C95.9812 37.4688 95.7318 37.2694 95.3161 37.1098C95.7674 36.8704 96.0168 36.614 95.999 36.3632L95.9931 36.3575Z" fill="#874300"/>
<path d="M88.2889 41C87.4529 41 86.6884 40.9182 86.0558 40.7547C86.0173 40.7473 85.9953 40.6952 86.0008 40.6506C86.0063 40.5986 86.0448 40.5688 86.0778 40.5763C87.0679 40.829 88.3879 40.8885 89.796 40.7324C90.951 40.606 92.0236 40.3533 92.9146 40.0039C92.9531 39.989 92.9861 40.0187 92.9971 40.0633C93.0081 40.1154 92.9861 40.16 92.9531 40.1748C92.0566 40.5242 90.973 40.7844 89.807 40.9108C89.2845 40.9703 88.773 40.9926 88.2834 40.9926L88.2889 41Z" fill="#FFB217"/>
<path d="M87.965 40C86.812 40 85.7761 39.9041 85.0504 39.7275C85.0094 39.7174 84.9919 39.6821 85.0036 39.6518C85.0153 39.6165 85.0562 39.6014 85.0914 39.6115C86.1273 39.8638 87.8011 39.9445 89.5569 39.8234C91.3009 39.7023 92.9221 39.3995 93.8995 39.0059C93.9346 38.9908 93.9756 39.0059 93.9931 39.0362C94.0107 39.0665 93.9931 39.1018 93.958 39.117C92.9631 39.5105 91.3243 39.8183 89.5627 39.9445C89.0126 39.9849 88.4741 40 87.9591 40H87.965Z" fill="#FFB217"/>
<path d="M88.0629 38C86.8401 38 85.7723 37.8895 85.0489 37.6837C85.0145 37.6737 84.9915 37.6385 85.003 37.6034C85.0145 37.5732 85.0547 37.5532 85.0948 37.5632C86.0995 37.8544 87.7988 37.9448 89.6416 37.8193C91.3524 37.6988 92.9427 37.3975 93.9014 37.0059C93.9358 36.9908 93.976 37.0059 93.9932 37.036C94.0105 37.0662 93.9932 37.1013 93.9588 37.1164C92.9828 37.508 91.3754 37.8142 89.6474 37.9398C89.102 37.9799 88.5681 37.995 88.0571 37.995L88.0629 38Z" fill="#FFB217"/>
<path d="M87.7426 37C86.716 37 85.7806 36.929 85.0578 36.7971C85.0153 36.7921 84.991 36.7566 85.0031 36.7211C85.0092 36.6856 85.0517 36.6653 85.0942 36.6754C86.1876 36.8783 87.7547 36.929 89.4069 36.8174C91.1987 36.6957 92.8752 36.3965 93.8957 36.006C93.9321 35.9908 93.9746 36.006 93.9929 36.0364C94.0111 36.0668 93.9929 36.1023 93.9564 36.1175C92.9238 36.5081 91.2291 36.8174 89.419 36.9391C88.8481 36.9797 88.2832 36.9949 87.7486 36.9949L87.7426 37Z" fill="#FFB217"/>
<path d="M82.7105 29.2117C82.3567 27.9423 81.7519 26.7536 80.9417 25.7208C79.2072 23.5051 76.3715 19.0044 76.0234 12.8592C75.5156 3.92125 83.3552 -0.556366 90.5045 0.0552675C97.6594 0.661131 104.717 6.05043 103.941 14.3652C103.468 19.4833 100.632 23.3608 98.5267 25.5881C97.1858 27.0018 96.233 28.7386 95.7138 30.6254C95.0804 32.9335 93.5741 35.8127 89.9967 35.9916C85.3636 36.2167 83.4408 31.8544 82.7048 29.2117H82.7105Z" fill="url(#paint7_linear_117_15)"/>
<path d="M91 33.7383L93.4447 17.5109C93.4948 17.1753 93.6563 16.9478 93.8066 17.0104C93.957 17.0672 94.035 17.3858 93.9848 17.7213V17.7498L91.2005 33.8236C91.1782 33.943 91.1169 34.0227 91.0668 33.9942C91.0167 33.9658 90.9889 33.852 91.0056 33.7383H91Z" fill="white"/>
<path d="M89 33.7383L86.5553 17.5109C86.5052 17.1753 86.3437 16.9478 86.1934 17.0104C86.043 17.0729 85.965 17.3858 86.0152 17.7213V17.7498L88.7995 33.8236C88.8218 33.943 88.8831 34.0227 88.9332 33.9942C88.9833 33.9658 89.0111 33.852 88.9944 33.7383H89Z" fill="white"/>
<path opacity="0.79" d="M92.9612 15.9725C92.9017 15.8698 92.761 15.8299 92.6473 15.8869L91.3267 16.537L90.8666 15.1571C90.845 15.0829 90.7854 15.0202 90.7043 14.986C90.5527 14.9176 90.3687 14.9803 90.2983 15.1172L89.2104 17.2098L88.2037 14.239C88.1766 14.1592 88.1279 14.0965 88.0521 14.0509C87.8844 13.9539 87.657 13.9996 87.5542 14.1535L86.0333 16.3602C85.9738 16.4514 85.9954 16.5712 86.0874 16.6396C86.1903 16.7137 86.331 16.6966 86.4122 16.6054L87.749 15.0316L88.956 17.8599C88.9777 17.9055 89.0101 17.9454 89.0643 17.9739C89.1779 18.0309 89.3187 17.991 89.3782 17.8884L90.5419 15.9212L90.9803 16.9133V16.9247C90.9803 16.9247 90.9911 16.9361 90.9965 16.9475C91.0561 17.0502 91.1968 17.0901 91.3104 17.0331L92.8801 16.2633C92.9937 16.2063 93.0316 16.0808 92.9721 15.9782L92.9612 15.9725Z" fill="white"/>
<path opacity="0.79" d="M98.2905 23C98.2288 23 98.1671 22.985 98.119 22.9599C97.9887 22.8898 97.9613 22.7545 98.0573 22.6593C98.5718 22.1533 99.0451 21.6322 99.4567 21.1062C99.5391 21.006 99.7174 20.9709 99.8546 21.026C99.9918 21.0861 100.04 21.2164 99.9644 21.3166C99.539 21.8577 99.052 22.3938 98.5238 22.9148C98.4689 22.9699 98.3797 23 98.2905 23Z" fill="white"/>
<path opacity="0.79" d="M100.273 20C100.235 20 100.203 19.9943 100.165 19.9772C100.025 19.9259 99.9611 19.7776 100.025 19.6578C102.985 13.5491 100.432 8.39871 100.407 8.34738C100.343 8.2276 100.407 8.0793 100.54 8.02227C100.674 7.96523 100.84 8.02227 100.903 8.14204C100.929 8.19338 103.59 13.532 100.528 19.8517C100.483 19.943 100.381 20 100.279 20H100.273Z" fill="white"/>
<path d="M109.982 71.7264C108.002 66.9217 100.827 52.3502 88.1301 56.8521C87.9413 56.9162 87.9642 57.1957 88.1587 57.2307C90.9568 57.7607 101.331 60.428 109.65 71.9186C109.788 72.1049 110.074 71.9419 109.982 71.7264V71.7264Z" fill="#FFBF85"/>
<path d="M109.899 71.7108C107.021 68.9819 98.4554 58.4205 87.0815 63.2454C86.9546 63.2977 86.9834 63.4835 87.1161 63.5009C89.925 63.8028 103.889 65.5795 109.847 71.9431C110.002 72.1115 110.072 71.8676 109.899 71.7108Z" fill="#FFBF85"/>
<path d="M109.994 70.9248C109.715 67.3375 108.066 53.7957 99.0945 51.0043C99.0292 50.9812 98.9758 51.0562 99.0114 51.1081C100.091 52.5903 107.959 63.5426 109.857 70.9479C109.881 71.0287 110.006 71.0113 110 70.9248H109.994Z" fill="#FFBF85"/>
<path d="M110.886 74.9911C110.962 75.0293 111.038 74.9365 110.979 74.8764C109.421 73.4248 102.966 68.0874 94.7726 70.7179C85.4874 73.6976 101.747 70.3522 110.892 74.9911H110.886Z" fill="#FFBF85"/>
<path d="M110.634 71.7794C110.616 72.0512 110.227 72.0801 110.162 71.8199C109.172 67.5517 107.08 55.7883 113.175 52.7982C120.396 49.2588 111.613 57.8298 110.628 71.7794H110.634Z" fill="#FFBF85"/>
<path d="M110.012 72.7877C111.015 70.1155 114.877 61.8217 122.918 66.3048C123.056 66.3815 123.01 66.5939 122.854 66.5998C121.044 66.7177 115.032 67.5141 110.271 72.947C110.156 73.0767 109.948 72.947 110.012 72.7877V72.7877Z" fill="#FFBF85"/>
<path d="M110.007 72.7002C110.372 71.2898 112.278 68.4639 121.963 71.053C122.02 71.0681 122.009 71.1437 121.946 71.1386C120.04 70.9623 113.608 70.5795 110.458 72.9419C110.258 73.093 109.95 72.9268 110.007 72.7002Z" fill="#FFBF85"/>
<path d="M113.461 117.93V116.513L113.449 115.066L113.406 112.18C113.382 110.253 113.34 108.333 113.298 106.406C113.207 102.559 113.093 98.7123 112.912 94.8712C112.737 91.03 112.49 87.1889 112.11 83.3653C111.917 81.4565 111.682 79.5476 111.363 77.6563C111.049 75.765 110.651 73.8796 110 72.0703L110.175 72C110.561 72.89 110.904 73.8093 111.158 74.7462L111.357 75.4488C111.417 75.683 111.471 75.9173 111.531 76.1515L111.706 76.86L111.857 77.5685C112.255 79.4656 112.556 81.3745 112.797 83.2951C113.045 85.2098 113.226 87.1362 113.388 89.0568C113.539 90.9832 113.654 92.9096 113.75 94.8361C113.834 96.7625 113.901 98.6889 113.949 100.621C113.979 102.548 114.009 104.48 113.997 106.406C113.997 108.333 113.967 110.259 113.913 112.191L113.804 115.084L113.738 116.53L113.696 117.251L113.672 117.614C113.66 117.737 113.66 117.848 113.636 118L113.455 117.941L113.461 117.93Z" fill="#FFBF85"/>
<path d="M117.011 83.8107C118.362 80.5061 123.256 70.4906 131.912 73.5861C132.04 73.6339 132.023 73.8191 131.895 73.849C129.984 74.2135 122.912 76.0421 117.238 83.9421C117.145 84.0736 116.953 83.9601 117.011 83.8107V83.8107Z" fill="#FFBF85"/>
<path d="M117.066 84.8028C118.941 82.8903 124.528 75.495 131.945 78.8708C132.029 78.9073 132.013 79.0409 131.923 79.0469C130.087 79.2594 120.985 80.5041 117.1 84.9607C116.998 85.076 116.954 84.9121 117.066 84.7967V84.8028Z" fill="#FFBF85"/>
<path d="M117 82.9543C117.181 80.6201 118.229 71.8153 123.94 70.0018C123.979 69.9906 124.019 70.0353 123.99 70.0689C123.303 71.0317 118.297 78.1517 117.09 82.9655C117.079 83.0215 116.995 83.0047 117 82.9487V82.9543Z" fill="#FFBF85"/>
<path d="M116.078 85.9923C116.024 86.0249 115.971 85.9467 116.018 85.9011C117.085 84.7413 121.498 80.4735 127.104 82.5715C133.453 84.9498 122.338 82.2783 116.084 85.9923H116.078Z" fill="#FFBF85"/>
<path d="M116.837 83.8578C116.85 84.0317 117.126 84.0542 117.17 83.8802C117.874 81.1083 119.376 73.4603 115.015 71.5188C109.863 69.2182 116.134 74.7901 116.831 83.8578H116.837Z" fill="#FFBF85"/>
<path d="M116.998 83.8618C116.307 82.1963 113.631 77.0129 108.057 79.8162C107.962 79.8657 107.992 79.9976 108.099 80.0031C109.351 80.0746 113.517 80.5748 116.814 83.9662C116.891 84.0487 117.034 83.9663 116.993 83.8673L116.998 83.8618Z" fill="#FFBF85"/>
<path d="M115.995 83.7963C115.751 82.8601 114.485 80.9777 108.025 82.6999C107.985 82.7099 107.996 82.76 108.036 82.76C109.302 82.6449 113.594 82.3845 115.694 83.9615C115.83 84.0617 116.035 83.9515 115.995 83.8013V83.7963Z" fill="#FFBF85"/>
<path d="M115.256 117C115.239 116.878 115.239 116.797 115.227 116.711L115.209 116.445L115.179 115.912C115.161 115.553 115.143 115.2 115.131 114.842L115.06 112.707C115.012 111.283 115.006 109.86 115 108.431C115 107.007 115 105.578 115.024 104.155C115.054 102.731 115.089 101.302 115.155 99.8785C115.221 98.4551 115.298 97.0317 115.4 95.6082C115.513 94.1848 115.644 92.7614 115.823 91.3438L115.966 90.2791L116.133 89.2202C116.252 88.5143 116.378 87.8084 116.533 87.1082C116.604 86.7553 116.688 86.4081 116.777 86.0609C116.825 85.8873 116.867 85.7138 116.915 85.5402L117.07 85.0252C117.266 84.3366 117.523 83.6596 117.827 83L118 83.0694C117.779 83.7406 117.577 84.4176 117.427 85.112L117.314 85.6327C117.278 85.8063 117.249 85.9799 117.219 86.1535L117.123 86.6743L117.04 87.2008C116.986 87.548 116.926 87.901 116.885 88.2539C116.837 88.6069 116.783 88.954 116.742 89.307C116.652 90.0129 116.581 90.7131 116.503 91.419C116.223 94.2427 116.02 97.0779 115.877 99.9132C115.734 102.748 115.638 105.595 115.561 108.436C115.519 109.86 115.513 111.277 115.477 112.701L115.447 114.836V115.901L115.435 116.433V116.942L115.262 117H115.256Z" fill="#FFBF85"/>
<path d="M105.98 89.8132C104.309 87.1116 98.5841 79.0515 92.0523 83.1318C91.9563 83.1932 92.0015 83.3551 92.1144 83.3607C93.7346 83.383 99.8261 83.8909 105.816 89.9639C105.912 90.0644 106.053 89.936 105.98 89.8132V89.8132Z" fill="#FFBF85"/>
<path d="M105.916 90.8077C103.963 89.2706 97.8567 83.0274 92.0328 87.7145C91.9694 87.7651 92.004 87.8916 92.0846 87.8853C93.7033 87.7525 101.785 87.3097 105.916 90.9721C106.025 91.067 106.031 90.8962 105.916 90.8077V90.8077Z" fill="#FFBF85"/>
<path d="M104.999 89.9473C104.437 87.6098 102.016 78.8499 97.0425 78.0005C97.0043 77.9944 96.988 78.0487 97.0098 78.0788C97.7405 78.9343 103.09 85.2963 104.928 89.9714C104.95 90.0256 105.01 89.9955 104.999 89.9413V89.9473Z" fill="#FFBF85"/>
<path d="M106.944 91.957C106.99 91.9723 107.024 91.911 106.978 91.8803C105.922 91.1697 101.627 88.629 97.3949 90.9704C92.6033 93.6236 101.24 90.086 106.944 91.957Z" fill="#FFBF85"/>
<path d="M106.345 89.8363C106.368 90.0072 106.152 90.0642 106.088 89.9104C105.007 87.3579 102.377 80.2531 105.422 77.7462C109.021 74.7778 105.17 81.045 106.345 89.8363V89.8363Z" fill="#FFBF85"/>
<path d="M106.001 89.8817C106.265 88.1 107.524 82.4807 112.931 84.3908C113.023 84.4258 113.023 84.5602 112.931 84.5836C111.856 84.8581 108.348 86.0205 106.179 89.9518C106.13 90.0452 105.988 89.9926 106.001 89.8817Z" fill="#FFBF85"/>
<path d="M106 90.8059C106.012 89.6963 106.739 87.3383 112.973 88.1766C113.009 88.1766 113.009 88.2429 112.973 88.2429C111.8 88.3334 107.856 88.7796 106.305 90.9325C106.208 91.0712 105.994 90.9808 106 90.7999V90.8059Z" fill="#FFBF85"/>
<path d="M114.811 117.983L114.634 117.115L114.446 116.224L114.062 114.449L113.27 110.903C113.002 109.721 112.721 108.545 112.435 107.369C112.155 106.192 111.868 105.016 111.57 103.846C110.966 101.499 110.315 99.1697 109.602 96.8573L109.334 95.9894L109.053 95.1272C108.864 94.5506 108.676 93.9796 108.462 93.4144C108.036 92.2838 107.597 91.1533 107 90.0914L107.165 90C107.518 90.5139 107.829 91.0506 108.109 91.5987C108.249 91.8728 108.389 92.1468 108.511 92.4266C108.639 92.7064 108.761 92.9861 108.877 93.2716C109.352 94.4021 109.772 95.5498 110.15 96.7088C110.912 99.0269 111.527 101.374 112.118 103.732C112.411 104.908 112.691 106.09 112.959 107.272C113.221 108.454 113.471 109.641 113.714 110.829C113.958 112.016 114.196 113.204 114.409 114.397L114.726 116.184L114.872 117.081L114.939 117.532L114.97 117.754C114.982 117.829 114.994 117.897 115 118L114.811 117.983V117.983Z" fill="#FFBF85"/>
<path d="M109.976 106H118.166C118.705 106 119.099 106.749 118.978 107.538C118.457 110.957 117.826 114.421 116.541 117.941C116.305 118.589 115.85 119 115.359 119H112.685C112.2 119 111.752 118.6 111.527 117.958C110.497 115.08 109.509 111.644 109.018 107.752C108.903 106.845 109.363 106.006 109.976 106.006V106Z" fill="#FFB217"/>
<defs>
<linearGradient id="paint0_linear_117_15" x1="64.0058" y1="91.9939" x2="84.0061" y2="91.9939" gradientUnits="userSpaceOnUse">
<stop stop-color="#FEBBBA"/>
<stop offset="1" stop-color="#FF928E"/>
</linearGradient>
<linearGradient id="paint1_linear_117_15" x1="42.1285" y1="71.83" x2="65.5681" y2="58.263" gradientUnits="userSpaceOnUse">
<stop stop-color="#FEBBBA"/>
<stop offset="1" stop-color="#FF928E"/>
</linearGradient>
<linearGradient id="paint2_linear_117_15" x1="63.0326" y1="43.8013" x2="62.894" y2="82.6346" gradientUnits="userSpaceOnUse">
<stop stop-color="#FEBBBA"/>
<stop offset="1" stop-color="#FF928E"/>
</linearGradient>
<linearGradient id="paint3_linear_117_15" x1="52.8938" y1="60.2516" x2="75.5133" y2="43.0014" gradientUnits="userSpaceOnUse">
<stop/>
<stop offset="1"/>
</linearGradient>
<linearGradient id="paint4_linear_117_15" x1="50.2246" y1="85.5533" x2="54.135" y2="57.3423" gradientUnits="userSpaceOnUse">
<stop stop-color="#FEBBBA"/>
<stop offset="1" stop-color="#FF928E"/>
</linearGradient>
<linearGradient id="paint5_linear_117_15" x1="44.5346" y1="122.784" x2="45.4428" y2="110.139" gradientUnits="userSpaceOnUse">
<stop stop-color="#FEBBBA"/>
<stop offset="1" stop-color="#FF928E"/>
</linearGradient>
<linearGradient id="paint6_linear_117_15" x1="16.8123" y1="198.207" x2="130.757" y2="62.9107" gradientUnits="userSpaceOnUse">
<stop/>
<stop offset="1" stop-color="#970000"/>
</linearGradient>
<linearGradient id="paint7_linear_117_15" x1="90.1792" y1="8.94127" x2="88.4346" y2="44.2006" gradientUnits="userSpaceOnUse">
<stop stop-color="#FFBF00"/>
<stop offset="1" stop-color="#FE9009"/>
</linearGradient>
</defs>
</svg>
